{"glyphs":{"0":{"ha":1442,"x_min":38,"x_max":1404,"o":"m 1404 453 q 1313 210 1404 321 q 1064 34 1221 99 q 721 -31 907 -31 q 378 34 535 -31 q 129 210 221 99 q 38 453 38 321 q 226 793 38 656 q 721 931 414 931 q 1216 793 1028 931 q 1404 453 1404 656 m 892 772 q 868 823 892 772 q 721 874 844 874 q 550 772 597 874 q 503 457 503 671 q 560 135 503 243 q 720 26 617 26 q 881 135 824 26 q 939 458 939 244 q 892 772 939 671 m 237 226 q 203 277 237 226 q 169 451 169 328 q 237 678 169 575 q 418 843 304 781 l 415 850 q 181 685 268 790 q 93 452 93 579 q 181 219 93 325 q 415 54 268 114 l 418 61 q 237 226 304 124 m 963 69 q 1063 238 1022 133 q 1103 452 1103 343 q 1063 666 1103 561 q 963 835 1022 771 l 956 831 q 1024 453 1024 661 q 956 74 1024 244 l 963 69 z "},"1":{"ha":1285,"x_min":79,"x_max":1206,"o":"m 1206 843 l 1097 843 q 992 798 1036 843 q 947 690 947 753 l 947 211 q 989 97 947 133 q 1097 60 1031 60 l 1206 60 l 1206 0 l 210 0 l 210 60 l 318 60 q 426 97 385 60 q 468 211 468 133 l 468 601 q 490 781 468 713 l 497 803 l 138 554 l 79 625 l 524 903 l 1206 903 l 1206 843 m 651 60 l 651 843 l 561 843 l 561 60 l 651 60 z "},"2":{"ha":1401,"x_min":69,"x_max":1322,"o":"m 1268 319 l 1317 319 l 1317 0 l 69 0 l 69 92 q 401 219 257 147 q 627 351 544 292 q 767 489 710 410 q 824 638 824 568 q 807 751 824 707 q 767 819 790 796 q 713 856 743 842 q 625 875 665 875 q 331 758 468 875 q 167 503 193 642 l 118 503 l 118 881 l 167 881 l 167 806 q 682 931 383 931 q 1082 878 882 931 q 1255 793 1188 850 q 1322 658 1322 736 q 1237 501 1322 581 q 1025 360 1151 422 q 728 238 899 297 q 131 65 450 140 l 131 58 q 1268 206 781 60 l 1268 319 m 826 843 q 900 649 900 769 q 846 483 900 560 q 725 353 792 406 l 728 346 q 807 382 763 356 q 883 439 851 408 q 940 524 914 469 q 965 629 965 579 q 951 713 965 679 q 917 769 938 746 q 844 839 876 818 l 831 847 l 826 843 z "},"3":{"ha":1424,"x_min":72,"x_max":1353,"o":"m 1353 240 q 1261 104 1353 167 q 1012 6 1169 42 q 668 -31 854 -31 q 121 68 349 -31 l 121 8 l 72 8 l 72 296 l 121 296 q 317 104 164 183 q 644 25 471 25 q 820 88 754 25 q 886 247 886 150 q 822 403 886 343 q 653 464 757 464 q 485 429 550 464 q 421 328 421 394 l 374 328 l 374 638 l 421 638 q 614 515 421 515 q 772 564 714 515 q 831 690 831 613 q 776 822 831 768 q 601 875 722 875 q 356 804 481 875 q 167 603 231 733 l 118 603 l 118 868 l 167 868 l 167 810 q 313 871 257 850 q 465 911 368 892 q 668 931 561 931 q 1092 859 928 931 q 1256 693 1256 788 q 1133 562 1256 619 q 822 486 1010 504 q 1210 403 1068 469 q 1353 240 1353 338 m 1021 236 q 915 426 1021 342 l 910 419 q 954 235 954 344 q 910 51 954 126 l 915 46 q 992 134 963 83 q 1021 236 1021 185 m 944 608 q 959 630 944 608 q 974 696 974 651 q 944 784 974 740 q 867 858 915 828 l 860 854 q 906 696 906 774 q 860 538 906 618 l 867 533 q 944 608 915 564 z "},"4":{"ha":1406,"x_min":79,"x_max":1328,"o":"m 1328 247 l 1068 247 l 1068 210 q 1110 96 1068 132 q 1218 60 1151 60 l 1326 60 l 1326 0 l 331 0 l 331 60 l 438 60 q 547 96 506 60 q 589 210 589 132 l 589 247 l 79 247 l 79 306 l 644 903 l 1326 903 l 1326 843 l 1218 843 q 1113 798 1157 843 q 1068 690 1068 753 l 1068 306 l 1328 306 l 1328 247 m 589 306 l 589 590 q 611 769 589 710 l 618 792 l 199 306 l 589 306 m 772 58 l 772 843 l 682 843 l 682 58 l 772 58 z "},"5":{"ha":1417,"x_min":68,"x_max":1349,"o":"m 1231 903 q 1317 921 1296 903 l 1349 903 l 997 729 l 399 729 l 231 514 q 451 584 354 563 q 678 606 549 606 q 907 590 807 606 q 1106 540 1007 574 q 1268 443 1206 507 q 1331 293 1331 379 q 1263 142 1331 207 q 1086 40 1196 76 q 614 -31 871 -31 q 361 -8 485 -31 q 178 38 238 15 l 118 60 l 118 0 l 69 0 l 69 276 l 118 276 q 200 188 163 224 q 297 110 238 151 q 611 25 421 25 q 742 50 689 25 q 819 117 796 75 q 864 274 864 190 q 514 532 864 532 q 372 515 442 532 q 253 472 301 497 q 111 383 156 424 l 92 365 l 68 388 l 488 921 l 515 921 q 624 903 519 903 l 1231 903 m 914 377 q 920 354 914 377 q 926 278 926 331 q 917 180 926 225 q 896 108 908 135 q 850 38 869 53 l 840 31 l 842 25 q 892 49 861 29 q 942 94 922 68 q 979 169 963 119 q 996 280 996 218 q 977 391 996 342 q 932 467 958 440 q 878 510 906 493 q 833 533 851 526 q 814 538 814 539 l 811 532 l 824 524 q 851 497 832 518 q 886 450 871 476 q 914 377 901 424 z "},"6":{"ha":1524,"x_min":79,"x_max":1444,"o":"m 1263 893 l 1310 893 l 1310 661 l 1263 661 q 1178 731 1233 690 q 1075 801 1124 772 q 960 852 1026 829 q 833 875 893 875 q 547 497 547 875 q 738 558 618 531 q 964 585 857 585 q 1180 554 1071 585 q 1367 457 1289 524 q 1444 304 1444 390 q 1384 152 1444 218 q 1222 47 1324 86 q 751 -31 1014 -31 q 431 27 583 -31 q 178 196 278 85 q 79 447 79 307 q 178 699 79 586 q 438 871 276 811 q 792 931 600 931 q 1041 908 924 931 q 1211 864 1158 886 l 1263 843 l 1263 893 m 546 385 q 597 100 546 172 q 660 46 618 68 q 763 24 701 24 q 870 45 825 24 q 937 93 915 67 q 971 162 958 119 q 985 228 983 204 q 986 286 986 251 q 942 449 986 381 q 811 518 899 518 q 690 499 756 518 q 585 461 624 481 l 546 442 l 546 385 m 187 591 q 171 557 187 591 q 156 447 156 524 q 183 304 156 371 q 247 197 210 238 q 389 86 326 113 l 415 74 l 419 81 q 399 97 413 86 q 354 142 386 107 q 298 217 322 178 q 253 319 274 257 q 233 447 233 382 q 256 574 233 513 q 308 678 278 636 q 425 797 374 764 l 447 813 l 443 821 q 347 771 401 806 q 256 697 293 736 q 187 591 218 658 m 1039 433 q 1049 402 1039 433 q 1060 293 1060 371 q 1041 153 1060 215 q 1004 67 1022 90 l 986 44 l 990 39 q 1111 190 1079 83 q 1126 293 1126 238 q 1112 394 1126 349 q 1078 467 1097 440 q 1003 533 1036 518 l 988 539 l 985 533 q 1006 510 993 526 q 1039 433 1018 494 z "},"7":{"ha":1536,"x_min":67,"x_max":1457,"o":"m 67 903 l 1457 903 l 1457 840 l 1329 840 q 1249 790 1299 825 q 1160 717 1200 754 q 1070 619 1119 679 q 986 493 1021 558 l 1193 493 l 1193 432 l 958 432 q 906 161 906 303 q 913 60 906 119 l 1118 60 l 1118 0 l 447 0 q 560 432 447 207 l 336 432 l 336 493 l 592 493 q 716 682 646 590 q 828 817 786 774 l 871 860 q 789 864 844 864 q 663 853 733 864 q 495 813 593 842 q 294 718 397 785 q 106 556 192 651 l 67 556 l 67 903 m 193 840 l 136 840 l 136 681 l 193 724 l 193 840 m 611 60 q 655 308 611 181 q 761 531 699 435 q 992 819 883 719 l 1035 861 l 960 861 q 914 819 943 846 q 812 705 885 792 q 683 528 739 618 q 582 310 628 439 q 536 60 536 181 l 611 60 z "},"8":{"ha":1525,"x_min":79,"x_max":1446,"o":"m 1008 531 q 1117 705 1117 603 q 1010 879 1117 807 l 1004 874 q 1049 703 1049 788 q 1003 535 1049 619 l 1008 531 m 322 704 q 369 803 322 757 q 499 879 417 849 l 497 885 q 321 808 386 857 q 256 706 256 760 q 319 605 256 651 q 490 528 382 558 l 493 533 q 322 704 322 600 m 546 701 q 763 513 546 513 q 981 701 981 513 q 933 849 981 803 q 763 896 886 896 q 593 849 640 896 q 546 701 546 803 m 292 123 q 263 150 292 123 q 233 242 233 178 q 290 360 233 306 q 446 450 347 415 l 443 456 q 233 365 310 421 q 156 242 156 308 q 234 118 156 175 q 446 28 313 61 l 449 33 q 292 123 350 68 m 601 74 q 630 45 601 74 q 763 17 658 17 q 924 74 867 17 q 981 244 981 132 q 931 418 981 357 q 765 479 881 479 q 597 422 650 479 q 544 248 544 364 q 601 74 544 132 m 1017 35 q 1143 241 1143 114 q 1015 450 1143 368 l 1013 444 q 1067 240 1067 344 q 1011 39 1067 136 l 1017 35 m 1350 704 q 1260 583 1350 638 q 1021 500 1169 528 l 1021 494 q 1333 397 1219 465 q 1446 242 1446 329 q 1354 106 1446 168 q 1106 6 1263 43 q 763 -31 949 -31 q 419 6 576 -31 q 171 106 263 43 q 79 242 79 168 q 193 397 79 329 q 506 494 307 465 l 506 500 q 267 583 357 528 q 176 704 176 638 q 338 865 176 800 q 763 931 500 931 q 1188 865 1026 931 q 1350 704 1350 800 z "},"9":{"ha":1510,"x_min":79,"x_max":1431,"o":"m 249 -10 l 200 -10 l 200 219 l 249 219 q 330 157 272 196 q 435 92 388 118 q 551 46 483 67 q 678 25 618 25 q 897 115 831 25 q 963 383 963 206 q 904 359 942 374 q 760 321 867 344 q 560 297 653 297 q 388 313 468 297 q 235 360 307 328 q 122 449 164 392 q 79 581 79 506 q 181 760 79 681 q 435 881 282 840 q 760 922 589 922 q 1081 867 931 922 q 1331 697 1232 811 q 1431 439 1431 583 q 1332 187 1431 294 q 1072 24 1233 79 q 719 -31 911 -31 q 469 -14 588 -31 q 300 19 351 3 l 249 38 l 249 -10 m 964 531 q 958 653 964 604 q 933 757 953 703 q 750 867 892 867 q 524 606 524 867 q 567 431 524 499 q 700 364 611 364 q 822 383 756 364 q 925 422 888 403 l 964 442 l 964 531 m 1110 287 q 1120 322 1110 287 q 1131 433 1131 357 q 1116 579 1131 510 q 1081 694 1101 649 q 1040 772 1061 739 q 1006 819 1019 804 q 990 833 992 835 l 986 831 q 1004 795 993 819 q 1034 669 1015 771 q 1053 448 1053 567 q 1025 231 1053 329 q 969 86 997 132 l 943 39 l 946 35 q 965 50 953 40 q 1010 96 978 60 q 1066 174 1042 132 q 1110 287 1090 217 m 184 659 q 175 639 184 659 q 167 572 167 619 q 183 487 167 525 q 221 428 200 449 q 269 392 242 407 q 308 373 297 376 q 328 367 319 369 l 329 371 q 242 496 267 413 q 232 572 232 532 q 326 782 232 699 l 325 786 q 275 762 307 782 q 222 720 243 742 q 184 659 201 699 z "},"\u0000":{"ha":1063,"x_min":0,"x_max":0,"o":""}," ":{"ha":625,"x_min":0,"x_max":0,"o":""},"!":{"ha":943,"x_min":151,"x_max":789,"o":"m 696 294 q 742 266 696 294 q 789 157 789 238 q 696 20 789 76 q 470 -36 603 -36 q 244 20 338 -36 q 151 157 151 76 q 244 294 151 238 q 470 350 338 350 q 696 294 603 350 m 747 947 q 692 765 747 896 q 570 524 638 635 q 472 413 503 413 q 372 524 440 413 q 249 765 304 635 q 194 947 194 896 q 266 1070 194 1028 q 470 1113 338 1113 q 675 1070 603 1113 q 747 947 747 1028 m 288 965 q 351 749 288 911 q 471 489 415 586 l 513 556 q 406 801 457 667 q 354 981 356 935 q 374 1015 354 997 q 421 1042 393 1032 l 415 1054 q 324 1021 360 1044 q 288 965 288 997 m 385 29 q 329 157 329 82 q 385 285 329 232 l 381 292 q 289 235 324 271 q 254 157 254 199 q 289 79 254 115 q 381 22 324 43 l 385 29 z "},"\"":{"ha":1103,"x_min":69,"x_max":1033,"o":"m 501 825 q 458 682 501 783 q 363 494 415 581 q 285 407 310 407 q 159 583 249 407 q 69 824 69 760 q 125 921 69 888 q 285 954 181 954 q 445 921 389 954 q 501 825 501 888 m 142 839 q 192 669 142 797 q 285 465 242 542 l 318 519 q 235 710 275 606 q 194 849 194 815 q 221 904 193 882 l 218 913 q 142 839 142 894 m 1033 825 q 990 682 1033 783 q 894 494 947 581 q 817 407 842 407 q 691 583 781 407 q 601 824 601 760 q 657 921 601 888 q 817 954 713 954 q 977 921 921 954 q 1033 825 1033 888 m 674 839 q 724 669 674 797 q 817 465 774 542 l 850 519 q 767 709 807 603 q 726 849 726 815 q 753 904 725 882 l 750 913 q 674 839 674 894 z "},"#":{"ha":1167,"x_min":69,"x_max":1097,"o":"m 194 688 l 382 688 l 458 972 l 569 972 l 493 688 l 799 688 l 875 972 l 986 972 l 910 688 l 1097 688 l 1068 576 l 879 576 l 813 326 l 1000 326 l 971 215 l 783 215 l 707 -69 l 596 -69 l 672 215 l 367 215 l 290 -69 l 179 -69 l 256 215 l 69 215 l 99 326 l 285 326 l 351 576 l 165 576 l 194 688 m 463 576 l 396 326 l 701 326 l 768 576 l 463 576 z "},"$":{"ha":1751,"x_min":131,"x_max":1619,"o":"m 244 443 q 216 461 244 443 q 160 524 188 479 q 133 626 133 569 q 157 733 133 683 q 215 815 181 783 q 309 870 250 847 q 418 905 368 893 q 544 922 468 917 q 788 931 657 931 l 811 931 l 811 1056 l 881 1056 l 881 928 q 1479 843 1167 911 l 1504 903 l 1569 903 l 1569 610 l 1504 610 q 1260 756 1460 674 q 881 865 1060 839 l 881 675 q 1226 611 1157 628 q 1603 376 1542 535 q 1619 286 1619 335 q 1438 46 1619 121 q 894 -29 1256 -29 l 881 -29 l 881 -153 l 811 -153 l 811 -28 q 235 81 551 -18 l 196 0 l 131 0 l 131 390 l 196 390 q 418 185 238 296 q 811 40 599 75 l 811 247 q 356 381 469 324 q 244 443 300 407 m 1357 128 q 1296 254 1357 208 q 1158 322 1232 301 q 1039 352 1083 342 q 922 378 994 363 q 769 412 849 393 q 607 456 689 431 q 442 522 525 482 q 246 735 271 603 l 236 736 q 218 639 218 696 q 333 474 218 543 q 860 300 469 390 q 994 268 946 279 q 1099 242 1043 257 q 1188 215 1156 228 q 1254 185 1221 203 q 1351 94 1313 153 l 1357 96 l 1357 128 m 1192 97 q 1114 166 1192 136 q 881 232 1036 196 l 881 31 q 960 28 933 28 q 1192 97 1192 28 m 811 872 l 775 874 q 599 799 599 874 q 653 733 599 758 q 811 688 707 708 l 811 872 z "},"%":{"ha":1618,"x_min":28,"x_max":1590,"o":"m 558 -31 l 486 -31 l 1033 931 l 1106 931 l 558 -31 m 406 956 q 490 956 406 956 q 679 880 575 956 q 783 692 783 804 q 672 501 783 579 q 405 424 561 424 q 138 501 249 424 q 28 691 28 579 q 132 879 28 803 q 406 956 236 956 m 519 693 q 519 750 519 693 q 494 861 519 807 q 405 915 469 915 q 316 861 340 915 q 292 693 292 807 q 322 521 292 579 q 405 463 351 463 q 489 521 458 463 q 519 693 519 579 m 175 572 q 157 603 175 572 q 139 690 139 635 q 175 809 139 746 q 274 913 211 872 l 272 917 q 133 822 183 883 q 83 690 83 760 q 133 559 83 621 q 272 464 183 497 l 274 468 q 175 572 211 508 m 607 581 q 619 606 607 581 q 631 689 631 631 q 607 797 631 747 q 547 874 583 846 l 543 871 q 575 689 575 803 q 543 507 575 575 l 547 504 q 607 581 583 532 m 1213 515 q 1297 515 1213 515 q 1486 440 1382 515 q 1590 251 1590 364 q 1479 61 1590 139 q 1212 -17 1368 -17 q 945 61 1056 -17 q 835 251 835 139 q 939 439 835 363 q 1213 515 1043 515 m 1326 253 q 1326 310 1326 253 q 1301 421 1326 367 q 1212 475 1276 475 q 1123 421 1147 475 q 1099 253 1099 367 q 1128 81 1099 139 q 1212 22 1158 22 q 1296 81 1265 22 q 1326 253 1326 139 m 982 131 q 964 163 982 131 q 946 250 946 194 q 982 369 946 306 q 1081 472 1018 432 l 1079 476 q 940 381 990 443 q 890 250 890 319 q 940 119 890 181 q 1079 24 990 57 l 1081 28 q 982 131 1018 68 m 1414 141 q 1426 166 1414 141 q 1438 249 1438 190 q 1414 356 1438 307 q 1354 433 1390 406 l 1350 431 q 1382 249 1382 363 q 1350 67 1382 135 l 1354 64 q 1414 141 1390 92 z "},"&":{"ha":1929,"x_min":0,"x_max":1929,"o":"m 1333 494 l 1929 494 l 1929 435 l 1711 435 q 1376 199 1564 306 q 1756 60 1556 60 l 1929 60 l 1929 0 l 1153 0 q 1026 43 1096 0 q 572 -32 792 -32 q 145 44 290 -32 q 0 243 0 121 q 142 442 0 364 q 658 532 300 529 q 625 696 625 625 q 795 789 625 751 q 1139 826 965 826 q 1329 787 1257 826 q 1401 692 1401 747 q 1335 588 1401 638 q 1117 507 1269 538 q 1326 240 1199 354 q 1468 403 1468 332 q 1406 435 1468 435 l 1333 435 l 1333 494 m 708 46 q 968 85 829 46 q 808 259 886 153 q 682 475 731 365 q 546 415 589 467 q 503 247 503 364 q 708 46 503 46 m 1051 701 q 1090 561 1051 644 q 1303 692 1303 601 q 1177 779 1303 779 q 1051 701 1051 779 m 774 718 q 736 707 754 717 q 713 689 718 697 q 935 235 778 421 q 1279 50 1093 50 q 1080 181 1171 99 q 929 361 989 264 q 774 718 817 542 m 181 78 q 136 244 136 146 q 181 410 136 342 l 175 415 q 69 244 69 340 q 175 74 69 149 l 181 78 z "},"'":{"ha":571,"x_min":69,"x_max":501,"o":"m 501 825 q 458 682 501 783 q 363 494 415 581 q 285 407 310 407 q 159 583 249 407 q 69 824 69 760 q 125 921 69 888 q 285 954 181 954 q 445 921 389 954 q 501 825 501 888 m 142 839 q 192 669 142 797 q 285 465 242 542 l 318 519 q 235 709 275 603 q 194 849 194 815 q 221 904 193 882 l 218 913 q 142 839 142 894 z "},"(":{"ha":1118,"x_min":167,"x_max":950,"o":"m 781 828 q 764 804 781 828 q 719 675 747 779 q 692 451 692 571 q 706 248 692 332 q 743 112 721 164 q 793 19 765 60 q 849 -40 821 -21 q 936 -86 907 -82 l 950 -87 l 950 -162 q 375 50 583 -107 q 167 431 167 207 q 375 811 167 654 q 950 1024 583 968 l 950 949 q 922 943 939 947 q 860 908 904 939 q 781 828 815 878 m 387 723 q 320 659 387 723 q 254 431 254 594 q 387 138 254 267 q 749 -68 519 10 l 753 -58 q 465 148 575 22 q 356 431 356 274 q 465 713 356 588 q 753 919 575 839 l 749 929 q 387 723 519 851 z "},")":{"ha":1111,"x_min":160,"x_max":943,"o":"m 328 33 q 345 57 328 33 q 390 186 363 82 q 418 410 418 290 q 403 613 418 529 q 367 749 389 697 q 317 842 344 801 q 261 901 289 882 q 175 947 203 943 l 160 949 l 160 1024 q 735 811 526 968 q 943 431 943 654 q 735 50 943 207 q 160 -162 526 -107 l 160 -87 q 188 -82 171 -86 q 250 -47 206 -78 q 328 33 294 -17 m 581 254 q 593 295 581 254 q 606 428 606 336 q 581 601 606 519 q 518 742 557 683 q 372 899 446 849 l 363 890 q 504 428 504 756 q 363 -35 504 100 l 372 -43 q 518 114 446 7 q 581 254 557 172 z "},"*":{"ha":939,"x_min":69,"x_max":869,"o":"m 614 1028 q 555 866 614 983 q 470 749 496 749 q 385 866 444 749 q 326 1028 326 983 q 470 1113 326 1113 q 614 1028 614 1113 m 431 725 q 338 685 431 703 q 168 667 244 667 q 69 753 69 667 q 109 892 69 835 q 189 949 149 949 q 330 854 229 949 q 431 725 431 760 m 508 725 q 609 854 508 760 q 750 949 710 949 q 830 892 790 949 q 869 753 869 835 q 771 667 869 667 q 601 685 694 667 q 508 725 508 703 m 438 676 q 456 617 456 676 q 433 465 456 558 q 382 349 410 371 q 335 338 369 338 q 253 363 300 338 q 172 438 207 389 q 153 489 153 463 q 271 611 153 546 q 438 676 389 676 m 506 678 q 661 615 550 678 q 785 514 772 551 q 788 497 788 503 q 746 411 788 458 q 635 342 704 364 q 603 336 619 336 q 524 408 546 336 q 485 629 485 528 q 506 678 485 678 m 374 1035 q 406 924 374 1006 q 469 788 439 842 l 497 831 q 415 1043 418 993 q 435 1076 415 1063 l 431 1089 q 374 1035 374 1079 m 97 789 l 96 774 q 196 711 96 711 q 394 733 296 711 l 363 772 q 185 756 251 756 q 113 790 119 756 l 97 789 m 224 449 q 297 523 224 476 q 421 593 369 569 l 424 644 q 249 544 307 585 q 192 476 192 503 q 214 426 192 449 l 228 431 q 224 449 224 439 m 661 392 q 601 460 625 392 q 564 626 576 528 l 517 644 q 583 397 535 464 q 625 369 603 369 q 661 378 647 369 l 661 392 m 828 792 q 754 756 821 756 q 576 772 688 756 l 544 733 q 721 711 643 711 q 821 724 799 711 q 843 771 843 738 q 842 789 843 781 l 828 792 z "},"+":{"ha":1028,"x_min":139,"x_max":889,"o":"m 458 844 l 569 844 l 569 525 l 889 525 l 889 414 l 569 414 l 569 94 l 458 94 l 458 414 l 139 414 l 139 525 l 458 525 l 458 844 z "},",":{"ha":826,"x_min":126,"x_max":688,"o":"m 303 26 q 251 143 251 75 q 303 260 251 211 l 299 265 q 215 213 247 246 q 183 143 183 181 q 215 73 183 106 q 299 21 247 40 l 303 26 m 126 143 q 126 179 126 143 q 210 267 126 215 q 417 318 294 318 q 613 253 539 318 q 688 97 688 189 q 567 -111 688 -18 q 408 -183 508 -156 q 179 -210 307 -210 l 179 -158 q 371 -139 286 -158 q 550 -7 531 -100 q 413 -31 479 -31 q 210 20 294 -31 q 126 143 126 71 z "},"-":{"ha":1028,"x_min":139,"x_max":889,"o":"m 889 476 l 889 365 l 139 365 l 139 476 l 889 476 z "},".":{"ha":825,"x_min":126,"x_max":696,"o":"m 613 267 q 654 241 613 267 q 696 143 696 215 q 613 20 696 71 q 411 -31 529 -31 q 210 20 293 -31 q 126 143 126 71 q 210 267 126 215 q 411 318 293 318 q 613 267 529 318 m 301 26 q 250 143 250 75 q 301 260 250 211 l 297 265 q 214 213 246 246 q 182 143 182 181 q 214 73 182 106 q 297 21 246 40 l 301 26 z "},"/":{"ha":808,"x_min":69,"x_max":739,"o":"m 183 -72 l 69 -72 l 625 931 l 739 931 l 183 -72 z "},":":{"ha":825,"x_min":126,"x_max":696,"o":"m 613 829 q 654 803 613 829 q 696 706 696 778 q 613 583 696 633 q 411 532 529 532 q 210 583 293 532 q 126 706 126 633 q 210 829 126 778 q 411 881 293 881 q 613 829 529 881 m 301 589 q 250 706 250 638 q 301 822 250 774 l 297 828 q 214 776 246 808 q 182 706 182 743 q 214 635 182 668 q 297 583 246 603 l 301 589 m 613 267 q 654 241 613 267 q 696 143 696 215 q 613 20 696 71 q 411 -31 529 -31 q 210 20 293 -31 q 126 143 126 71 q 210 267 126 215 q 411 318 293 318 q 613 267 529 318 m 301 26 q 250 143 250 75 q 301 260 250 211 l 297 265 q 214 213 246 246 q 182 143 182 181 q 214 73 182 106 q 297 21 246 40 l 301 26 z "},";":{"ha":826,"x_min":126,"x_max":706,"o":"m 303 26 q 251 143 251 75 q 303 260 251 211 l 299 265 q 215 213 247 246 q 183 143 183 181 q 215 73 183 106 q 299 21 247 40 l 303 26 m 126 143 q 126 179 126 143 q 210 267 126 215 q 417 318 294 318 q 613 253 539 318 q 688 97 688 189 q 567 -111 688 -18 q 408 -183 508 -156 q 179 -210 307 -210 l 179 -158 q 371 -139 286 -158 q 550 -7 531 -100 q 413 -31 479 -31 q 210 20 294 -31 q 126 143 126 71 m 622 829 q 664 803 622 829 q 706 706 706 778 q 622 583 706 633 q 421 532 539 532 q 219 583 303 532 q 136 706 136 633 q 219 829 136 778 q 421 881 303 881 q 622 829 539 881 m 311 589 q 260 706 260 638 q 311 822 260 774 l 307 828 q 224 776 256 808 q 192 706 192 743 q 224 635 192 668 q 307 583 256 603 l 311 589 z "},"<":{"ha":1028,"x_min":149,"x_max":860,"o":"m 860 219 l 813 121 l 149 429 l 149 513 l 813 821 l 860 722 l 301 471 l 860 219 z "},"=":{"ha":1028,"x_min":139,"x_max":889,"o":"m 889 372 l 889 261 l 139 261 l 139 372 l 889 372 m 889 678 l 889 567 l 139 567 l 139 678 l 889 678 z "},">":{"ha":1028,"x_min":149,"x_max":860,"o":"m 149 722 l 196 821 l 860 513 l 860 429 l 196 121 l 149 219 l 707 471 l 149 722 z "},"?":{"ha":1517,"x_min":135,"x_max":1364,"o":"m 913 294 q 959 266 913 294 q 1006 157 1006 238 q 913 20 1006 76 q 689 -36 821 -36 q 463 20 557 -36 q 369 157 369 76 q 463 294 369 238 q 689 350 557 350 q 913 294 821 350 m 1364 846 q 1254 644 1364 738 q 963 495 1144 550 q 579 440 782 440 q 469 443 561 440 l 469 506 q 606 503 556 503 q 763 560 707 503 q 819 768 819 618 q 781 996 819 949 q 744 1027 761 1019 q 703 1035 728 1035 q 393 938 563 1035 q 193 744 224 840 l 135 744 l 135 1111 l 193 1111 l 193 1021 q 697 1088 428 1088 q 1364 846 1364 1088 m 592 29 q 540 157 540 83 q 592 285 540 231 l 588 292 q 504 235 536 271 q 472 157 472 199 q 504 78 472 115 q 588 22 536 42 l 592 29 m 844 1032 q 906 788 906 935 q 844 533 906 640 l 853 521 q 910 558 882 535 q 966 646 938 582 q 994 783 994 710 q 979 903 994 856 q 939 978 964 950 q 853 1043 896 1026 l 844 1032 z "},"@":{"ha":1775,"x_min":69,"x_max":1733,"o":"m 256 769 q 301 814 256 769 q 491 911 346 858 q 793 964 636 964 q 1048 953 950 964 q 1236 915 1146 943 q 1418 690 1418 858 l 1418 25 l 1076 25 l 1043 97 q 796 -1 929 -1 q 583 84 663 -1 q 503 285 503 169 q 588 485 503 401 q 833 568 674 568 q 1021 564 956 568 l 1021 689 q 815 894 1021 894 q 632 845 715 894 q 495 715 549 796 q 413 532 442 633 q 383 324 383 431 q 413 121 383 217 q 497 -53 442 25 q 647 -178 553 -132 q 858 -225 740 -225 q 1255 -136 1072 -225 q 1544 106 1438 -47 q 1650 440 1650 260 l 1733 440 q 1616 65 1733 238 q 1297 -208 1499 -107 q 858 -308 1096 -308 q 514 -253 668 -308 q 265 -105 360 -197 q 120 101 171 -12 q 69 338 69 215 q 117 570 69 460 q 256 769 165 681 m 298 50 q 270 117 298 50 q 242 339 242 185 q 297 627 242 493 q 440 828 353 761 l 436 839 q 231 639 310 783 q 153 339 153 494 q 232 37 153 183 q 438 -164 311 -110 l 442 -153 q 298 50 354 -85 m 1093 729 l 1093 103 l 1182 103 l 1182 729 q 1138 831 1182 775 q 1008 904 1094 886 l 1004 890 q 1093 729 1093 856 m 964 161 q 1021 168 989 161 l 1021 493 q 965 494 1003 494 q 868 441 903 494 q 833 320 833 388 q 867 207 833 253 q 964 161 900 161 m 672 160 q 657 192 672 160 q 642 285 642 224 q 672 409 642 346 q 764 513 703 472 l 761 522 q 622 422 672 486 q 572 285 572 358 q 623 147 572 211 q 761 47 674 82 l 764 57 q 672 160 703 97 z "},"A":{"ha":1940,"x_min":-19,"x_max":1958,"o":"m 1958 60 l 1958 0 l 915 0 l 915 60 l 1018 60 q 1077 76 1054 60 q 1100 124 1100 92 q 1060 206 1100 156 l 1008 269 l 393 269 q 353 159 353 207 q 382 85 353 111 q 457 60 411 60 l 586 60 l 586 0 l -19 0 l -19 60 q 71 81 24 60 q 154 133 118 103 q 221 196 190 164 q 267 249 251 228 q 283 271 283 269 l 640 725 l 606 768 q 535 826 572 808 q 435 843 499 843 l 325 843 l 325 903 l 1119 903 l 1800 60 l 1958 60 m 446 336 l 956 336 l 694 658 l 446 336 m 1289 60 l 1396 60 l 764 843 l 657 843 l 1289 60 z "},"B":{"ha":2057,"x_min":101,"x_max":1974,"o":"m 1892 704 q 1871 614 1892 654 q 1817 549 1850 574 q 1706 486 1757 504 l 1706 479 q 1861 422 1772 468 q 1942 349 1911 396 q 1974 244 1974 303 q 1944 142 1974 186 q 1871 72 1915 97 q 1767 29 1826 46 q 1547 0 1663 0 l 101 0 l 101 60 l 268 60 q 377 96 336 60 q 418 210 418 132 l 418 690 q 374 798 418 753 q 268 843 331 843 l 101 843 l 101 903 l 1438 903 q 1806 850 1710 903 q 1892 704 1892 800 m 1078 60 l 1204 60 q 1351 106 1288 60 q 1414 253 1414 153 q 1352 402 1414 354 q 1189 450 1290 450 l 961 450 l 961 201 q 1078 60 961 60 m 961 706 l 961 503 l 1179 503 q 1306 547 1250 503 q 1361 672 1361 590 q 1300 798 1361 754 q 1125 842 1239 842 q 1005 805 1049 842 q 961 706 961 768 m 603 60 l 603 843 l 513 843 l 513 60 l 603 60 m 1531 569 q 1551 589 1531 569 q 1572 664 1572 610 q 1531 760 1572 718 q 1422 821 1489 801 l 1418 817 q 1474 663 1474 747 q 1418 511 1474 579 l 1422 506 q 1531 569 1489 528 m 1449 65 q 1578 142 1529 92 q 1628 256 1628 192 q 1578 372 1628 321 q 1449 449 1529 422 l 1444 443 q 1531 256 1531 368 q 1446 71 1531 144 l 1449 65 z "},"C":{"ha":1524,"x_min":31,"x_max":1506,"o":"m 925 -31 q 300 83 553 -31 q 102 235 174 139 q 31 456 31 331 q 107 677 31 581 q 308 828 183 774 q 875 936 561 936 q 1374 833 1090 936 l 1374 903 l 1440 903 l 1440 571 l 1374 571 q 1167 779 1314 683 q 868 875 1021 875 q 706 822 754 875 q 658 674 658 768 l 658 293 q 719 90 658 151 q 915 28 779 28 q 1155 54 1050 28 q 1315 113 1260 81 q 1415 172 1371 146 q 1472 199 1460 199 q 1506 171 1506 199 q 1361 58 1506 132 q 925 -31 1181 -31 m 496 89 q 290 233 369 143 q 211 450 211 322 q 290 676 211 578 q 496 833 369 775 l 494 840 q 219 685 325 793 q 113 450 113 576 q 218 225 113 324 q 494 82 324 126 l 496 89 z "},"D":{"ha":2040,"x_min":97,"x_max":2008,"o":"m 97 903 l 1157 903 q 1740 806 1499 903 q 1936 670 1864 757 q 2008 470 2008 583 q 1957 271 2008 357 q 1828 135 1906 185 q 1650 54 1751 86 q 1285 0 1476 0 l 97 0 l 97 60 l 264 60 q 374 96 332 60 q 415 211 415 132 l 415 692 q 371 798 415 753 q 264 843 326 843 l 97 843 l 97 903 m 599 60 l 599 843 l 508 843 l 508 60 l 599 60 m 1072 60 l 1199 60 q 1335 119 1281 60 q 1431 450 1431 224 q 1121 842 1431 842 q 1000 805 1044 842 q 956 706 956 768 l 956 201 q 1072 60 956 60 m 1436 69 q 1667 450 1667 200 q 1436 831 1667 700 l 1433 826 q 1554 450 1554 663 q 1433 74 1554 238 l 1436 69 z "},"E":{"ha":1889,"x_min":101,"x_max":1778,"o":"m 1117 840 q 1002 803 1044 840 q 960 706 960 765 l 960 658 q 1082 517 960 517 q 1281 569 1176 517 q 1419 693 1386 622 l 1471 693 l 1471 269 l 1419 269 q 1285 388 1388 343 q 1082 433 1182 433 q 988 397 1017 433 q 960 310 960 361 l 960 260 q 981 106 960 153 q 1079 60 1003 60 l 1114 60 q 1242 62 1192 60 q 1369 77 1292 64 q 1504 113 1447 90 q 1625 183 1561 136 q 1738 294 1689 229 l 1778 294 l 1778 0 l 101 0 l 101 60 l 268 60 q 419 210 419 60 l 419 690 q 375 798 419 753 q 268 843 331 843 l 101 843 l 101 903 l 1778 903 l 1778 583 l 1738 583 q 1504 766 1657 692 q 1117 840 1351 840 m 604 60 l 604 843 l 513 843 l 513 60 l 604 60 z "},"F":{"ha":1715,"x_min":101,"x_max":1678,"o":"m 1264 60 l 1264 0 l 101 0 l 101 60 l 268 60 q 377 96 336 60 q 418 211 418 132 l 418 690 q 374 798 418 753 q 268 843 331 843 l 101 843 l 101 903 l 1678 903 l 1678 643 l 1639 643 q 1583 700 1601 683 q 1517 750 1565 717 q 1422 800 1469 783 q 1117 842 1297 842 q 1003 804 1044 842 q 961 706 961 767 l 961 658 q 1082 517 961 517 q 1232 552 1167 517 q 1335 643 1297 588 l 1386 643 l 1386 296 l 1335 296 q 1240 403 1301 372 q 1082 435 1178 435 q 989 399 1017 435 q 961 310 961 363 l 961 204 q 996 86 961 113 q 1125 60 1031 60 l 1264 60 m 603 60 l 603 843 l 513 843 l 513 60 l 603 60 z "},"G":{"ha":1906,"x_min":31,"x_max":1949,"o":"m 838 543 l 1949 543 l 1949 483 l 1685 483 l 1685 0 l 1618 0 q 1592 63 1618 39 q 1527 88 1567 88 q 1431 69 1488 88 q 1313 28 1374 50 q 1147 -13 1253 6 q 906 -32 1042 -32 q 639 -15 771 -32 q 394 38 507 1 q 201 131 281 75 q 76 270 121 188 q 31 456 31 353 q 875 936 31 936 q 1499 843 1188 936 l 1499 903 l 1565 903 l 1565 610 l 1499 610 q 1277 793 1432 713 q 950 874 1122 874 q 739 824 819 874 q 658 669 658 774 l 658 282 q 929 29 658 29 q 1074 67 1007 29 q 1133 134 1111 89 q 1156 243 1156 179 l 1156 343 q 1107 442 1156 401 q 997 483 1058 483 l 838 483 l 838 543 m 418 99 q 275 249 329 151 q 221 465 221 347 q 275 679 221 582 q 418 828 329 776 l 415 835 q 201 691 283 792 q 118 465 118 590 q 201 238 118 340 q 417 93 285 136 l 418 99 m 1339 299 l 1339 481 l 1249 481 l 1249 207 q 1269 99 1249 99 q 1317 159 1294 99 q 1339 299 1339 219 z "},"H":{"ha":2376,"x_min":101,"x_max":2267,"o":"m 1947 690 l 1947 210 q 1989 96 1947 132 q 2099 60 2031 60 l 2267 60 l 2267 0 l 1218 0 l 1218 60 q 1381 99 1350 60 q 1401 138 1397 119 q 1406 193 1406 157 l 1406 381 q 1347 442 1406 442 l 1019 442 q 961 381 961 442 l 961 189 q 965 135 961 153 q 986 97 969 117 q 1149 60 1017 60 l 1149 0 l 101 0 l 101 60 l 268 60 q 377 95 336 60 q 418 210 418 131 l 418 690 q 374 798 418 753 q 268 843 331 843 l 101 843 l 101 903 l 1149 903 l 1149 843 q 1001 808 1042 843 q 961 706 961 772 l 961 515 l 1406 515 l 1406 706 q 1365 808 1406 772 q 1218 843 1325 843 l 1218 903 l 2267 903 l 2267 843 l 2099 843 q 1992 797 2038 843 q 1947 690 1947 751 m 603 60 l 603 843 l 513 843 l 513 60 l 603 60 m 1592 60 l 1592 843 l 1501 843 l 1501 60 l 1592 60 z "},"I":{"ha":1393,"x_min":101,"x_max":1283,"o":"m 964 690 l 964 210 q 1006 96 964 132 q 1115 60 1047 60 l 1283 60 l 1283 0 l 101 0 l 101 60 l 271 60 q 381 96 339 60 q 422 210 422 132 l 422 690 q 378 798 422 753 q 271 843 333 843 l 101 843 l 101 903 l 1283 903 l 1283 843 l 1115 843 q 1008 798 1053 843 q 964 690 964 753 m 606 60 l 606 843 l 515 843 l 515 60 l 606 60 z "},"J":{"ha":1511,"x_min":-19,"x_max":1493,"o":"m 844 289 l 844 843 l 756 843 l 756 89 q 844 289 844 125 m 343 903 l 1493 903 l 1493 843 l 1356 843 q 1244 799 1285 843 q 1204 690 1204 754 l 1204 272 q 1176 145 1204 199 q 1081 50 1147 92 q 628 -31 949 -31 q 49 71 308 -31 l 49 0 l -19 0 l -19 364 l 49 364 q 114 257 65 324 q 212 146 163 190 q 342 65 261 101 q 500 29 422 29 q 663 179 663 29 l 663 690 q 622 799 663 754 q 511 843 581 843 l 343 843 l 343 903 z "},"K":{"ha":2299,"x_min":101,"x_max":2268,"o":"m 1213 0 l 101 0 l 101 60 l 268 60 q 377 96 336 60 q 418 210 418 132 l 418 692 q 374 799 418 754 q 268 843 331 843 l 101 843 l 101 903 l 1271 903 l 1271 843 l 1117 843 q 1003 806 1044 843 q 961 707 961 768 l 961 560 q 1042 479 961 479 l 1069 479 q 1200 515 1121 479 l 1474 639 q 1601 712 1563 679 q 1640 781 1640 744 q 1598 831 1640 818 q 1446 843 1556 843 l 1446 903 l 2268 903 l 2268 843 l 2119 843 q 1961 799 2068 843 q 1689 664 1832 744 q 1647 608 1647 639 q 1668 551 1647 576 l 2082 60 l 2268 60 l 2268 0 l 1496 0 l 1129 411 l 1019 411 q 961 350 961 411 l 961 210 q 1003 96 961 132 q 1113 60 1044 60 l 1213 60 l 1213 0 m 603 60 l 603 843 l 513 843 l 513 60 l 603 60 m 1685 60 l 1336 450 l 1215 450 l 1564 60 l 1685 60 z "},"L":{"ha":1735,"x_min":101,"x_max":1717,"o":"m 961 690 l 961 210 q 1113 60 961 60 q 1367 124 1229 60 q 1519 229 1440 158 q 1669 400 1599 300 l 1717 400 l 1717 0 l 101 0 l 101 60 l 268 60 q 377 95 336 60 q 418 210 418 131 l 418 690 q 374 798 418 753 q 268 843 331 843 l 101 843 l 101 903 l 1344 903 l 1344 843 l 1113 843 q 1006 798 1050 843 q 961 690 961 753 m 603 60 l 603 843 l 513 843 l 513 60 l 603 60 z "},"M":{"ha":2581,"x_min":31,"x_max":2535,"o":"m 1703 843 l 1703 60 l 1793 60 l 1793 843 l 1703 843 m 2535 843 l 2303 843 q 2193 816 2235 843 q 2151 731 2151 789 l 2151 210 q 2193 96 2151 132 q 2303 60 2235 60 l 2535 60 l 2535 0 l 1292 0 l 1292 60 l 1458 60 q 1568 96 1526 60 q 1610 210 1610 132 l 1610 776 l 1185 118 l 1113 118 l 576 571 l 576 385 q 618 234 576 300 q 726 132 660 168 q 1014 60 860 60 l 1014 0 l 49 0 l 49 60 q 336 132 203 60 q 444 234 403 168 q 486 385 486 300 l 486 531 q 419 695 486 622 q 250 806 353 768 q 31 843 147 843 l 31 903 l 929 903 l 1356 540 l 1589 903 l 2535 903 l 2535 843 m 1161 235 l 1161 322 l 550 840 l 411 840 l 1126 235 l 1161 235 z "},"N":{"ha":2144,"x_min":32,"x_max":2124,"o":"m 1401 903 l 2124 903 l 2124 843 q 1807 569 1807 843 l 1807 -58 l 1682 -58 l 715 526 q 646 546 681 546 q 576 449 576 546 l 576 385 q 618 233 576 299 q 728 132 660 168 q 1014 60 861 60 l 1014 0 l 49 0 l 49 60 q 336 132 200 60 q 444 233 403 168 q 486 385 486 299 l 486 531 q 419 695 486 622 q 250 806 353 768 q 32 843 147 843 l 32 903 l 1072 903 l 1556 599 q 1686 532 1661 532 q 1718 569 1718 532 q 1401 843 1718 843 l 1401 903 m 494 843 l 494 767 l 1682 49 l 1682 149 l 532 843 l 494 843 z "},"O":{"ha":1868,"x_min":31,"x_max":1836,"o":"m 1836 451 q 1715 210 1836 321 q 1387 34 1594 99 q 933 -31 1179 -31 q 480 34 688 -31 q 151 210 272 99 q 31 451 31 321 q 279 793 31 656 q 933 931 528 931 q 1588 793 1339 931 q 1836 451 1836 656 m 1221 457 q 1221 564 1221 457 q 1159 772 1221 671 q 934 874 1097 874 q 708 772 771 874 q 646 456 646 669 q 721 135 646 243 q 933 26 796 26 q 1146 135 1071 26 q 1221 457 1221 243 m 296 224 q 251 276 296 224 q 207 451 207 328 q 298 679 207 575 q 540 843 389 783 l 539 849 q 224 684 342 790 q 106 451 106 578 q 222 220 106 325 q 533 56 338 115 l 535 61 q 296 224 385 121 m 1390 241 q 1414 292 1390 241 q 1438 451 1438 343 q 1390 662 1438 560 q 1263 838 1343 764 l 1254 835 q 1333 451 1333 639 q 1254 68 1333 264 l 1263 65 q 1390 241 1343 139 z "},"P":{"ha":2010,"x_min":101,"x_max":1992,"o":"m 101 903 l 1503 903 q 1992 651 1992 903 q 1558 394 1992 394 l 1040 394 q 983 372 1001 394 q 964 300 964 350 l 964 210 q 1005 96 964 132 q 1114 60 1046 60 l 1283 60 l 1283 0 l 101 0 l 101 60 l 269 60 q 379 96 338 60 q 421 210 421 132 l 421 690 q 376 798 421 753 q 269 843 332 843 l 101 843 l 101 903 m 606 60 l 606 843 l 514 843 l 514 60 l 606 60 m 1035 457 l 1175 457 q 1361 538 1286 457 q 1403 650 1403 583 q 1361 763 1403 717 q 1175 843 1286 843 l 1035 843 q 985 822 1006 843 q 965 772 965 801 l 965 526 q 985 478 965 499 q 1035 457 1006 457 m 1567 537 q 1587 564 1567 537 q 1607 650 1607 592 q 1567 763 1607 708 q 1474 838 1528 818 l 1467 833 q 1511 650 1511 765 q 1467 467 1511 535 l 1474 463 q 1567 537 1528 482 z "},"Q":{"ha":1868,"x_min":31,"x_max":1836,"o":"m 1836 451 q 1731 226 1836 331 q 1445 54 1626 121 q 1043 -26 1264 -12 q 1001 -147 1001 -81 q 1015 -206 1001 -183 q 1054 -228 1029 -228 l 1272 -228 l 1272 -287 l 593 -287 l 593 -228 q 886 -35 643 -122 l 886 -29 q 455 43 651 -22 q 144 217 258 108 q 31 451 31 325 q 279 794 31 657 q 933 932 528 932 q 1588 794 1339 932 q 1836 451 1836 657 m 934 874 q 852 874 934 874 q 708 772 771 874 q 646 458 646 671 q 721 136 646 244 q 933 28 796 28 q 1146 136 1071 28 q 1221 458 1221 244 q 1159 772 1221 671 q 934 874 1097 874 m 690 -228 l 775 -228 q 913 -58 775 -175 l 910 -54 q 769 -134 849 -76 q 690 -228 690 -192 m 296 224 q 251 276 296 224 q 207 451 207 328 q 298 679 207 575 q 540 843 389 783 l 539 849 q 224 684 342 790 q 106 451 106 578 q 222 220 106 325 q 533 56 338 115 l 535 61 q 296 224 385 121 m 1390 241 q 1414 292 1390 241 q 1438 451 1438 343 q 1390 662 1438 560 q 1263 838 1343 764 l 1254 835 q 1333 451 1333 639 q 1254 68 1333 264 l 1263 65 q 1390 241 1343 139 z "},"R":{"ha":2201,"x_min":101,"x_max":2182,"o":"m 2182 60 l 2182 0 l 1358 0 l 1081 356 q 1007 414 1036 414 q 971 393 978 414 q 964 315 964 372 l 964 211 q 1005 96 964 132 q 1114 60 1046 60 l 1218 60 l 1218 0 l 101 0 l 101 60 l 269 60 q 380 96 339 60 q 421 211 421 132 l 421 690 q 376 798 421 753 q 269 843 332 843 l 101 843 l 101 903 l 1593 903 q 1969 838 1851 903 q 2050 764 2018 811 q 2082 654 2082 717 q 2049 548 2082 592 q 1966 479 2015 504 q 1842 439 1917 454 q 1556 411 1718 414 l 1556 404 q 1665 344 1590 375 q 1832 299 1739 313 l 2018 60 l 2182 60 m 965 772 l 965 574 q 1033 511 965 538 q 1194 485 1101 485 q 1356 525 1288 485 q 1425 641 1425 565 q 1383 763 1425 717 q 1197 843 1308 843 l 1035 843 q 985 822 1006 843 q 965 772 965 801 m 606 60 l 606 843 l 514 843 l 514 60 l 606 60 m 1422 60 l 1538 60 l 1263 414 l 1147 414 l 1422 60 m 1518 467 q 1613 533 1576 482 q 1650 651 1650 585 q 1613 767 1650 717 q 1517 835 1575 818 l 1513 831 q 1554 651 1554 769 q 1514 471 1554 533 l 1518 467 z "},"S":{"ha":1751,"x_min":131,"x_max":1619,"o":"m 133 621 q 157 733 133 683 q 215 815 181 783 q 309 870 250 847 q 418 905 368 893 q 544 922 468 917 q 790 931 657 931 q 1128 903 924 931 q 1479 843 1332 876 l 1504 903 l 1569 903 l 1569 610 l 1504 610 q 1201 779 1451 685 q 774 874 950 874 q 599 799 599 874 q 801 690 599 728 q 1000 657 892 674 q 1217 613 1108 640 q 1417 549 1326 586 q 1563 444 1507 511 q 1619 286 1619 376 q 1438 46 1619 121 q 894 -29 1256 -29 q 567 -3 713 -29 q 235 81 422 24 l 196 0 l 131 0 l 131 390 l 196 390 q 290 277 218 339 q 464 159 363 215 q 699 65 565 103 q 960 28 832 28 q 1192 97 1192 28 q 1083 177 1192 140 q 818 248 974 214 q 507 325 663 282 q 242 444 351 368 q 133 621 133 519 m 1357 128 q 1296 254 1357 208 q 1158 322 1232 301 q 1039 352 1083 342 q 922 378 994 363 q 769 412 849 393 q 607 456 689 431 q 442 522 525 482 q 246 735 271 603 l 236 736 q 218 639 218 696 q 333 474 218 543 q 860 300 469 390 q 994 268 946 279 q 1099 242 1043 257 q 1188 215 1156 228 q 1254 185 1221 203 q 1351 94 1313 153 l 1357 96 l 1357 128 z "},"T":{"ha":1533,"x_min":92,"x_max":1465,"o":"m 1090 842 q 1038 774 1038 842 l 1038 211 q 1079 96 1038 132 q 1189 60 1121 60 l 1357 60 l 1357 0 l 176 0 l 176 60 l 344 60 q 453 96 413 60 q 494 211 494 132 l 494 774 q 443 842 494 842 q 377 807 419 842 q 292 724 335 772 q 144 542 206 626 l 119 507 l 92 507 l 92 903 l 1465 903 l 1465 507 l 1413 507 q 1335 610 1390 539 q 1240 725 1279 681 q 1157 806 1200 769 q 1090 842 1114 842 m 679 60 l 679 843 l 589 843 l 589 60 l 679 60 z "},"U":{"ha":1690,"x_min":56,"x_max":1683,"o":"m 1051 903 l 1683 903 l 1683 843 q 1581 833 1624 843 q 1494 797 1538 824 q 1406 571 1406 743 l 1406 306 q 1361 100 1406 157 q 1217 6 1308 33 q 913 -31 1093 -31 q 608 -12 733 -31 q 417 33 483 7 q 314 101 351 60 q 267 173 276 142 q 258 246 258 204 l 258 693 q 217 808 258 772 q 108 843 176 843 l 56 843 l 56 903 l 974 903 l 974 843 l 951 843 q 842 808 883 843 q 801 693 801 772 l 801 232 q 838 88 801 132 q 972 43 875 43 q 1140 58 1068 43 q 1249 103 1213 74 q 1301 165 1286 132 q 1315 242 1315 197 l 1315 571 q 1295 691 1315 639 q 1247 771 1275 743 q 1181 817 1219 799 q 1051 843 1119 843 l 1051 903 m 353 843 l 353 292 q 410 133 353 169 q 443 122 428 122 l 443 843 l 353 843 z "},"V":{"ha":1749,"x_min":-19,"x_max":1768,"o":"m 1768 903 l 1768 843 l 1697 843 l 908 -32 l 858 -32 l 74 843 l -19 843 l -19 903 l 958 903 l 958 843 l 919 843 q 855 814 878 843 q 832 740 832 785 q 881 625 832 674 l 1140 361 l 1321 558 q 1363 666 1363 601 q 1293 787 1363 731 q 1118 843 1224 843 l 1049 843 l 1049 903 l 1768 903 m 307 843 l 196 843 l 904 53 l 960 115 l 307 843 z "},"W":{"ha":2817,"x_min":-19,"x_max":2835,"o":"m 2026 843 l 1989 843 q 1924 814 1947 843 q 1901 740 1901 785 q 1950 625 1901 674 l 2207 361 l 2389 558 q 2431 667 2431 601 q 2361 788 2431 732 q 2185 843 2292 843 l 2117 843 l 2117 903 l 2835 903 l 2835 843 l 2767 843 l 1976 -32 l 1926 -32 l 1418 532 l 908 -32 l 858 -32 l 74 843 l -19 843 l -19 903 l 958 903 l 958 843 l 919 843 q 855 814 878 843 q 832 740 832 785 q 881 625 832 674 l 1140 361 l 1358 601 l 1142 843 l 1049 843 l 1049 903 l 2026 903 l 2026 843 m 1375 843 l 1264 843 l 1972 53 l 2028 115 l 1375 843 m 307 843 l 196 843 l 904 53 l 960 115 l 307 843 z "},"X":{"ha":1907,"x_min":18,"x_max":1889,"o":"m 1781 60 l 1889 60 l 1889 0 l 881 0 l 881 60 l 936 60 q 1010 100 1010 60 q 940 210 1010 136 l 801 353 l 706 290 q 585 142 585 211 q 608 82 585 104 q 668 60 632 60 l 800 60 l 800 0 l 18 0 l 18 60 l 65 60 q 365 168 196 60 l 743 411 l 472 690 q 324 798 411 753 q 174 843 236 843 l 89 843 l 89 903 l 1043 903 l 1043 843 l 1018 843 q 954 794 954 843 q 1014 690 954 750 l 1118 583 l 1157 610 q 1278 758 1278 692 q 1253 819 1278 796 q 1194 843 1229 843 l 1168 843 l 1168 901 l 1843 901 l 1843 843 l 1797 843 q 1499 729 1676 843 l 1179 522 l 1482 210 q 1781 60 1628 60 m 1201 60 l 1308 60 l 542 843 l 435 843 l 1201 60 z "},"Y":{"ha":1818,"x_min":-19,"x_max":1838,"o":"m 1111 903 l 1838 903 l 1838 843 l 1746 843 l 1136 404 l 1136 210 q 1178 96 1136 132 q 1288 60 1219 60 l 1456 60 l 1456 0 l 274 0 l 274 60 l 443 60 q 552 96 511 60 q 593 210 593 132 l 593 375 l 121 843 l -19 843 l -19 903 l 1021 903 l 1021 843 l 982 843 q 933 825 951 843 q 915 779 915 807 q 957 692 915 732 l 1136 514 l 1218 581 q 1318 742 1318 661 q 1282 815 1318 786 q 1181 843 1246 843 l 1111 843 l 1111 903 m 688 60 l 778 60 l 778 425 l 354 843 l 244 843 l 688 406 l 688 60 z "},"Z":{"ha":1629,"x_min":75,"x_max":1554,"o":"m 1554 843 l 1525 843 l 761 60 l 925 60 q 1310 151 1169 60 q 1415 230 1378 196 q 1493 314 1451 264 l 1533 314 l 1533 0 l 75 0 l 75 60 l 107 60 l 869 843 l 790 843 q 608 824 694 843 q 463 781 521 806 q 347 717 406 757 q 260 651 288 676 q 196 589 233 626 l 156 589 l 156 903 l 1554 903 l 1554 843 m 1104 843 l 992 843 l 229 60 l 347 60 l 1104 843 z "},"[":{"ha":979,"x_min":208,"x_max":1007,"o":"m 688 781 l 688 78 q 729 -36 688 0 q 839 -72 771 -72 l 1007 -72 l 1007 -132 l 208 -132 l 208 993 l 1007 993 l 1007 931 l 839 931 q 732 886 776 931 q 688 781 688 842 m 392 -72 l 392 931 l 301 931 l 301 -72 l 392 -72 z "},"\\":{"ha":808,"x_min":69,"x_max":739,"o":"m 739 -72 l 625 -72 l 69 931 l 183 931 l 739 -72 z "},"]":{"ha":993,"x_min":-14,"x_max":785,"o":"m 306 78 l 306 781 q 261 886 306 842 q 154 931 217 931 l -14 931 l -14 993 l 785 993 l 785 -132 l -14 -132 l -14 -72 l 154 -72 q 264 -36 222 -72 q 306 78 306 0 m 399 931 l 399 -72 l 489 -72 l 489 931 l 399 931 z "},"^":{"ha":1028,"x_min":199,"x_max":829,"o":"m 290 263 l 199 310 l 479 826 l 549 826 l 829 310 l 738 263 l 514 682 l 290 263 z "},"_":{"ha":1403,"x_min":139,"x_max":1264,"o":"m 1264 -28 l 1264 -139 l 139 -139 l 139 -28 l 1264 -28 z "},"`":{"ha":903,"x_min":69,"x_max":833,"o":"m 833 917 l 833 867 l 758 867 q 275 892 383 867 q 128 972 176 914 q 74 1056 82 1025 l 69 1069 l 474 1069 q 606 953 531 989 q 833 917 682 917 m 400 921 l 400 926 q 319 967 361 939 q 260 1031 276 996 l 171 1031 q 400 921 240 929 z "},"a":{"ha":1650,"x_min":-19,"x_max":1668,"o":"m 1668 60 l 1668 0 l 774 0 l 774 60 l 865 60 q 913 72 894 60 q 931 110 931 83 q 899 176 931 136 l 856 231 l 336 231 q 304 138 304 176 q 328 80 304 100 q 389 60 351 60 l 503 60 l 503 0 l -19 0 l -19 60 q 102 83 47 60 q 178 131 157 107 l 200 154 l 553 606 l 514 654 q 483 689 494 678 q 371 715 451 715 l 274 715 l 274 775 l 956 775 l 1531 60 l 1668 60 m 588 715 l 1117 60 l 1200 60 l 672 715 l 588 715 m 592 560 l 381 288 l 810 288 l 592 560 z "},"b":{"ha":1744,"x_min":101,"x_max":1701,"o":"m 1613 360 q 1676 299 1651 338 q 1701 206 1701 260 q 1665 107 1701 151 q 1569 42 1628 63 q 1335 0 1457 0 l 101 0 l 101 60 l 247 60 q 371 182 371 60 l 371 590 q 334 678 371 640 q 247 715 297 715 l 101 715 l 101 775 l 1217 775 q 1511 747 1438 775 q 1617 667 1594 717 q 1631 590 1631 636 q 1601 502 1631 543 q 1541 444 1571 461 q 1479 417 1511 426 l 1479 411 q 1613 360 1543 400 m 840 603 l 840 435 l 1021 435 q 1126 471 1081 435 q 1172 575 1172 507 q 1121 679 1172 643 q 991 715 1069 715 q 876 685 913 715 q 840 603 840 654 m 528 60 l 528 715 l 458 715 l 458 60 l 528 60 m 935 60 l 1043 60 q 1166 98 1114 60 q 1218 219 1218 136 q 1166 342 1218 301 q 1031 382 1114 382 l 840 382 l 840 176 q 935 60 840 60 m 1319 489 q 1336 508 1319 489 q 1353 568 1353 528 q 1319 647 1353 608 q 1236 704 1286 685 l 1231 700 q 1276 568 1276 635 q 1231 436 1276 501 l 1236 431 q 1319 489 1286 450 m 1363 124 q 1381 147 1363 124 q 1399 221 1399 169 q 1363 318 1399 272 q 1267 386 1326 364 l 1263 381 q 1324 221 1324 313 q 1263 61 1324 129 l 1267 56 q 1363 124 1326 78 z "},"c":{"ha":1310,"x_min":31,"x_max":1292,"o":"m 793 -31 q 260 67 472 -31 q 92 199 153 117 q 31 390 31 282 q 96 581 31 497 q 268 711 161 664 q 751 806 482 806 q 1172 721 932 806 l 1172 776 l 1238 776 l 1238 488 l 1175 488 q 992 658 1115 571 q 746 746 868 746 q 571 576 571 746 l 571 250 q 622 78 571 131 q 784 26 672 26 q 984 49 896 26 q 1122 99 1072 72 q 1210 148 1171 125 q 1260 171 1249 171 q 1292 143 1292 171 q 1167 44 1292 108 q 793 -31 1014 -31 m 401 64 q 244 202 304 119 q 183 388 183 285 q 244 574 183 492 q 401 713 304 657 l 399 718 q 190 579 272 667 q 107 388 107 492 q 190 197 107 283 q 399 58 272 110 l 401 64 z "},"d":{"ha":1761,"x_min":97,"x_max":1731,"o":"m 97 775 l 1003 775 q 1501 692 1296 775 q 1669 576 1607 650 q 1731 404 1731 501 q 1686 233 1731 307 q 1576 117 1642 160 q 1422 47 1510 74 q 1110 0 1274 0 l 97 0 l 97 60 l 243 60 q 368 183 368 60 l 368 592 q 331 678 368 642 q 243 715 294 715 l 97 715 l 97 775 m 524 58 l 524 715 l 456 715 l 456 58 l 524 58 m 931 60 l 1038 60 q 1150 108 1106 60 q 1231 386 1231 194 q 971 715 1231 715 q 872 685 908 715 q 835 604 835 654 l 835 175 q 931 60 835 60 m 1383 202 q 1407 245 1383 202 q 1431 386 1431 288 q 1383 570 1431 485 q 1250 704 1336 656 l 1244 700 q 1343 386 1343 571 q 1244 72 1343 201 l 1250 68 q 1383 202 1336 117 z "},"e":{"ha":1644,"x_min":101,"x_max":1533,"o":"m 968 715 q 874 685 908 715 q 840 604 840 654 l 840 549 q 939 447 840 447 q 1106 492 1018 447 q 1222 597 1194 538 l 1274 597 l 1274 231 l 1222 231 q 1108 331 1194 293 q 939 369 1022 369 q 840 268 840 369 l 840 175 q 935 60 840 60 l 1042 60 q 1493 258 1347 60 l 1533 258 l 1533 0 l 101 0 l 101 60 l 247 60 q 371 182 371 60 l 371 592 q 335 678 371 642 q 247 715 299 715 l 101 715 l 101 775 l 1533 775 l 1533 497 l 1493 497 q 1297 652 1426 589 q 968 715 1167 715 m 457 60 l 528 60 l 528 715 l 457 715 l 457 60 z "},"f":{"ha":1486,"x_min":101,"x_max":1449,"o":"m 935 60 l 1097 60 l 1097 0 l 101 0 l 101 60 l 247 60 q 371 183 371 60 l 371 590 q 335 678 371 642 q 247 715 299 715 l 101 715 l 101 775 l 1449 775 l 1449 546 l 1411 546 q 1353 606 1381 582 q 1275 658 1326 631 q 968 715 1172 715 q 874 684 908 715 q 840 604 840 653 l 840 547 q 939 446 840 446 q 1065 476 1010 446 q 1153 554 1121 507 l 1203 554 l 1203 251 l 1151 251 q 1072 343 1124 317 q 939 369 1019 369 q 840 268 840 369 l 840 176 q 861 85 840 111 q 935 60 882 60 m 458 60 l 528 60 l 528 715 l 458 715 l 458 60 z "},"g":{"ha":1624,"x_min":31,"x_max":1668,"o":"m 717 464 l 1668 464 l 1668 406 l 1443 406 l 1443 -6 l 1381 -6 q 1360 49 1381 28 q 1303 69 1339 69 q 1199 44 1268 69 q 781 -31 990 -31 q 404 12 571 -31 q 134 153 238 54 q 31 401 31 253 q 88 601 31 519 q 250 726 144 683 q 735 806 442 806 q 1278 732 1028 806 l 1278 782 l 1343 782 l 1343 526 l 1281 526 q 1092 674 1231 599 q 831 750 954 750 q 571 578 571 750 l 571 243 q 683 44 571 88 q 779 28 729 28 q 858 35 829 28 q 918 60 888 42 q 967 115 949 78 q 986 206 986 153 l 986 290 q 946 372 986 338 q 856 406 906 406 l 717 406 l 717 464 m 1143 253 l 1143 404 l 1072 404 l 1072 175 q 1088 86 1072 86 q 1125 136 1107 86 q 1143 253 1143 186 m 340 94 q 231 226 269 144 q 193 399 193 307 q 231 573 193 492 q 340 704 269 654 l 336 711 q 174 588 235 665 q 113 399 113 510 q 174 211 113 289 q 336 88 235 133 l 340 94 z "},"h":{"ha":2058,"x_min":101,"x_max":1949,"o":"m 1678 592 l 1678 182 q 1803 60 1678 60 l 1949 60 l 1949 0 l 1051 0 l 1051 60 q 1190 94 1165 60 q 1207 128 1204 113 q 1210 176 1210 144 l 1210 333 q 1164 381 1210 381 l 886 381 q 840 333 840 381 l 840 176 q 843 128 840 143 q 860 94 846 113 q 999 60 885 60 l 999 0 l 101 0 l 101 60 l 247 60 q 371 183 371 60 l 371 592 q 335 678 371 642 q 247 715 299 715 l 101 715 l 101 775 l 999 775 l 999 715 q 874 687 908 715 q 840 604 840 658 l 840 440 l 1210 440 l 1210 604 q 1176 687 1210 658 q 1051 715 1142 715 l 1051 775 l 1949 775 l 1949 715 l 1803 715 q 1715 678 1751 715 q 1678 592 1678 642 m 528 715 l 458 715 l 458 60 l 528 60 l 528 715 m 1368 715 l 1299 715 l 1299 60 l 1368 60 l 1368 715 z "},"i":{"ha":1224,"x_min":101,"x_max":1114,"o":"m 842 590 l 842 182 q 967 60 842 60 l 1114 60 l 1114 0 l 101 0 l 101 60 l 249 60 q 374 182 374 60 l 374 590 q 337 678 374 640 q 249 715 300 715 l 101 715 l 101 775 l 1114 775 l 1114 715 l 967 715 q 878 678 915 715 q 842 590 842 640 m 531 60 l 531 715 l 460 715 l 460 60 l 531 60 z "},"j":{"ha":1292,"x_min":-19,"x_max":1272,"o":"m 715 244 l 715 715 l 646 715 l 646 79 q 692 133 669 88 q 715 244 715 179 m 289 775 l 1272 775 l 1272 715 l 1153 715 q 1065 678 1101 715 q 1028 590 1028 640 l 1028 231 q 1003 121 1028 167 q 922 40 979 75 q 513 -29 808 -29 q 244 0 374 -29 q 46 63 115 29 l 46 0 l -19 0 l -19 313 l 44 313 q 60 282 44 313 q 106 214 69 263 q 183 128 142 165 q 292 60 224 90 q 435 29 361 29 q 560 153 560 29 l 560 590 q 523 678 560 640 q 435 715 486 715 l 289 715 l 289 775 z "},"k":{"ha":1981,"x_min":101,"x_max":1950,"o":"m 528 60 l 528 715 l 458 715 l 458 60 l 528 60 m 1425 60 l 1154 382 l 1058 382 l 1331 60 l 1425 60 m 1054 0 l 101 0 l 101 60 l 247 60 q 371 182 371 60 l 371 592 q 335 678 371 642 q 247 715 299 715 l 101 715 l 101 775 l 1104 775 l 1104 715 l 968 715 q 875 685 910 715 q 840 604 840 654 l 840 481 q 904 415 840 415 l 929 415 q 1034 442 969 415 q 1128 483 1099 469 q 1269 550 1182 507 q 1408 668 1408 617 q 1374 706 1408 697 q 1244 715 1339 715 l 1244 775 l 1950 775 l 1950 715 l 1821 715 q 1689 679 1778 715 q 1456 564 1561 626 q 1422 519 1422 543 q 1439 475 1422 496 l 1790 60 l 1950 60 l 1950 0 l 1290 0 l 978 350 l 886 350 q 840 301 840 350 l 840 182 q 965 60 840 60 l 1054 60 l 1054 0 z "},"l":{"ha":1500,"x_min":101,"x_max":1481,"o":"m 840 590 l 840 182 q 965 58 840 58 q 1181 111 1067 58 q 1438 347 1321 178 l 1481 347 l 1481 0 l 101 0 l 101 60 l 247 60 q 371 182 371 60 l 371 590 q 334 678 371 640 q 247 715 297 715 l 101 715 l 101 775 l 1167 775 l 1167 715 l 965 715 q 877 678 914 715 q 840 590 840 640 m 458 60 l 528 60 l 528 715 l 458 715 l 458 60 z "},"m":{"ha":2211,"x_min":31,"x_max":2167,"o":"m 1458 715 l 1458 60 l 1528 60 l 1528 715 l 1458 715 m 1158 468 q 1356 775 1310 701 l 2167 775 l 2167 715 l 1965 715 q 1840 625 1840 715 l 1840 182 q 1965 60 1840 60 l 2167 60 l 2167 0 l 1103 0 l 1103 60 l 1247 60 q 1372 182 1372 60 l 1372 651 l 1018 100 l 953 100 l 501 481 l 501 331 q 537 205 501 260 q 629 119 572 150 q 874 60 740 60 l 874 0 l 46 0 l 46 60 q 290 119 179 60 q 383 205 347 150 q 418 331 418 260 l 418 456 q 301 642 418 569 q 31 715 183 715 l 31 775 l 799 775 l 1158 468 m 992 207 l 992 276 q 474 715 531 667 l 368 715 q 967 207 461 636 l 992 207 z "},"n":{"ha":1839,"x_min":32,"x_max":1818,"o":"m 1196 715 l 1196 775 l 1818 775 l 1818 715 q 1549 489 1549 715 l 1549 -50 l 1436 -50 l 614 447 q 557 464 581 464 q 503 385 503 464 l 503 332 q 538 205 503 260 q 631 119 574 150 q 874 60 742 60 l 874 0 l 46 0 l 46 60 q 290 119 179 60 q 383 205 347 150 q 418 332 418 260 l 418 454 q 301 642 418 569 q 32 715 185 715 l 32 775 l 922 775 l 1332 517 l 1349 507 q 1383 486 1365 497 q 1443 460 1428 460 q 1465 489 1465 460 q 1196 715 1465 715 m 461 715 l 461 657 l 1435 53 l 1435 128 l 486 715 l 461 715 z "},"o":{"ha":1589,"x_min":31,"x_max":1557,"o":"m 1557 389 q 1455 178 1557 275 q 1178 26 1353 82 q 795 -31 1003 -31 q 412 26 588 -31 q 133 178 236 82 q 31 389 31 275 q 242 685 31 565 q 794 806 453 806 q 1347 685 1136 806 q 1557 389 1557 565 m 989 658 q 962 701 989 658 q 794 744 935 744 q 600 658 654 744 q 546 392 546 572 q 610 120 546 211 q 794 29 675 29 q 978 120 914 29 q 1043 392 1043 211 q 989 658 1043 572 m 536 40 q 278 174 376 82 q 181 388 181 267 q 278 601 181 510 q 538 736 376 693 l 535 744 q 209 608 332 703 q 86 388 86 514 q 209 168 86 263 q 533 31 332 74 l 536 40 m 1065 722 q 1131 389 1131 558 q 1064 53 1131 219 l 1069 49 q 1226 388 1226 183 q 1071 726 1226 593 l 1065 722 z "},"p":{"ha":1735,"x_min":101,"x_max":1717,"o":"m 101 775 l 1296 775 q 1717 557 1717 775 q 1343 336 1717 336 l 904 336 q 843 258 843 336 l 843 182 q 967 60 843 60 l 1114 60 l 1114 0 l 101 0 l 101 60 l 249 60 q 374 182 374 60 l 374 590 q 337 678 374 640 q 249 715 300 715 l 101 715 l 101 775 m 460 60 l 531 60 l 531 715 l 460 715 l 460 60 m 899 396 l 1018 396 q 1172 463 1111 396 q 1207 556 1207 501 q 1144 676 1207 636 q 1018 715 1081 715 l 899 715 q 859 699 875 715 q 843 658 843 682 l 843 451 q 859 412 843 428 q 899 396 875 396 m 1353 465 q 1367 487 1353 465 q 1382 556 1382 508 q 1353 646 1382 603 q 1282 707 1324 689 l 1276 703 q 1307 556 1307 649 q 1276 408 1307 463 l 1282 404 q 1353 465 1324 422 z "},"q":{"ha":1604,"x_min":31,"x_max":1572,"o":"m 31 386 q 243 683 31 564 q 802 803 456 803 q 1360 683 1149 803 q 1572 386 1572 564 q 1376 113 1572 231 q 896 -26 1181 -4 q 863 -114 863 -75 q 904 -190 863 -190 l 1093 -190 l 1093 -249 l 508 -249 l 508 -193 q 735 -32 549 -108 l 733 -28 q 233 106 436 -12 q 31 386 31 225 m 802 746 q 734 746 802 746 q 613 660 665 746 q 561 392 561 574 q 624 119 561 211 q 803 28 688 28 q 981 119 918 28 q 1043 392 1043 211 q 991 660 1043 574 q 802 746 939 746 m 774 -57 l 771 -53 q 658 -122 715 -79 q 599 -190 601 -164 l 664 -190 q 774 -57 672 -153 m 551 49 q 294 178 392 89 q 196 387 196 268 q 294 595 196 506 q 553 725 392 685 l 550 733 q 224 601 347 693 q 101 388 101 510 q 224 173 101 265 q 549 39 347 81 l 551 49 m 1081 711 q 1146 388 1146 551 q 1079 61 1146 224 l 1085 57 q 1242 387 1242 189 q 1086 715 1242 585 l 1081 711 z "},"r":{"ha":1896,"x_min":101,"x_max":1878,"o":"m 1878 60 l 1878 0 l 1172 0 l 935 304 q 875 351 899 351 q 847 335 851 351 q 843 271 843 319 l 843 183 q 967 60 843 60 l 1057 60 l 1057 0 l 101 0 l 101 60 l 249 60 q 374 183 374 60 l 374 590 q 337 678 374 642 q 249 715 300 715 l 101 715 l 101 775 q 1374 776 1171 776 q 1793 557 1793 776 q 1753 452 1793 494 q 1642 389 1714 410 q 1343 353 1519 356 l 1343 344 q 1435 294 1372 319 q 1578 256 1499 268 l 1735 60 l 1878 60 m 460 60 l 531 60 l 531 715 l 460 715 l 460 60 m 843 658 l 843 492 q 900 441 843 463 q 1035 419 957 419 q 1169 453 1113 419 q 1226 561 1226 486 q 1163 676 1226 636 q 1038 715 1100 715 l 899 715 q 859 699 875 715 q 843 658 843 682 m 1003 351 l 1231 60 l 1318 60 q 1092 351 1168 254 l 1003 351 m 1389 465 q 1403 487 1389 465 q 1418 556 1418 508 q 1389 646 1418 603 q 1318 707 1360 689 l 1313 703 q 1343 556 1343 649 q 1313 408 1343 463 l 1318 404 q 1389 465 1360 422 z "},"s":{"ha":1535,"x_min":131,"x_max":1404,"o":"m 365 303 q 199 396 265 338 q 132 523 132 454 q 156 641 132 592 q 228 719 181 690 q 324 767 276 749 q 444 792 371 785 q 674 803 561 803 q 1278 719 958 803 q 1299 779 1279 726 l 1361 779 l 1361 514 l 1300 514 q 1008 678 1201 610 q 676 747 815 747 q 536 678 536 747 q 761 581 536 611 q 1179 489 983 549 q 1340 394 1275 458 q 1404 243 1404 331 q 840 -31 1404 -31 q 225 63 536 -31 l 193 -6 l 131 -6 l 131 333 l 193 333 q 272 238 211 290 q 419 138 333 185 q 617 58 504 90 q 839 26 731 26 q 1031 81 1031 26 q 797 185 1031 136 q 365 303 567 232 m 211 543 q 357 383 211 450 q 839 238 503 315 q 1053 178 989 203 q 1165 100 1118 153 q 1169 104 1165 103 q 1172 107 1172 106 q 1119 214 1172 176 q 1000 271 1061 254 q 903 296 939 288 q 803 317 867 304 q 703 339 740 331 q 239 614 244 444 l 229 614 q 211 543 211 582 z "},"t":{"ha":1331,"x_min":68,"x_max":1263,"o":"m 940 715 q 899 661 899 715 l 899 183 q 1024 60 899 60 l 1171 60 l 1171 0 l 160 0 l 160 60 l 307 60 q 431 183 431 60 l 431 661 q 392 715 431 715 q 291 644 360 715 q 169 501 222 572 l 118 431 l 68 431 l 88 775 l 1243 775 l 1263 431 l 1213 431 q 1190 461 1204 442 q 1138 530 1176 481 q 1066 617 1099 579 q 997 685 1033 654 q 940 715 960 715 m 586 60 l 586 715 l 518 715 l 518 60 l 586 60 z "},"u":{"ha":1454,"x_min":56,"x_max":1447,"o":"m 903 775 l 1447 775 l 1447 715 q 1286 678 1350 715 q 1211 490 1211 635 l 1211 238 q 1154 64 1211 113 q 967 -19 1082 0 q 769 -31 894 -31 q 531 -14 643 -31 q 363 26 419 3 q 274 85 306 49 q 235 147 242 121 q 229 210 229 174 l 229 593 q 106 715 229 715 l 56 715 l 56 775 l 843 775 l 843 715 l 821 715 q 697 593 697 715 l 697 196 q 728 67 697 108 q 831 25 760 25 q 1063 73 1000 25 q 1126 204 1126 121 l 1126 490 q 1103 610 1126 561 q 1040 679 1079 658 q 903 715 972 715 l 903 775 m 385 715 l 317 715 l 317 246 q 361 119 317 158 q 385 106 371 111 l 385 715 z "},"v":{"ha":1489,"x_min":-19,"x_max":1507,"o":"m 1507 775 l 1507 715 l 1444 715 l 775 -26 l 731 -26 l 63 715 l -19 715 l -19 775 l 819 775 l 819 715 l 783 715 q 738 688 757 715 q 718 616 718 660 q 753 538 718 572 l 969 318 l 1122 481 q 1156 572 1156 518 q 1098 670 1156 625 q 951 715 1040 715 l 889 715 l 889 775 l 1507 775 m 799 85 l 232 715 l 139 715 l 751 33 l 799 85 z "},"w":{"ha":2396,"x_min":-19,"x_max":2415,"o":"m 1796 775 l 2415 775 l 2415 715 l 2354 715 l 1682 -26 l 1638 -26 l 1206 451 l 775 -26 l 731 -26 l 63 715 l -19 715 l -19 775 l 819 775 l 819 715 l 782 715 q 737 688 756 715 q 718 616 718 660 q 753 538 718 572 l 969 314 l 1150 514 l 969 715 l 889 715 l 889 775 l 1728 775 l 1728 715 l 1690 715 q 1644 688 1664 715 q 1625 617 1625 661 q 1661 538 1625 574 l 1878 318 l 2029 481 q 2063 569 2063 515 q 2005 669 2063 624 q 1858 715 1947 715 l 1796 715 l 1796 775 m 753 33 l 797 85 l 232 715 l 138 715 l 753 33 m 1660 33 l 1706 85 l 1140 715 l 1044 715 l 1660 33 z "},"x":{"ha":1633,"x_min":18,"x_max":1615,"o":"m 1518 60 l 1615 60 l 1615 0 l 750 0 l 750 60 l 801 60 q 857 99 857 60 q 831 153 857 126 l 688 299 l 607 246 q 506 124 506 178 q 528 77 506 94 q 575 60 551 60 l 690 60 l 690 0 l 18 0 l 18 60 l 61 60 q 314 150 174 60 l 632 356 l 406 588 q 281 677 356 639 q 154 715 206 715 l 78 715 l 78 775 l 896 775 l 896 715 l 871 715 q 818 678 818 715 q 847 618 818 647 l 957 504 l 988 526 q 1089 649 1089 599 q 1066 697 1089 678 q 1021 715 1043 715 l 994 715 l 994 774 l 1578 774 l 1578 715 l 1533 715 q 1282 619 1428 714 l 1014 446 q 1268 185 1229 224 q 1518 60 1392 60 m 371 715 l 1010 60 l 1104 60 l 465 715 l 371 715 z "},"y":{"ha":1549,"x_min":-19,"x_max":1568,"o":"m 943 715 l 943 775 l 1568 775 l 1568 715 l 1488 715 l 971 346 l 971 182 q 1006 89 971 118 q 1096 60 1040 60 l 1243 60 l 1243 0 l 231 0 l 231 60 l 379 60 q 469 89 435 60 q 503 182 503 118 l 503 321 l 104 715 l -19 715 l -19 775 l 874 775 l 874 715 l 836 715 q 797 701 811 715 q 782 665 782 686 q 818 593 782 626 l 968 446 l 1033 500 q 1118 635 1118 571 q 1089 693 1118 671 q 1006 715 1060 715 l 943 715 m 658 60 l 658 374 l 311 715 l 219 715 l 590 349 l 590 60 l 658 60 z "},"z":{"ha":1415,"x_min":75,"x_max":1340,"o":"m 1340 715 l 1313 715 l 671 60 l 801 60 q 1111 133 993 60 q 1205 199 1171 171 q 1283 274 1239 228 l 1322 274 l 1322 0 l 75 0 l 75 60 l 106 60 l 746 715 l 688 715 q 239 554 421 715 q 183 501 215 533 l 144 501 l 144 775 l 1340 775 l 1340 715 m 219 60 l 318 60 l 956 715 l 857 715 l 219 60 z "},"{":{"ha":1118,"x_min":60,"x_max":950,"o":"m 60 390 l 60 471 q 169 495 138 471 q 200 594 200 519 q 282 799 200 696 q 410 909 332 861 q 629 990 489 957 q 950 1024 769 1024 l 950 949 q 906 941 939 949 q 848 923 872 933 q 794 891 824 913 q 742 842 764 869 q 692 683 692 774 q 678 544 692 592 q 636 476 665 497 q 577 448 607 454 q 496 442 547 442 l 496 419 q 577 413 547 419 q 636 386 607 407 q 692 193 692 344 q 718 62 692 118 q 783 -22 744 6 q 924 -85 863 -78 l 950 -87 l 950 -162 q 629 -129 769 -162 q 410 -48 489 -96 q 282 63 332 0 q 200 267 200 165 q 169 366 200 342 q 60 390 138 390 m 290 300 q 377 56 290 150 q 668 -86 464 -37 l 671 -76 q 444 62 496 -10 q 392 300 392 133 q 263 431 392 414 q 392 561 392 447 q 444 799 392 728 q 671 938 496 871 l 668 947 q 377 805 464 899 q 290 561 290 711 q 226 436 290 461 l 226 425 q 290 300 290 400 z "},"|":{"ha":507,"x_min":208,"x_max":299,"o":"m 299 993 l 299 -132 l 208 -132 l 208 993 l 299 993 z "},"}":{"ha":1118,"x_min":168,"x_max":1058,"o":"m 1058 471 l 1058 390 q 949 366 981 390 q 918 267 918 342 q 836 63 918 165 q 708 -48 786 0 q 489 -129 629 -96 q 168 -162 349 -162 l 168 -87 q 213 -80 179 -87 q 270 -62 246 -72 q 324 -30 294 -51 q 375 19 354 -8 q 426 178 426 88 q 440 317 426 269 q 482 385 453 364 q 541 413 511 407 q 622 419 571 419 l 622 442 q 541 448 571 442 q 482 475 511 454 q 426 668 426 517 q 400 799 426 743 q 336 883 374 856 q 194 946 256 939 l 168 949 l 168 1024 q 489 990 349 1024 q 708 909 629 957 q 836 799 786 861 q 918 594 918 696 q 949 495 918 519 q 1058 471 981 471 m 692 469 l 692 481 q 628 606 628 506 q 559 835 628 756 q 306 964 490 915 l 303 954 q 482 840 438 908 q 526 606 526 771 q 569 499 526 528 q 692 469 611 469 m 692 392 q 569 363 611 392 q 526 256 526 333 q 482 22 526 90 q 303 -93 438 -47 l 306 -103 q 559 26 490 -54 q 628 256 628 106 q 692 381 628 356 l 692 392 z "},"~":{"ha":1028,"x_min":139,"x_max":889,"o":"m 889 415 q 740 478 828 478 q 513 415 651 478 q 284 351 375 351 q 139 414 193 351 l 139 525 q 285 463 206 463 q 512 526 364 463 q 740 589 660 589 q 889 526 819 589 l 889 415 z "},"":{"ha":943,"x_min":150,"x_max":788,"o":"m 694 783 q 741 755 694 783 q 788 646 788 726 q 694 509 788 565 q 469 453 601 453 q 243 509 336 453 q 150 646 150 565 q 243 783 150 726 q 469 839 336 839 q 694 783 601 839 m 746 -144 q 674 -267 746 -225 q 469 -310 601 -310 q 265 -267 336 -310 q 193 -144 193 -225 q 248 38 193 -93 q 371 279 303 168 q 470 390 439 390 q 569 279 501 390 q 691 38 636 168 q 746 -144 746 -93 m 286 -162 q 322 -218 286 -194 q 414 -251 358 -242 l 419 -239 q 372 -212 392 -229 q 353 -178 353 -194 q 405 2 354 -132 q 511 247 456 136 l 469 314 q 350 54 414 217 q 286 -162 286 -108 m 383 518 q 328 646 328 571 q 383 774 328 721 l 379 781 q 288 724 322 760 q 253 646 253 688 q 288 568 253 604 q 379 511 322 532 l 383 518 z "},"":{"ha":1310,"x_min":31,"x_max":1292,"o":"m 793 38 l 736 38 l 736 -153 l 667 -153 l 667 42 q 344 100 483 54 q 118 238 206 146 q 31 458 31 331 q 85 635 31 557 q 233 761 140 714 q 667 871 418 857 l 667 1056 l 736 1056 l 736 874 l 751 874 q 1172 789 932 874 l 1172 844 l 1238 844 l 1238 556 l 1175 556 q 992 726 1115 639 q 746 814 868 814 q 571 644 571 814 l 571 318 q 622 147 571 199 q 784 94 672 94 q 984 117 896 94 q 1122 167 1072 139 q 1210 217 1171 194 q 1260 239 1249 239 q 1292 211 1292 239 q 1167 113 1292 176 q 793 38 1014 38 m 401 132 q 244 270 304 188 q 183 456 183 353 q 244 642 183 560 q 401 781 304 725 l 399 786 q 190 647 272 735 q 107 456 107 560 q 190 265 107 351 q 399 126 272 178 l 401 132 z "},"":{"ha":1540,"x_min":63,"x_max":1519,"o":"m 90 465 l 90 535 l 297 535 q 210 706 210 626 q 801 932 210 932 q 1039 910 919 932 q 1219 868 1158 889 l 1281 847 l 1281 932 l 1347 932 l 1347 629 l 1279 629 q 1037 812 1143 764 q 832 860 931 860 q 697 831 733 860 q 661 763 661 803 q 711 678 661 724 q 807 599 750 642 q 889 535 864 556 l 1192 535 l 1192 465 l 965 465 q 1072 243 1072 356 q 1038 124 1072 174 q 1271 85 1161 85 q 1365 110 1326 85 q 1419 167 1404 136 q 1449 224 1435 199 q 1476 250 1464 250 q 1508 218 1496 250 q 1519 146 1519 186 q 1479 22 1519 75 q 1342 -31 1439 -31 q 996 78 1246 -31 q 464 -31 865 -31 q 63 115 63 -31 q 167 256 63 196 q 450 315 271 315 q 538 307 494 315 q 440 400 493 354 q 367 465 388 446 l 90 465 m 450 257 q 270 219 344 257 q 196 124 196 181 q 240 65 196 86 q 362 44 283 44 q 518 83 440 44 q 596 188 596 122 q 583 239 596 207 q 450 257 507 257 m 553 42 q 691 101 638 51 q 744 218 744 150 q 705 350 744 286 q 609 468 665 414 q 497 572 553 522 q 363 745 363 693 q 399 836 363 797 l 394 843 q 303 726 303 807 q 436 531 303 657 q 544 426 490 479 q 678 226 678 299 q 638 111 678 153 q 550 50 599 69 l 553 42 z "},"":{"ha":1818,"x_min":-19,"x_max":1838,"o":"m 1607 274 l 1136 274 l 1136 210 q 1178 96 1136 132 q 1288 60 1219 60 l 1456 60 l 1456 0 l 274 0 l 274 60 l 443 60 q 552 96 511 60 q 593 210 593 132 l 593 274 l 121 274 l 121 343 l 593 343 l 593 375 l 515 451 l 121 451 l 121 521 l 446 521 l 121 843 l -19 843 l -19 903 l 1021 903 l 1021 843 l 982 843 q 933 825 951 843 q 915 779 915 807 q 957 692 915 732 l 1136 514 l 1218 581 q 1318 742 1318 661 q 1282 815 1318 786 q 1181 843 1246 843 l 1111 843 l 1111 903 l 1838 903 l 1838 843 l 1746 843 l 1297 521 l 1607 521 l 1607 451 l 1201 451 l 1136 404 l 1136 343 l 1607 343 l 1607 274 m 688 60 l 778 60 l 778 443 l 374 843 l 244 843 l 688 406 l 688 60 z "},"":{"ha":507,"x_min":208,"x_max":299,"o":"m 299 324 l 299 -132 l 208 -132 l 208 324 l 299 324 m 299 993 l 299 538 l 208 538 l 208 993 l 299 993 z "},"":{"ha":1535,"x_min":131,"x_max":1404,"o":"m 1404 553 q 1057 292 1404 339 l 1057 278 q 1310 174 1215 239 q 1404 -3 1404 108 q 840 -276 1404 -276 q 225 -183 536 -276 l 193 -251 l 131 -251 l 131 88 l 193 88 q 272 -8 211 44 q 419 -108 333 -61 q 617 -187 504 -156 q 839 -219 731 -219 q 1031 -165 1031 -219 q 797 -61 1031 -110 q 365 57 567 -14 q 199 150 265 92 q 132 281 132 208 q 508 551 132 526 l 508 565 q 233 678 335 614 q 132 836 132 742 q 228 1029 132 971 q 324 1076 276 1058 q 444 1101 371 1094 q 674 1113 561 1113 q 1278 1029 958 1113 q 1299 1089 1279 1036 l 1361 1089 l 1361 824 l 1300 824 q 1008 988 1201 919 q 676 1057 815 1057 q 536 988 536 1057 q 761 889 536 921 q 1179 797 983 858 q 1340 704 1275 768 q 1404 553 1404 640 m 211 297 q 357 137 211 204 q 839 -8 503 69 q 1053 -68 989 -43 q 1165 -146 1118 -93 q 1169 -143 1165 -144 q 1172 -124 1172 -142 q 1160 -79 1172 -106 q 1120 -33 1149 -53 q 1065 1 1092 -12 q 988 28 1038 15 q 903 50 939 42 q 803 72 867 58 q 703 93 740 85 q 239 368 244 199 l 229 368 q 211 297 211 336 m 211 853 q 357 692 211 760 q 839 547 503 625 q 1053 488 989 513 q 1165 410 1118 463 q 1169 413 1165 411 q 1172 432 1172 414 q 1160 476 1172 450 q 1120 523 1149 503 q 1065 557 1092 543 q 988 584 1038 571 q 903 606 939 597 q 803 627 867 614 q 703 649 740 640 q 239 924 244 754 l 229 924 q 211 853 211 892 m 1031 390 q 945 456 1031 429 q 786 492 860 483 q 681 501 713 501 q 536 432 536 501 q 604 369 536 393 q 839 336 700 336 q 1031 390 1031 336 z "},"":{"ha":1229,"x_min":107,"x_max":1121,"o":"m 1065 1093 q 1093 1069 1065 1093 q 1121 981 1121 1046 q 1065 869 1121 915 q 931 824 1010 824 q 796 869 851 824 q 740 981 740 915 q 796 1093 740 1046 q 931 1140 851 1140 q 1065 1093 1010 1140 m 432 1093 q 460 1069 432 1093 q 488 981 488 1046 q 432 869 488 915 q 297 824 376 824 q 163 869 218 824 q 107 981 107 915 q 163 1093 107 1046 q 297 1140 218 1140 q 432 1093 376 1140 m 258 860 q 215 981 215 907 q 258 1101 215 1054 l 254 1106 q 185 1053 211 1088 q 158 981 158 1019 q 185 908 158 942 q 254 856 211 874 l 258 860 m 892 860 q 849 981 849 907 q 892 1101 849 1054 l 888 1106 q 818 1053 844 1088 q 792 981 792 1019 q 818 908 792 942 q 888 856 844 874 l 892 860 z "},"":{"ha":1076,"x_min":63,"x_max":1014,"o":"m 202 374 q 132 428 202 374 q 63 635 63 482 q 202 895 63 788 q 539 1003 342 1003 q 875 895 736 1003 q 1014 635 1014 788 q 875 374 1014 482 q 539 267 736 267 q 202 374 342 267 m 238 860 q 174 812 238 860 q 111 635 111 764 q 238 410 111 506 q 539 314 364 314 q 840 409 714 314 q 965 635 965 504 q 840 860 965 765 q 539 956 714 956 q 238 860 364 956 m 569 447 q 377 496 453 447 q 301 642 301 544 q 378 787 301 739 q 554 835 454 835 q 704 793 618 835 l 704 821 l 724 821 l 724 688 l 704 688 q 642 772 686 733 q 551 810 599 810 q 489 729 489 810 l 489 576 q 508 496 489 521 q 572 471 526 471 q 653 488 617 471 q 710 522 690 506 q 733 539 729 539 q 743 528 743 539 q 694 479 743 511 q 569 447 644 447 z "},"":{"ha":1101,"x_min":40,"x_max":1049,"o":"m 1049 483 l 1049 428 l 503 428 l 503 483 l 568 483 q 596 501 596 483 q 579 535 596 511 l 557 563 l 265 563 q 250 517 250 532 q 261 493 250 503 q 289 483 272 483 l 367 483 l 367 428 l 40 428 l 40 483 q 113 497 81 483 q 156 522 144 510 l 372 793 l 353 817 q 278 847 331 847 l 211 847 l 211 903 l 626 903 l 963 483 l 1049 483 m 408 847 l 699 483 l 757 483 l 468 847 l 408 847 m 408 749 l 304 617 l 514 617 l 408 749 z "},"":{"ha":942,"x_min":0,"x_max":831,"o":"m 0 358 l 0 417 l 379 763 l 379 642 l 224 499 l 379 354 l 379 11 l 0 358 m 326 251 l 139 421 l 92 378 l 326 165 l 326 251 m 451 358 l 451 417 l 831 763 l 831 642 l 675 499 l 831 354 l 831 11 l 451 358 m 778 251 l 590 421 l 543 378 l 778 165 l 778 251 z "},"":{"ha":1028,"x_min":139,"x_max":889,"o":"m 139 525 l 889 525 l 889 150 l 781 150 l 781 414 l 139 414 l 139 525 z "},"":{"ha":1076,"x_min":63,"x_max":1014,"o":"m 202 374 q 132 428 202 374 q 63 635 63 482 q 202 895 63 788 q 539 1003 342 1003 q 875 895 736 1003 q 1014 635 1014 788 q 875 374 1014 482 q 539 267 736 267 q 202 374 342 267 m 238 860 q 174 812 238 860 q 111 635 111 764 q 238 410 111 506 q 539 314 364 314 q 840 409 714 314 q 965 635 965 504 q 840 860 965 765 q 539 956 714 956 q 238 860 364 956 m 857 483 l 857 460 l 610 460 l 526 601 q 504 625 514 625 q 492 586 492 625 l 492 544 q 538 483 492 483 l 568 483 l 568 460 l 233 460 l 233 483 l 283 483 q 329 544 329 483 l 329 736 q 316 779 329 761 q 283 797 303 797 l 233 797 l 233 821 l 681 821 q 828 721 828 821 q 775 642 828 663 q 669 624 733 626 l 669 618 q 747 588 693 594 l 808 483 l 857 483 m 492 768 l 492 689 q 513 665 492 675 q 561 654 533 654 q 610 670 589 654 q 631 722 631 686 q 608 777 631 757 q 563 797 585 797 l 513 797 q 492 768 492 797 z "},"":{"ha":701,"x_min":69,"x_max":632,"o":"m 69 875 l 69 1061 l 632 1061 l 632 875 l 69 875 m 229 903 l 229 1033 l 154 1033 l 154 903 l 229 903 z "},"":{"ha":621,"x_min":42,"x_max":579,"o":"m 120 705 q 81 744 120 705 q 42 894 42 783 q 120 1085 42 1006 q 310 1164 199 1164 q 500 1085 421 1164 q 579 894 579 1006 q 500 705 579 783 q 310 626 421 626 q 120 705 199 626 m 179 1026 q 152 999 179 1026 q 125 894 125 972 q 179 763 125 817 q 310 710 233 710 q 442 764 388 710 q 496 895 496 818 q 441 1026 496 972 q 310 1081 386 1081 q 179 1026 233 1081 z "},"":{"ha":1028,"x_min":139,"x_max":889,"o":"m 458 931 l 569 931 l 569 611 l 889 611 l 889 500 l 569 500 l 569 181 l 458 181 l 458 500 l 139 500 l 139 611 l 458 611 l 458 931 m 889 111 l 889 0 l 139 0 l 139 111 l 889 111 z "},"":{"ha":771,"x_min":35,"x_max":728,"o":"m 686 686 l 724 686 l 724 503 l 35 503 l 35 560 q 286 667 156 594 q 400 756 356 704 q 444 852 444 807 q 433 923 444 897 q 401 958 421 949 q 343 974 371 974 q 185 912 258 974 q 99 776 113 850 l 61 776 l 61 990 l 99 990 l 99 954 q 394 1013 225 1013 q 572 992 492 1013 q 728 865 728 951 q 672 767 728 817 q 519 678 615 718 q 143 551 343 603 l 143 543 q 686 621 464 553 l 686 686 m 458 979 q 500 853 500 940 q 426 707 500 765 l 429 701 q 542 794 507 721 q 556 864 556 824 q 528 937 556 904 q 463 983 500 969 l 458 979 z "},"":{"ha":783,"x_min":36,"x_max":744,"o":"m 690 883 q 635 816 690 846 q 490 772 581 786 q 676 724 608 760 q 744 638 744 688 q 633 531 744 575 q 355 486 522 486 q 74 536 188 486 l 74 503 l 36 503 l 36 672 l 72 672 q 177 568 94 611 q 353 525 260 525 q 444 558 410 525 q 479 640 479 590 q 446 723 479 690 q 358 756 413 756 q 271 737 304 756 q 238 682 238 718 l 200 682 l 200 857 l 238 857 q 336 792 238 792 q 418 817 388 792 q 449 882 449 842 q 421 948 449 922 q 328 974 393 974 q 197 938 264 974 q 97 831 131 901 l 61 831 l 61 983 l 99 983 l 99 956 q 374 1013 236 1013 q 601 975 511 1013 q 690 883 690 938 m 593 639 q 567 698 593 668 q 500 749 542 728 l 496 744 q 535 638 535 700 q 496 532 535 576 l 500 528 q 593 639 593 575 m 560 879 q 471 978 560 938 l 467 974 q 504 883 504 926 q 467 799 504 840 l 471 794 q 560 879 560 824 z "},"":{"ha":903,"x_min":69,"x_max":833,"o":"m 144 867 l 69 867 l 69 917 q 297 953 221 917 q 429 1069 372 989 l 833 1069 q 813 1022 829 1051 q 775 971 796 993 q 715 926 754 949 q 628 892 676 903 q 144 867 519 867 m 344 926 l 344 921 q 574 1031 504 929 l 485 1031 q 426 967 468 996 q 344 926 383 939 z "},"":{"ha":1999,"x_min":28,"x_max":1964,"o":"m 750 -61 q 929 -215 750 -215 l 1042 -215 l 1042 -276 l 631 -276 q 363 -214 436 -276 q 300 -57 300 -161 l 300 592 q 175 715 300 715 l 28 715 l 28 776 l 768 776 l 768 313 q 939 143 768 143 q 1094 179 1018 143 q 1224 267 1171 215 l 1224 592 q 1099 715 1224 715 l 951 715 l 951 776 l 1692 776 l 1692 183 q 1728 97 1692 133 q 1817 60 1765 60 l 1964 60 l 1964 0 l 1224 0 l 1224 179 q 896 38 1064 38 q 750 60 825 38 l 750 -61 m 388 592 l 388 -42 q 531 -212 388 -186 l 532 -201 q 458 -42 458 -164 l 458 592 q 293 733 458 703 l 290 724 q 388 592 388 689 m 1311 592 l 1311 60 l 1382 60 l 1382 592 q 1217 733 1382 703 l 1214 724 q 1311 592 1311 689 z "},"":{"ha":1551,"x_min":31,"x_max":1482,"o":"m 1338 1113 q 1482 1106 1406 1113 l 1475 1050 q 1429 1053 1453 1053 q 1319 1017 1361 1053 q 1278 903 1278 981 l 1278 26 q 1249 -101 1278 -47 q 1154 -194 1221 -154 q 676 -276 1022 -276 q 532 -269 608 -276 l 539 -214 q 585 -217 561 -217 q 694 -181 653 -217 q 736 -67 736 -144 l 736 268 q 415 147 588 147 q 137 261 243 147 q 31 528 31 375 q 144 792 31 681 q 469 903 258 903 l 749 903 q 920 1060 782 1007 q 1338 1113 1058 1113 m 643 363 q 736 376 689 363 l 736 806 l 644 806 q 511 737 553 806 q 469 576 469 668 q 513 424 469 485 q 643 363 557 363 m 918 43 l 918 993 q 829 793 829 957 l 829 -157 q 918 43 918 -121 m 378 225 q 256 361 296 278 q 215 526 215 444 q 256 691 215 607 q 378 829 296 775 l 374 842 q 190 709 257 794 q 122 527 122 624 q 190 344 122 431 q 374 211 257 258 l 378 225 z "},"":{"ha":825,"x_min":126,"x_max":696,"o":"m 613 549 q 654 523 613 549 q 696 425 696 497 q 613 302 696 353 q 411 251 529 251 q 210 302 293 251 q 126 425 126 353 q 210 549 126 497 q 411 600 293 600 q 613 549 529 600 m 301 308 q 250 425 250 357 q 301 542 250 493 l 297 547 q 214 495 246 528 q 182 425 182 463 q 214 355 182 388 q 297 303 246 322 l 301 308 z "},"":{"ha":786,"x_min":69,"x_max":717,"o":"m 69 -110 l 124 -110 q 203 -203 146 -164 q 313 -243 261 -243 q 394 -219 364 -243 q 425 -146 425 -194 q 243 0 425 -26 l 243 22 q 647 -72 510 22 q 717 -185 717 -119 q 393 -310 717 -310 q 69 -261 200 -310 l 69 -110 m 508 -149 q 491 -210 508 -181 q 446 -253 474 -239 l 450 -261 q 538 -217 497 -249 q 578 -149 578 -186 q 450 -33 578 -75 l 444 -42 q 508 -149 508 -81 z "},"":{"ha":707,"x_min":38,"x_max":663,"o":"m 663 960 l 600 960 q 545 937 568 960 q 522 882 522 914 l 522 622 q 600 544 522 544 l 663 544 l 663 503 l 111 503 l 111 544 l 175 544 q 250 622 250 544 l 250 833 q 258 918 250 876 l 261 932 l 75 803 l 38 849 l 283 1003 l 663 1003 l 663 960 m 306 960 l 306 544 l 361 544 l 361 960 l 306 960 z "},"":{"ha":997,"x_min":42,"x_max":956,"o":"m 499 931 q 601 931 499 931 q 829 856 703 931 q 956 672 956 781 q 822 486 956 563 q 499 410 688 410 q 176 486 310 410 q 42 672 42 563 q 169 856 42 781 q 499 931 296 931 m 633 672 q 633 723 633 672 q 604 822 633 774 q 499 869 575 869 q 394 822 424 869 q 365 669 365 774 q 499 469 365 469 q 598 520 563 469 q 633 672 633 571 m 356 875 q 172 797 239 853 q 104 672 104 742 q 174 546 104 601 q 356 465 244 490 l 356 472 q 214 554 268 500 q 160 672 160 608 q 213 789 160 735 q 356 869 265 843 l 356 875 m 675 482 q 761 674 761 574 q 669 865 761 774 q 706 674 706 769 q 675 482 706 578 z "},"":{"ha":942,"x_min":111,"x_max":942,"o":"m 490 415 l 490 357 l 111 11 l 111 132 l 267 275 l 111 419 l 111 763 l 490 415 m 164 446 l 308 313 l 356 356 l 164 532 l 164 446 m 942 415 l 942 357 l 563 11 l 563 132 l 718 275 l 563 419 l 563 763 l 942 415 m 615 446 l 760 313 l 807 356 l 615 532 l 615 446 z "},"":{"ha":1618,"x_min":25,"x_max":1549,"o":"m 574 -31 l 501 -31 l 1049 931 l 1121 931 l 574 -31 m 650 897 l 588 897 q 533 874 556 897 q 510 819 510 851 l 510 560 q 588 482 510 482 l 650 482 l 650 440 l 99 440 l 99 482 l 163 482 q 238 560 238 482 l 238 771 q 246 856 238 814 l 249 869 l 63 740 l 25 786 l 271 940 l 650 940 l 650 897 m 293 897 l 293 482 l 349 482 l 349 897 l 293 897 m 1549 135 l 1407 135 l 1407 118 q 1482 40 1407 40 l 1547 40 l 1547 0 l 994 0 l 994 40 l 1058 40 q 1135 118 1135 40 l 1135 135 l 857 135 l 857 172 l 1168 500 l 1547 500 l 1547 457 l 1482 457 q 1429 434 1451 457 q 1407 379 1407 411 l 1407 175 l 1549 175 l 1549 135 m 1135 175 l 1135 325 l 1143 410 q 1041 292 1108 368 q 939 175 974 215 l 1135 175 m 1190 457 l 1190 40 l 1246 40 l 1246 457 l 1190 457 z "},"":{"ha":1618,"x_min":25,"x_max":1546,"o":"m 521 -31 l 449 -31 l 996 931 l 1068 931 l 521 -31 m 650 897 l 588 897 q 533 874 556 897 q 510 819 510 851 l 510 560 q 588 482 510 482 l 650 482 l 650 440 l 99 440 l 99 482 l 163 482 q 238 560 238 482 l 238 771 q 246 856 238 814 l 249 869 l 63 740 l 25 786 l 271 940 l 650 940 l 650 897 m 293 897 l 293 482 l 349 482 l 349 897 l 293 897 m 1504 183 l 1542 183 l 1542 0 l 853 0 l 853 57 q 1104 164 974 92 q 1218 253 1174 201 q 1263 349 1263 304 q 1251 420 1263 394 q 1219 456 1239 446 q 1161 471 1189 471 q 1003 409 1076 471 q 917 274 931 347 l 879 274 l 879 488 l 917 488 l 917 451 q 1213 510 1043 510 q 1390 489 1310 510 q 1546 363 1546 449 q 1490 265 1546 314 q 1339 175 1433 215 q 961 49 1161 100 l 961 40 q 1504 118 1282 50 l 1504 183 m 1276 476 q 1318 350 1318 438 q 1244 204 1318 263 l 1247 199 q 1360 292 1325 218 q 1374 361 1374 321 q 1346 434 1374 401 q 1281 481 1318 467 l 1276 476 z "},"":{"ha":1618,"x_min":65,"x_max":1549,"o":"m 615 -31 l 543 -31 l 1090 931 l 1163 931 l 615 -31 m 719 821 q 665 753 719 783 q 519 710 610 724 q 706 661 638 697 q 774 575 774 625 q 663 468 774 513 q 384 424 551 424 q 103 474 217 424 l 103 440 l 65 440 l 65 610 l 101 610 q 206 506 124 549 q 382 463 289 463 q 474 495 439 463 q 508 578 508 528 q 475 660 508 628 q 388 693 442 693 q 300 674 333 693 q 267 619 267 656 l 229 619 l 229 794 l 267 794 q 365 729 267 729 q 447 754 417 729 q 478 819 478 779 q 450 885 478 860 q 358 911 422 911 q 226 875 293 911 q 126 768 160 839 l 90 768 l 90 921 l 128 921 l 128 893 q 403 950 265 950 q 630 913 540 950 q 719 821 719 875 m 529 465 q 622 576 622 513 q 529 686 622 639 l 525 682 q 564 576 564 638 q 525 469 564 514 l 529 465 m 589 817 q 500 915 589 875 l 496 911 q 533 821 533 864 q 496 736 533 778 l 500 732 q 589 817 589 761 m 1549 135 l 1407 135 l 1407 118 q 1482 40 1407 40 l 1547 40 l 1547 0 l 994 0 l 994 40 l 1058 40 q 1135 118 1135 40 l 1135 135 l 857 135 l 857 172 l 1168 500 l 1547 500 l 1547 457 l 1482 457 q 1429 434 1451 457 q 1407 379 1407 411 l 1407 175 l 1549 175 l 1549 135 m 1135 175 l 1135 325 l 1143 410 q 1041 292 1108 368 q 939 175 974 215 l 1135 175 m 1190 457 l 1190 40 l 1246 40 l 1246 457 l 1190 457 z "},"":{"ha":1517,"x_min":132,"x_max":1361,"o":"m 1034 1031 q 1080 1003 1034 1031 q 1126 894 1126 975 q 1034 758 1126 814 q 810 701 942 701 q 584 758 678 701 q 490 894 490 814 q 584 1031 490 975 q 810 1088 678 1088 q 1034 1031 942 1088 m 132 206 q 242 408 132 314 q 533 556 351 501 q 917 611 714 611 q 1026 608 935 611 l 1026 546 q 890 549 940 549 q 733 491 789 549 q 676 283 676 433 q 715 56 676 103 q 751 24 735 32 q 793 17 768 17 q 1103 114 933 17 q 1303 307 1272 211 l 1361 307 l 1361 -60 l 1303 -60 l 1303 31 q 799 -36 1068 -36 q 132 206 132 -36 m 713 767 q 661 894 661 821 q 713 1022 661 968 l 708 1029 q 625 973 657 1010 q 593 894 593 936 q 625 817 593 853 q 708 760 657 781 l 713 767 m 306 206 q 390 388 306 303 q 611 524 474 474 l 606 535 q 324 398 432 486 q 215 206 215 310 q 464 24 215 71 l 467 36 q 306 206 306 86 z "},"":{"ha":1940,"x_min":-19,"x_max":1958,"o":"m 1958 60 l 1958 0 l 915 0 l 915 60 l 1018 60 q 1077 76 1054 60 q 1100 124 1100 92 q 1060 206 1100 156 l 1008 269 l 393 269 q 353 159 353 207 q 382 85 353 111 q 457 60 411 60 l 586 60 l 586 0 l -19 0 l -19 60 q 71 81 24 60 q 154 133 118 103 q 221 196 190 164 q 267 249 251 228 q 283 271 283 269 l 640 725 l 606 768 q 535 826 572 808 q 435 843 499 843 l 325 843 l 325 903 l 1119 903 l 1800 60 l 1958 60 m 446 336 l 956 336 l 694 658 l 446 336 m 1289 60 l 1396 60 l 764 843 l 657 843 l 1289 60 m 1185 1044 l 1185 994 l 1110 994 q 626 1019 735 994 q 479 1100 528 1042 q 425 1183 433 1153 l 421 1197 l 825 1197 q 958 1081 882 1117 q 1185 1044 1033 1044 m 751 1049 l 751 1054 q 670 1095 713 1067 q 611 1158 628 1124 l 522 1158 q 751 1049 592 1057 z "},"":{"ha":1940,"x_min":-19,"x_max":1958,"o":"m 1958 60 l 1958 0 l 915 0 l 915 60 l 1018 60 q 1077 76 1054 60 q 1100 124 1100 92 q 1060 206 1100 156 l 1008 269 l 393 269 q 353 159 353 207 q 382 85 353 111 q 457 60 411 60 l 586 60 l 586 0 l -19 0 l -19 60 q 71 81 24 60 q 154 133 118 103 q 221 196 190 164 q 267 249 251 228 q 283 271 283 269 l 640 725 l 606 768 q 535 826 572 808 q 435 843 499 843 l 325 843 l 325 903 l 1119 903 l 1800 60 l 1958 60 m 446 336 l 956 336 l 694 658 l 446 336 m 1289 60 l 1396 60 l 764 843 l 657 843 l 1289 60 m 496 994 l 421 994 l 421 1044 q 648 1081 572 1044 q 781 1197 724 1117 l 1185 1197 q 1164 1150 1181 1179 q 1126 1099 1147 1121 q 1067 1053 1106 1076 q 979 1019 1028 1031 q 496 994 871 994 m 696 1054 l 696 1049 q 925 1158 856 1057 l 836 1158 q 777 1095 819 1124 q 696 1054 735 1067 z "},"":{"ha":1940,"x_min":-19,"x_max":1958,"o":"m 1958 60 l 1958 0 l 915 0 l 915 60 l 1018 60 q 1077 76 1054 60 q 1100 124 1100 92 q 1060 206 1100 156 l 1008 269 l 393 269 q 353 159 353 207 q 382 85 353 111 q 457 60 411 60 l 586 60 l 586 0 l -19 0 l -19 60 q 71 81 24 60 q 154 133 118 103 q 221 196 190 164 q 267 249 251 228 q 283 271 283 269 l 640 725 l 606 768 q 535 826 572 808 q 435 843 499 843 l 325 843 l 325 903 l 1119 903 l 1800 60 l 1958 60 m 446 336 l 956 336 l 694 658 l 446 336 m 1289 60 l 1396 60 l 764 843 l 657 843 l 1289 60 m 503 1197 l 953 1197 l 1138 994 l 1017 994 l 874 1150 l 729 994 l 317 994 l 503 1197 m 661 1163 l 575 1163 l 471 1047 l 557 1047 l 661 1163 z "},"":{"ha":1940,"x_min":-19,"x_max":1958,"o":"m 1958 60 l 1958 0 l 915 0 l 915 60 l 1018 60 q 1077 76 1054 60 q 1100 124 1100 92 q 1060 206 1100 156 l 1008 269 l 393 269 q 353 159 353 207 q 382 85 353 111 q 457 60 411 60 l 586 60 l 586 0 l -19 0 l -19 60 q 71 81 24 60 q 154 133 118 103 q 221 196 190 164 q 267 249 251 228 q 283 271 283 269 l 640 725 l 606 768 q 535 826 572 808 q 435 843 499 843 l 325 843 l 325 903 l 1119 903 l 1800 60 l 1958 60 m 446 336 l 956 336 l 694 658 l 446 336 m 1289 60 l 1396 60 l 764 843 l 657 843 l 1289 60 m 1144 1096 q 982 1075 1079 1075 q 762 1106 885 1075 q 573 1136 639 1136 q 460 1094 507 1136 l 464 1089 q 533 1096 496 1096 q 713 1061 571 1096 q 964 1026 856 1026 q 1147 1090 1072 1026 l 1144 1096 m 1138 1042 q 1122 1029 1138 1042 q 1057 997 1106 1015 q 924 979 1008 979 q 705 1013 839 979 q 485 1047 571 1047 q 399 996 419 1047 l 360 996 q 451 1142 365 1064 q 661 1221 536 1221 q 906 1196 786 1221 q 1098 1171 1025 1171 q 1200 1219 1171 1171 l 1246 1219 q 1205 1117 1239 1164 q 1138 1042 1171 1069 z "},"":{"ha":1940,"x_min":-19,"x_max":1958,"o":"m 1958 60 l 1958 0 l 915 0 l 915 60 l 1018 60 q 1077 76 1054 60 q 1100 124 1100 92 q 1060 206 1100 156 l 1008 269 l 393 269 q 353 159 353 207 q 382 85 353 111 q 457 60 411 60 l 586 60 l 586 0 l -19 0 l -19 60 q 71 81 24 60 q 154 133 118 103 q 221 196 190 164 q 267 249 251 228 q 283 271 283 269 l 640 725 l 606 768 q 535 826 572 808 q 435 843 499 843 l 325 843 l 325 903 l 1119 903 l 1800 60 l 1958 60 m 446 336 l 956 336 l 694 658 l 446 336 m 1289 60 l 1396 60 l 764 843 l 657 843 l 1289 60 m 1254 1221 q 1282 1197 1254 1221 q 1310 1108 1310 1174 q 1254 997 1310 1043 q 1119 951 1199 951 q 985 997 1040 951 q 929 1108 929 1043 q 985 1221 929 1174 q 1119 1268 1040 1268 q 1254 1221 1199 1268 m 621 1221 q 649 1197 621 1221 q 676 1108 676 1174 q 621 997 676 1043 q 486 951 565 951 q 351 997 407 951 q 296 1108 296 1043 q 351 1221 296 1174 q 486 1268 407 1268 q 621 1221 565 1268 m 447 988 q 404 1108 404 1035 q 447 1229 404 1182 l 443 1233 q 374 1181 400 1215 q 347 1108 347 1147 q 374 1035 347 1069 q 443 983 400 1001 l 447 988 m 1081 988 q 1038 1108 1038 1035 q 1081 1229 1038 1182 l 1076 1233 q 1007 1181 1033 1215 q 981 1108 981 1147 q 1007 1035 981 1069 q 1076 983 1033 1001 l 1081 988 z "},"":{"ha":1940,"x_min":-19,"x_max":1958,"o":"m 1958 60 l 1958 0 l 915 0 l 915 60 l 1018 60 q 1077 76 1054 60 q 1100 124 1100 92 q 1060 206 1100 156 l 1008 269 l 393 269 q 353 159 353 207 q 382 85 353 111 q 457 60 411 60 l 586 60 l 586 0 l -19 0 l -19 60 q 71 81 24 60 q 154 133 118 103 q 221 196 190 164 q 267 249 251 228 q 283 271 283 269 l 640 725 l 606 768 q 535 826 572 808 q 435 843 499 843 l 325 843 l 325 903 l 1119 903 l 1800 60 l 1958 60 m 446 336 l 956 336 l 694 658 l 446 336 m 1289 60 l 1396 60 l 764 843 l 657 843 l 1289 60 m 756 1206 q 746 1185 756 1206 q 736 1108 736 1165 q 756 1011 736 1051 q 803 971 775 971 q 850 1011 831 971 q 869 1108 869 1051 q 850 1206 869 1165 q 803 1246 831 1246 q 756 1206 775 1246 m 804 1292 q 849 1292 804 1292 q 959 1238 894 1292 q 1024 1108 1024 1183 q 959 980 1024 1032 q 803 928 894 928 q 649 981 713 928 q 585 1108 585 1033 q 649 1238 585 1183 q 804 1292 714 1292 m 728 983 q 685 1108 685 1033 q 728 1233 685 1183 l 724 1238 q 656 1183 682 1218 q 629 1108 629 1147 q 656 1034 629 1069 q 724 979 682 999 l 728 983 z "},"":{"ha":2546,"x_min":-19,"x_max":2435,"o":"m 325 903 l 2435 903 l 2435 583 l 2394 583 q 2161 766 2314 692 q 1774 840 2008 840 q 1659 803 1701 840 q 1617 706 1617 765 l 1617 658 q 1739 517 1617 517 q 1938 569 1833 517 q 2076 693 2043 622 l 2128 693 l 2128 269 l 2076 269 q 1942 388 2044 343 q 1739 433 1839 433 q 1645 397 1674 433 q 1617 310 1617 361 l 1617 260 q 1638 106 1617 153 q 1736 60 1660 60 l 1771 60 q 1899 62 1849 60 q 2026 77 1949 64 q 2161 113 2104 90 q 2282 183 2218 136 q 2394 294 2346 229 l 2435 294 l 2435 0 l 758 0 l 758 60 l 925 60 q 1076 210 1076 60 l 1076 433 l 521 433 l 393 269 q 353 165 353 218 q 382 85 353 111 q 457 60 411 60 l 586 60 l 586 0 l -19 0 l -19 60 q 71 81 24 60 q 154 133 118 103 q 221 196 190 164 q 267 249 251 228 q 283 271 283 269 l 640 725 l 606 768 q 535 826 572 808 q 435 843 499 843 l 325 843 l 325 903 m 925 843 l 839 843 l 585 517 l 1076 517 l 1076 704 q 925 843 1076 843 m 1261 60 l 1261 843 l 1169 843 l 1169 60 l 1261 60 z "},"":{"ha":1524,"x_min":31,"x_max":1506,"o":"m 438 -110 l 492 -110 q 572 -203 514 -164 q 681 -243 629 -243 q 763 -219 732 -243 q 793 -146 793 -194 q 686 -18 793 -56 q 221 126 396 15 q 81 267 131 183 q 31 466 31 351 q 107 677 31 581 q 308 828 183 774 q 875 936 561 936 q 1374 833 1090 936 l 1374 903 l 1440 903 l 1440 571 l 1374 571 q 1167 779 1314 683 q 868 875 1021 875 q 706 822 754 875 q 658 674 658 768 l 658 293 q 719 90 658 151 q 915 28 779 28 q 1155 54 1050 28 q 1315 113 1260 81 q 1415 172 1371 146 q 1472 199 1460 199 q 1506 171 1506 199 q 1348 52 1506 132 q 938 -31 1190 -28 q 1085 -185 1085 -87 q 761 -310 1085 -310 q 438 -261 568 -310 l 438 -110 m 496 89 q 290 233 369 143 q 211 450 211 322 q 290 676 211 578 q 496 833 369 775 l 494 840 q 219 685 325 793 q 113 450 113 576 q 218 225 113 324 q 494 82 324 126 l 496 89 m 876 -149 q 859 -210 876 -181 q 814 -253 842 -239 l 818 -261 q 906 -217 865 -249 q 946 -149 946 -186 q 818 -33 946 -75 l 813 -42 q 876 -149 876 -81 z "},"":{"ha":1889,"x_min":101,"x_max":1778,"o":"m 1117 840 q 1002 803 1044 840 q 960 706 960 765 l 960 658 q 1082 517 960 517 q 1281 569 1176 517 q 1419 693 1386 622 l 1471 693 l 1471 269 l 1419 269 q 1285 388 1388 343 q 1082 433 1182 433 q 988 397 1017 433 q 960 310 960 361 l 960 260 q 981 106 960 153 q 1079 60 1003 60 l 1114 60 q 1242 62 1192 60 q 1369 77 1292 64 q 1504 113 1447 90 q 1625 183 1561 136 q 1738 294 1689 229 l 1778 294 l 1778 0 l 101 0 l 101 60 l 268 60 q 419 210 419 60 l 419 690 q 375 798 419 753 q 268 843 331 843 l 101 843 l 101 903 l 1778 903 l 1778 583 l 1738 583 q 1504 766 1657 692 q 1117 840 1351 840 m 604 60 l 604 843 l 513 843 l 513 60 l 604 60 m 1326 1044 l 1326 994 l 1251 994 q 768 1019 876 994 q 621 1100 669 1042 q 567 1183 575 1153 l 563 1197 l 967 1197 q 1099 1081 1024 1117 q 1326 1044 1175 1044 m 893 1049 l 893 1054 q 812 1095 854 1067 q 753 1158 769 1124 l 664 1158 q 893 1049 733 1057 z "},"":{"ha":1889,"x_min":101,"x_max":1778,"o":"m 1117 840 q 1002 803 1044 840 q 960 706 960 765 l 960 658 q 1082 517 960 517 q 1281 569 1176 517 q 1419 693 1386 622 l 1471 693 l 1471 269 l 1419 269 q 1285 388 1388 343 q 1082 433 1182 433 q 988 397 1017 433 q 960 310 960 361 l 960 260 q 981 106 960 153 q 1079 60 1003 60 l 1114 60 q 1242 62 1192 60 q 1369 77 1292 64 q 1504 113 1447 90 q 1625 183 1561 136 q 1738 294 1689 229 l 1778 294 l 1778 0 l 101 0 l 101 60 l 268 60 q 419 210 419 60 l 419 690 q 375 798 419 753 q 268 843 331 843 l 101 843 l 101 903 l 1778 903 l 1778 583 l 1738 583 q 1504 766 1657 692 q 1117 840 1351 840 m 604 60 l 604 843 l 513 843 l 513 60 l 604 60 m 638 994 l 563 994 l 563 1044 q 790 1081 714 1044 q 922 1197 865 1117 l 1326 1197 q 1306 1150 1322 1179 q 1268 1099 1289 1121 q 1208 1053 1247 1076 q 1121 1019 1169 1031 q 638 994 1013 994 m 838 1054 l 838 1049 q 1067 1158 997 1057 l 978 1158 q 919 1095 961 1124 q 838 1054 876 1067 z "},"":{"ha":1889,"x_min":101,"x_max":1778,"o":"m 1117 840 q 1002 803 1044 840 q 960 706 960 765 l 960 658 q 1082 517 960 517 q 1281 569 1176 517 q 1419 693 1386 622 l 1471 693 l 1471 269 l 1419 269 q 1285 388 1388 343 q 1082 433 1182 433 q 988 397 1017 433 q 960 310 960 361 l 960 260 q 981 106 960 153 q 1079 60 1003 60 l 1114 60 q 1242 62 1192 60 q 1369 77 1292 64 q 1504 113 1447 90 q 1625 183 1561 136 q 1738 294 1689 229 l 1778 294 l 1778 0 l 101 0 l 101 60 l 268 60 q 419 210 419 60 l 419 690 q 375 798 419 753 q 268 843 331 843 l 101 843 l 101 903 l 1778 903 l 1778 583 l 1738 583 q 1504 766 1657 692 q 1117 840 1351 840 m 604 60 l 604 843 l 513 843 l 513 60 l 604 60 m 839 1197 l 1289 1197 l 1474 994 l 1353 994 l 1210 1150 l 1065 994 l 653 994 l 839 1197 m 997 1163 l 911 1163 l 807 1047 l 893 1047 l 997 1163 z "},"":{"ha":1889,"x_min":101,"x_max":1778,"o":"m 1117 840 q 1002 803 1044 840 q 960 706 960 765 l 960 658 q 1082 517 960 517 q 1281 569 1176 517 q 1419 693 1386 622 l 1471 693 l 1471 269 l 1419 269 q 1285 388 1388 343 q 1082 433 1182 433 q 988 397 1017 433 q 960 310 960 361 l 960 260 q 981 106 960 153 q 1079 60 1003 60 l 1114 60 q 1242 62 1192 60 q 1369 77 1292 64 q 1504 113 1447 90 q 1625 183 1561 136 q 1738 294 1689 229 l 1778 294 l 1778 0 l 101 0 l 101 60 l 268 60 q 419 210 419 60 l 419 690 q 375 798 419 753 q 268 843 331 843 l 101 843 l 101 903 l 1778 903 l 1778 583 l 1738 583 q 1504 766 1657 692 q 1117 840 1351 840 m 604 60 l 604 843 l 513 843 l 513 60 l 604 60 m 1493 1221 q 1521 1197 1493 1221 q 1549 1108 1549 1174 q 1493 997 1549 1043 q 1358 951 1438 951 q 1224 997 1279 951 q 1168 1108 1168 1043 q 1224 1221 1168 1174 q 1358 1268 1279 1268 q 1493 1221 1438 1268 m 860 1221 q 888 1197 860 1221 q 915 1108 915 1174 q 860 997 915 1043 q 725 951 804 951 q 590 997 646 951 q 535 1108 535 1043 q 590 1221 535 1174 q 725 1268 646 1268 q 860 1221 804 1268 m 686 988 q 643 1108 643 1035 q 686 1229 643 1182 l 682 1233 q 613 1181 639 1215 q 586 1108 586 1147 q 613 1035 586 1069 q 682 983 639 1001 l 686 988 m 1319 988 q 1276 1108 1276 1035 q 1319 1229 1276 1182 l 1315 1233 q 1246 1181 1272 1215 q 1219 1108 1219 1147 q 1246 1035 1219 1069 q 1315 983 1272 1001 l 1319 988 z "},"":{"ha":1393,"x_min":101,"x_max":1283,"o":"m 964 690 l 964 210 q 1006 96 964 132 q 1115 60 1047 60 l 1283 60 l 1283 0 l 101 0 l 101 60 l 271 60 q 381 96 339 60 q 422 210 422 132 l 422 690 q 378 798 422 753 q 271 843 333 843 l 101 843 l 101 903 l 1283 903 l 1283 843 l 1115 843 q 1008 798 1053 843 q 964 690 964 753 m 606 60 l 606 843 l 515 843 l 515 60 l 606 60 m 1078 1044 l 1078 994 l 1003 994 q 519 1019 628 994 q 372 1100 421 1042 q 318 1183 326 1153 l 314 1197 l 718 1197 q 851 1081 775 1117 q 1078 1044 926 1044 m 644 1049 l 644 1054 q 563 1095 606 1067 q 504 1158 521 1124 l 415 1158 q 644 1049 485 1057 z "},"":{"ha":1393,"x_min":101,"x_max":1283,"o":"m 964 690 l 964 210 q 1006 96 964 132 q 1115 60 1047 60 l 1283 60 l 1283 0 l 101 0 l 101 60 l 271 60 q 381 96 339 60 q 422 210 422 132 l 422 690 q 378 798 422 753 q 271 843 333 843 l 101 843 l 101 903 l 1283 903 l 1283 843 l 1115 843 q 1008 798 1053 843 q 964 690 964 753 m 606 60 l 606 843 l 515 843 l 515 60 l 606 60 m 389 994 l 314 994 l 314 1044 q 541 1081 465 1044 q 674 1197 617 1117 l 1078 1197 q 1057 1150 1074 1179 q 1019 1099 1040 1121 q 960 1053 999 1076 q 872 1019 921 1031 q 389 994 764 994 m 589 1054 l 589 1049 q 818 1158 749 1057 l 729 1158 q 670 1095 713 1124 q 589 1054 628 1067 z "},"":{"ha":1393,"x_min":101,"x_max":1283,"o":"m 964 690 l 964 210 q 1006 96 964 132 q 1115 60 1047 60 l 1283 60 l 1283 0 l 101 0 l 101 60 l 271 60 q 381 96 339 60 q 422 210 422 132 l 422 690 q 378 798 422 753 q 271 843 333 843 l 101 843 l 101 903 l 1283 903 l 1283 843 l 1115 843 q 1008 798 1053 843 q 964 690 964 753 m 606 60 l 606 843 l 515 843 l 515 60 l 606 60 m 472 1197 l 922 1197 l 1107 994 l 986 994 l 843 1150 l 699 994 l 286 994 l 472 1197 m 631 1163 l 544 1163 l 440 1047 l 526 1047 l 631 1163 z "},"":{"ha":1393,"x_min":101,"x_max":1283,"o":"m 964 690 l 964 210 q 1006 96 964 132 q 1115 60 1047 60 l 1283 60 l 1283 0 l 101 0 l 101 60 l 271 60 q 381 96 339 60 q 422 210 422 132 l 422 690 q 378 798 422 753 q 271 843 333 843 l 101 843 l 101 903 l 1283 903 l 1283 843 l 1115 843 q 1008 798 1053 843 q 964 690 964 753 m 606 60 l 606 843 l 515 843 l 515 60 l 606 60 m 1147 1221 q 1175 1197 1147 1221 q 1203 1108 1203 1174 q 1147 997 1203 1043 q 1013 951 1092 951 q 878 997 933 951 q 822 1108 822 1043 q 878 1221 822 1174 q 1013 1268 933 1268 q 1147 1221 1092 1268 m 514 1221 q 542 1197 514 1221 q 569 1108 569 1174 q 514 997 569 1043 q 379 951 458 951 q 244 997 300 951 q 189 1108 189 1043 q 244 1221 189 1174 q 379 1268 300 1268 q 514 1221 458 1268 m 340 988 q 297 1108 297 1035 q 340 1229 297 1182 l 336 1233 q 267 1181 293 1215 q 240 1108 240 1147 q 267 1035 240 1069 q 336 983 293 1001 l 340 988 m 974 988 q 931 1108 931 1035 q 974 1229 931 1182 l 969 1233 q 900 1181 926 1215 q 874 1108 874 1147 q 900 1035 874 1069 q 969 983 926 1001 l 974 988 z "},"":{"ha":2040,"x_min":97,"x_max":2008,"o":"m 97 903 l 1157 903 q 1740 806 1499 903 q 1936 670 1864 757 q 2008 470 2008 583 q 1957 271 2008 357 q 1828 135 1906 185 q 1650 54 1751 86 q 1285 0 1476 0 l 97 0 l 97 60 l 264 60 q 374 96 332 60 q 415 211 415 132 l 415 396 l 206 396 l 206 507 l 415 507 l 415 692 q 371 798 415 753 q 264 843 326 843 l 97 843 l 97 903 m 1072 60 l 1199 60 q 1335 119 1281 60 q 1431 450 1431 224 q 1121 842 1431 842 q 1000 805 1044 842 q 956 706 956 768 l 956 507 l 1217 507 l 1217 396 l 956 396 l 956 201 q 1072 60 956 60 m 599 60 l 599 843 l 508 843 l 508 60 l 599 60 m 1436 69 q 1667 450 1667 200 q 1436 831 1667 700 l 1433 826 q 1554 450 1554 663 q 1433 74 1554 238 l 1436 69 z "},"":{"ha":2168,"x_min":32,"x_max":2124,"o":"m 1401 903 l 2124 903 l 2124 843 q 1807 569 1807 843 l 1807 -58 l 1682 -58 l 715 526 q 646 546 681 546 q 576 449 576 546 l 576 385 q 618 233 576 299 q 728 132 660 168 q 1014 60 861 60 l 1014 0 l 49 0 l 49 60 q 336 132 200 60 q 444 233 403 168 q 486 385 486 299 l 486 531 q 419 695 486 622 q 250 806 353 768 q 32 843 147 843 l 32 903 l 1072 903 l 1556 599 q 1686 532 1661 532 q 1718 569 1718 532 q 1401 843 1718 843 l 1401 903 m 494 843 l 494 767 l 1682 49 l 1682 149 l 532 843 l 494 843 m 1425 1096 q 1263 1075 1360 1075 q 1042 1106 1165 1075 q 853 1136 919 1136 q 740 1094 788 1136 l 744 1089 q 814 1096 776 1096 q 994 1061 851 1096 q 1244 1026 1136 1026 q 1428 1090 1353 1026 l 1425 1096 m 1419 1042 q 1402 1029 1419 1042 q 1338 997 1386 1015 q 1204 979 1289 979 q 985 1013 1119 979 q 765 1047 851 1047 q 679 996 700 1047 l 640 996 q 731 1142 646 1064 q 942 1221 817 1221 q 1186 1196 1067 1221 q 1378 1171 1306 1171 q 1481 1219 1451 1171 l 1526 1219 q 1485 1117 1519 1164 q 1419 1042 1451 1069 z "},"":{"ha":1868,"x_min":31,"x_max":1836,"o":"m 1836 451 q 1715 210 1836 321 q 1387 34 1594 99 q 933 -31 1179 -31 q 480 34 688 -31 q 151 210 272 99 q 31 451 31 321 q 279 793 31 656 q 933 931 528 931 q 1588 793 1339 931 q 1836 451 1836 656 m 1221 457 q 1221 564 1221 457 q 1159 772 1221 671 q 934 874 1097 874 q 708 772 771 874 q 646 456 646 669 q 721 135 646 243 q 933 26 796 26 q 1146 135 1071 26 q 1221 457 1221 243 m 296 224 q 251 276 296 224 q 207 451 207 328 q 298 679 207 575 q 540 843 389 783 l 539 849 q 224 684 342 790 q 106 451 106 578 q 222 220 106 325 q 533 56 338 115 l 535 61 q 296 224 385 121 m 1390 241 q 1414 292 1390 241 q 1438 451 1438 343 q 1390 662 1438 560 q 1263 838 1343 764 l 1254 835 q 1333 451 1333 639 q 1254 68 1333 264 l 1263 65 q 1390 241 1343 139 m 1315 1044 l 1315 994 l 1240 994 q 757 1019 865 994 q 610 1100 658 1042 q 556 1183 564 1153 l 551 1197 l 956 1197 q 1088 1081 1013 1117 q 1315 1044 1164 1044 m 882 1049 l 882 1054 q 801 1095 843 1067 q 742 1158 758 1124 l 653 1158 q 882 1049 722 1057 z "},"":{"ha":1868,"x_min":31,"x_max":1836,"o":"m 1836 451 q 1715 210 1836 321 q 1387 34 1594 99 q 933 -31 1179 -31 q 480 34 688 -31 q 151 210 272 99 q 31 451 31 321 q 279 793 31 656 q 933 931 528 931 q 1588 793 1339 931 q 1836 451 1836 656 m 1221 457 q 1221 564 1221 457 q 1159 772 1221 671 q 934 874 1097 874 q 708 772 771 874 q 646 456 646 669 q 721 135 646 243 q 933 26 796 26 q 1146 135 1071 26 q 1221 457 1221 243 m 296 224 q 251 276 296 224 q 207 451 207 328 q 298 679 207 575 q 540 843 389 783 l 539 849 q 224 684 342 790 q 106 451 106 578 q 222 220 106 325 q 533 56 338 115 l 535 61 q 296 224 385 121 m 1390 241 q 1414 292 1390 241 q 1438 451 1438 343 q 1390 662 1438 560 q 1263 838 1343 764 l 1254 835 q 1333 451 1333 639 q 1254 68 1333 264 l 1263 65 q 1390 241 1343 139 m 626 994 l 551 994 l 551 1044 q 778 1081 703 1044 q 911 1197 854 1117 l 1315 1197 q 1294 1150 1311 1179 q 1257 1099 1278 1121 q 1197 1053 1236 1076 q 1110 1019 1158 1031 q 626 994 1001 994 m 826 1054 l 826 1049 q 1056 1158 986 1057 l 967 1158 q 908 1095 950 1124 q 826 1054 865 1067 z "},"":{"ha":1868,"x_min":31,"x_max":1836,"o":"m 1836 451 q 1715 210 1836 321 q 1387 34 1594 99 q 933 -31 1179 -31 q 480 34 688 -31 q 151 210 272 99 q 31 451 31 321 q 279 793 31 656 q 933 931 528 931 q 1588 793 1339 931 q 1836 451 1836 656 m 1221 457 q 1221 564 1221 457 q 1159 772 1221 671 q 934 874 1097 874 q 708 772 771 874 q 646 456 646 669 q 721 135 646 243 q 933 26 796 26 q 1146 135 1071 26 q 1221 457 1221 243 m 296 224 q 251 276 296 224 q 207 451 207 328 q 298 679 207 575 q 540 843 389 783 l 539 849 q 224 684 342 790 q 106 451 106 578 q 222 220 106 325 q 533 56 338 115 l 535 61 q 296 224 385 121 m 1390 241 q 1414 292 1390 241 q 1438 451 1438 343 q 1390 662 1438 560 q 1263 838 1343 764 l 1254 835 q 1333 451 1333 639 q 1254 68 1333 264 l 1263 65 q 1390 241 1343 139 m 710 1197 l 1160 1197 l 1344 994 l 1224 994 l 1081 1150 l 936 994 l 524 994 l 710 1197 m 868 1163 l 782 1163 l 678 1047 l 764 1047 l 868 1163 z "},"":{"ha":1868,"x_min":31,"x_max":1836,"o":"m 1836 451 q 1715 210 1836 321 q 1387 34 1594 99 q 933 -31 1179 -31 q 480 34 688 -31 q 151 210 272 99 q 31 451 31 321 q 279 793 31 656 q 933 931 528 931 q 1588 793 1339 931 q 1836 451 1836 656 m 1221 457 q 1221 564 1221 457 q 1159 772 1221 671 q 934 874 1097 874 q 708 772 771 874 q 646 456 646 669 q 721 135 646 243 q 933 26 796 26 q 1146 135 1071 26 q 1221 457 1221 243 m 296 224 q 251 276 296 224 q 207 451 207 328 q 298 679 207 575 q 540 843 389 783 l 539 849 q 224 684 342 790 q 106 451 106 578 q 222 220 106 325 q 533 56 338 115 l 535 61 q 296 224 385 121 m 1390 241 q 1414 292 1390 241 q 1438 451 1438 343 q 1390 662 1438 560 q 1263 838 1343 764 l 1254 835 q 1333 451 1333 639 q 1254 68 1333 264 l 1263 65 q 1390 241 1343 139 m 1275 1096 q 1113 1075 1210 1075 q 892 1106 1015 1075 q 703 1136 769 1136 q 590 1094 638 1136 l 594 1089 q 664 1096 626 1096 q 844 1061 701 1096 q 1094 1026 986 1026 q 1278 1090 1203 1026 l 1275 1096 m 1269 1042 q 1252 1029 1269 1042 q 1188 997 1236 1015 q 1054 979 1139 979 q 835 1013 969 979 q 615 1047 701 1047 q 529 996 550 1047 l 490 996 q 581 1142 496 1064 q 792 1221 667 1221 q 1036 1196 917 1221 q 1228 1171 1156 1171 q 1331 1219 1301 1171 l 1376 1219 q 1335 1117 1369 1164 q 1269 1042 1301 1069 z "},"":{"ha":1868,"x_min":31,"x_max":1836,"o":"m 1836 451 q 1715 210 1836 321 q 1387 34 1594 99 q 933 -31 1179 -31 q 480 34 688 -31 q 151 210 272 99 q 31 451 31 321 q 279 793 31 656 q 933 931 528 931 q 1588 793 1339 931 q 1836 451 1836 656 m 1221 457 q 1221 564 1221 457 q 1159 772 1221 671 q 934 874 1097 874 q 708 772 771 874 q 646 456 646 669 q 721 135 646 243 q 933 26 796 26 q 1146 135 1071 26 q 1221 457 1221 243 m 296 224 q 251 276 296 224 q 207 451 207 328 q 298 679 207 575 q 540 843 389 783 l 539 849 q 224 684 342 790 q 106 451 106 578 q 222 220 106 325 q 533 56 338 115 l 535 61 q 296 224 385 121 m 1390 241 q 1414 292 1390 241 q 1438 451 1438 343 q 1390 662 1438 560 q 1263 838 1343 764 l 1254 835 q 1333 451 1333 639 q 1254 68 1333 264 l 1263 65 q 1390 241 1343 139 m 1385 1221 q 1413 1197 1385 1221 q 1440 1108 1440 1174 q 1385 997 1440 1043 q 1250 951 1329 951 q 1115 997 1171 951 q 1060 1108 1060 1043 q 1115 1221 1060 1174 q 1250 1268 1171 1268 q 1385 1221 1329 1268 m 751 1221 q 779 1197 751 1221 q 807 1108 807 1174 q 751 997 807 1043 q 617 951 696 951 q 482 997 538 951 q 426 1108 426 1043 q 482 1221 426 1174 q 617 1268 538 1268 q 751 1221 696 1268 m 578 988 q 535 1108 535 1035 q 578 1229 535 1182 l 574 1233 q 504 1181 531 1215 q 478 1108 478 1147 q 504 1035 478 1069 q 574 983 531 1001 l 578 988 m 1211 988 q 1168 1108 1168 1035 q 1211 1229 1168 1182 l 1207 1233 q 1138 1181 1164 1215 q 1111 1108 1111 1147 q 1138 1035 1111 1069 q 1207 983 1164 1001 l 1211 988 z "},"":{"ha":1028,"x_min":185,"x_max":843,"o":"m 185 722 l 261 799 l 514 546 l 767 799 l 843 722 l 590 469 l 843 217 l 767 140 l 514 393 l 261 140 l 185 217 l 438 469 l 185 722 z "},"":{"ha":1868,"x_min":31,"x_max":1836,"o":"m 31 451 q 279 793 31 656 q 933 931 528 931 q 1119 921 1015 931 l 1171 1029 l 1243 1029 l 1189 914 q 1662 746 1488 872 q 1836 451 1836 619 q 1715 210 1836 321 q 1387 34 1594 99 q 933 -31 1179 -31 q 744 -19 842 -31 l 696 -124 l 624 -124 l 676 -11 q 212 161 393 33 q 31 451 31 289 m 933 874 q 708 772 771 874 q 646 447 646 669 q 736 114 646 224 l 1082 842 q 933 874 1022 874 m 1221 450 q 1135 801 1221 710 l 786 68 q 933 26 849 26 q 1146 135 1071 26 q 1221 450 1221 243 m 296 224 q 251 276 296 224 q 207 451 207 328 q 298 679 207 575 q 540 843 389 783 l 539 849 q 224 684 342 790 q 106 451 106 578 q 222 220 106 325 q 533 56 338 115 l 535 61 q 296 224 385 121 m 1390 241 q 1414 292 1390 241 q 1438 451 1438 343 q 1390 662 1438 560 q 1263 838 1343 764 l 1254 835 q 1333 451 1333 639 q 1254 68 1333 264 l 1263 65 q 1390 241 1343 139 z "},"":{"ha":1690,"x_min":56,"x_max":1683,"o":"m 1051 903 l 1683 903 l 1683 843 q 1581 833 1624 843 q 1494 797 1538 824 q 1406 571 1406 743 l 1406 306 q 1361 100 1406 157 q 1217 6 1308 33 q 913 -31 1093 -31 q 608 -12 733 -31 q 417 33 483 7 q 314 101 351 60 q 267 173 276 142 q 258 246 258 204 l 258 693 q 217 808 258 772 q 108 843 176 843 l 56 843 l 56 903 l 974 903 l 974 843 l 951 843 q 842 808 883 843 q 801 693 801 772 l 801 232 q 838 88 801 132 q 972 43 875 43 q 1140 58 1068 43 q 1249 103 1213 74 q 1301 165 1286 132 q 1315 242 1315 197 l 1315 571 q 1295 691 1315 639 q 1247 771 1275 743 q 1181 817 1219 799 q 1051 843 1119 843 l 1051 903 m 1240 1044 l 1240 994 l 1165 994 q 682 1019 790 994 q 535 1100 583 1042 q 481 1183 489 1153 l 476 1197 l 881 1197 q 1013 1081 938 1117 q 1240 1044 1089 1044 m 353 843 l 353 292 q 410 133 353 169 q 443 122 428 122 l 443 843 l 353 843 m 807 1049 l 807 1054 q 726 1095 768 1067 q 667 1158 683 1124 l 578 1158 q 807 1049 647 1057 z "},"":{"ha":1690,"x_min":56,"x_max":1683,"o":"m 1051 903 l 1683 903 l 1683 843 q 1581 833 1624 843 q 1494 797 1538 824 q 1406 571 1406 743 l 1406 306 q 1361 100 1406 157 q 1217 6 1308 33 q 913 -31 1093 -31 q 608 -12 733 -31 q 417 33 483 7 q 314 101 351 60 q 267 173 276 142 q 258 246 258 204 l 258 693 q 217 808 258 772 q 108 843 176 843 l 56 843 l 56 903 l 974 903 l 974 843 l 951 843 q 842 808 883 843 q 801 693 801 772 l 801 232 q 838 88 801 132 q 972 43 875 43 q 1140 58 1068 43 q 1249 103 1213 74 q 1301 165 1286 132 q 1315 242 1315 197 l 1315 571 q 1295 691 1315 639 q 1247 771 1275 743 q 1181 817 1219 799 q 1051 843 1119 843 l 1051 903 m 593 994 l 518 994 l 518 1044 q 745 1081 669 1044 q 878 1197 821 1117 l 1282 1197 q 1261 1150 1278 1179 q 1224 1099 1244 1121 q 1164 1053 1203 1076 q 1076 1019 1125 1031 q 593 994 968 994 m 353 843 l 353 292 q 410 133 353 169 q 443 122 428 122 l 443 843 l 353 843 m 793 1054 l 793 1049 q 1022 1158 953 1057 l 933 1158 q 874 1095 917 1124 q 793 1054 832 1067 z "},"":{"ha":1690,"x_min":56,"x_max":1683,"o":"m 1051 903 l 1683 903 l 1683 843 q 1581 833 1624 843 q 1494 797 1538 824 q 1406 571 1406 743 l 1406 306 q 1361 100 1406 157 q 1217 6 1308 33 q 913 -31 1093 -31 q 608 -12 733 -31 q 417 33 483 7 q 314 101 351 60 q 267 173 276 142 q 258 246 258 204 l 258 693 q 217 808 258 772 q 108 843 176 843 l 56 843 l 56 903 l 974 903 l 974 843 l 951 843 q 842 808 883 843 q 801 693 801 772 l 801 232 q 838 88 801 132 q 972 43 875 43 q 1140 58 1068 43 q 1249 103 1213 74 q 1301 165 1286 132 q 1315 242 1315 197 l 1315 571 q 1295 691 1315 639 q 1247 771 1275 743 q 1181 817 1219 799 q 1051 843 1119 843 l 1051 903 m 683 1197 l 1133 1197 l 1318 994 l 1197 994 l 1054 1150 l 910 994 l 497 994 l 683 1197 m 353 843 l 353 292 q 410 133 353 169 q 443 122 428 122 l 443 843 l 353 843 m 842 1163 l 756 1163 l 651 1047 l 738 1047 l 842 1163 z "},"":{"ha":1690,"x_min":56,"x_max":1683,"o":"m 1051 903 l 1683 903 l 1683 843 q 1581 833 1624 843 q 1494 797 1538 824 q 1406 571 1406 743 l 1406 306 q 1361 100 1406 157 q 1217 6 1308 33 q 913 -31 1093 -31 q 608 -12 733 -31 q 417 33 483 7 q 314 101 351 60 q 267 173 276 142 q 258 246 258 204 l 258 693 q 217 808 258 772 q 108 843 176 843 l 56 843 l 56 903 l 974 903 l 974 843 l 951 843 q 842 808 883 843 q 801 693 801 772 l 801 232 q 838 88 801 132 q 972 43 875 43 q 1140 58 1068 43 q 1249 103 1213 74 q 1301 165 1286 132 q 1315 242 1315 197 l 1315 571 q 1295 691 1315 639 q 1247 771 1275 743 q 1181 817 1219 799 q 1051 843 1119 843 l 1051 903 m 740 1221 q 768 1197 740 1221 q 796 1108 796 1174 q 740 997 796 1043 q 606 951 685 951 q 471 997 526 951 q 415 1108 415 1043 q 471 1221 415 1174 q 606 1268 526 1268 q 740 1221 685 1268 m 1374 1221 q 1401 1197 1374 1221 q 1429 1108 1429 1174 q 1374 997 1429 1043 q 1239 951 1318 951 q 1104 997 1160 951 q 1049 1108 1049 1043 q 1104 1221 1049 1174 q 1239 1268 1160 1268 q 1374 1221 1318 1268 m 353 843 l 353 292 q 410 133 353 169 q 443 122 428 122 l 443 843 l 353 843 m 567 988 q 524 1108 524 1035 q 567 1229 524 1182 l 563 1233 q 493 1181 519 1215 q 467 1108 467 1147 q 493 1035 467 1069 q 563 983 519 1001 l 567 988 m 1200 988 q 1157 1108 1157 1035 q 1200 1229 1157 1182 l 1196 1233 q 1126 1181 1153 1215 q 1100 1108 1100 1147 q 1126 1035 1100 1069 q 1196 983 1153 1001 l 1200 988 z "},"":{"ha":1818,"x_min":-19,"x_max":1838,"o":"m 1111 903 l 1838 903 l 1838 843 l 1746 843 l 1136 404 l 1136 210 q 1178 96 1136 132 q 1288 60 1219 60 l 1456 60 l 1456 0 l 274 0 l 274 60 l 443 60 q 552 96 511 60 q 593 210 593 132 l 593 375 l 121 843 l -19 843 l -19 903 l 1021 903 l 1021 843 l 982 843 q 933 825 951 843 q 915 779 915 807 q 957 692 915 732 l 1136 514 l 1218 581 q 1318 742 1318 661 q 1282 815 1318 786 q 1181 843 1246 843 l 1111 843 l 1111 903 m 688 60 l 778 60 l 778 425 l 354 843 l 244 843 l 688 406 l 688 60 m 667 994 l 592 994 l 592 1044 q 819 1081 743 1044 q 951 1197 894 1117 l 1356 1197 q 1335 1150 1351 1179 q 1297 1099 1318 1121 q 1238 1053 1276 1076 q 1150 1019 1199 1031 q 667 994 1042 994 m 867 1054 l 867 1049 q 1096 1158 1026 1057 l 1007 1158 q 948 1095 990 1124 q 867 1054 906 1067 z "},"":{"ha":2010,"x_min":101,"x_max":1990,"o":"m 1033 260 l 1174 260 q 1358 340 1285 260 q 1401 452 1401 386 q 1358 564 1401 518 q 1174 644 1286 644 l 1033 644 q 984 624 1004 644 q 964 574 964 603 l 964 329 q 984 281 964 301 q 1033 260 1004 260 m 1566 340 q 1586 367 1566 340 q 1606 453 1606 394 q 1566 566 1606 511 q 1472 640 1526 621 l 1465 636 q 1510 453 1510 568 q 1465 269 1510 338 l 1472 265 q 1566 340 1526 285 m 963 843 l 963 801 q 981 729 963 751 q 1039 707 1000 707 l 1501 707 q 1990 454 1990 707 q 1557 197 1990 197 l 1039 197 q 981 175 1000 197 q 963 103 963 153 l 963 60 l 1283 60 l 1283 0 l 101 0 l 101 60 l 271 60 q 381 96 339 60 q 422 210 422 132 l 422 690 q 378 798 422 753 q 271 843 333 843 l 101 843 l 101 903 l 1283 903 l 1283 843 l 963 843 m 606 60 l 606 843 l 515 843 l 515 60 l 606 60 z "},"":{"ha":1736,"x_min":101,"x_max":1736,"o":"m 1250 35 q 1367 242 1367 117 q 1236 458 1367 367 l 1231 451 q 1284 352 1267 413 q 1301 239 1301 292 q 1244 40 1301 122 l 1250 35 m 1283 738 q 1200 854 1283 807 l 1193 850 q 1217 756 1217 800 q 1142 597 1217 676 l 1149 593 q 1243 657 1203 619 q 1283 738 1283 694 m 460 550 l 460 60 l 531 60 l 531 563 q 622 826 531 744 l 619 836 q 460 550 460 749 m 374 182 l 374 594 q 336 679 374 643 q 249 715 299 715 l 101 715 l 101 775 l 397 775 q 967 964 551 964 q 1283 903 1151 964 q 1414 746 1414 843 q 1367 628 1414 686 q 1232 533 1319 569 l 1232 526 q 1601 431 1465 508 q 1736 254 1736 354 q 1546 47 1736 125 q 1065 -31 1356 -31 q 918 -24 997 -31 l 925 35 q 1028 25 974 25 q 1176 88 1124 25 q 1228 249 1228 151 q 1161 415 1228 347 q 975 510 1094 483 l 975 549 q 1102 638 1058 582 q 1146 762 1146 694 q 1101 866 1146 829 q 995 903 1057 903 q 888 866 933 903 q 842 764 842 829 l 842 0 l 101 0 l 101 60 l 249 60 q 374 182 374 60 z "},"":{"ha":1650,"x_min":-19,"x_max":1668,"o":"m 1668 60 l 1668 0 l 774 0 l 774 60 l 865 60 q 913 72 894 60 q 931 110 931 83 q 899 176 931 136 l 856 231 l 336 231 q 304 138 304 176 q 328 80 304 100 q 389 60 351 60 l 503 60 l 503 0 l -19 0 l -19 60 q 102 83 47 60 q 178 131 157 107 l 200 154 l 553 606 l 514 654 q 483 689 494 678 q 371 715 451 715 l 274 715 l 274 775 l 956 775 l 1531 60 l 1668 60 m 588 715 l 1117 60 l 1200 60 l 672 715 l 588 715 m 592 560 l 381 288 l 810 288 l 592 560 m 1028 917 l 1028 867 l 953 867 q 469 892 578 867 q 322 972 371 914 q 268 1056 276 1025 l 264 1069 l 668 1069 q 801 953 725 989 q 1028 917 876 917 m 594 921 l 594 926 q 513 967 556 939 q 454 1031 471 996 l 365 1031 q 594 921 435 929 z "},"":{"ha":1650,"x_min":-19,"x_max":1668,"o":"m 1668 60 l 1668 0 l 774 0 l 774 60 l 865 60 q 913 72 894 60 q 931 110 931 83 q 899 176 931 136 l 856 231 l 336 231 q 304 138 304 176 q 328 80 304 100 q 389 60 351 60 l 503 60 l 503 0 l -19 0 l -19 60 q 102 83 47 60 q 178 131 157 107 l 200 154 l 553 606 l 514 654 q 483 689 494 678 q 371 715 451 715 l 274 715 l 274 775 l 956 775 l 1531 60 l 1668 60 m 588 715 l 1117 60 l 1200 60 l 672 715 l 588 715 m 592 560 l 381 288 l 810 288 l 592 560 m 400 867 l 325 867 l 325 917 q 552 953 476 917 q 685 1069 628 989 l 1089 1069 q 1068 1022 1085 1051 q 1031 971 1051 993 q 971 926 1010 949 q 883 892 932 903 q 400 867 775 867 m 600 926 l 600 921 q 829 1031 760 929 l 740 1031 q 681 967 724 996 q 600 926 639 939 z "},"":{"ha":1650,"x_min":-19,"x_max":1668,"o":"m 1668 60 l 1668 0 l 774 0 l 774 60 l 865 60 q 913 72 894 60 q 931 110 931 83 q 899 176 931 136 l 856 231 l 336 231 q 304 138 304 176 q 328 80 304 100 q 389 60 351 60 l 503 60 l 503 0 l -19 0 l -19 60 q 102 83 47 60 q 178 131 157 107 l 200 154 l 553 606 l 514 654 q 483 689 494 678 q 371 715 451 715 l 274 715 l 274 775 l 956 775 l 1531 60 l 1668 60 m 588 715 l 1117 60 l 1200 60 l 672 715 l 588 715 m 592 560 l 381 288 l 810 288 l 592 560 m 418 1069 l 868 1069 l 1053 867 l 932 867 l 789 1022 l 644 867 l 232 867 l 418 1069 m 576 1035 l 490 1035 l 386 919 l 472 919 l 576 1035 z "},"":{"ha":1650,"x_min":-19,"x_max":1668,"o":"m 1668 60 l 1668 0 l 774 0 l 774 60 l 865 60 q 913 72 894 60 q 931 110 931 83 q 899 176 931 136 l 856 231 l 336 231 q 304 138 304 176 q 328 80 304 100 q 389 60 351 60 l 503 60 l 503 0 l -19 0 l -19 60 q 102 83 47 60 q 178 131 157 107 l 200 154 l 553 606 l 514 654 q 483 689 494 678 q 371 715 451 715 l 274 715 l 274 775 l 956 775 l 1531 60 l 1668 60 m 588 715 l 1117 60 l 1200 60 l 672 715 l 588 715 m 592 560 l 381 288 l 810 288 l 592 560 m 1050 968 q 888 947 985 947 q 667 978 790 947 q 478 1008 544 1008 q 365 967 413 1008 l 369 961 q 439 968 401 968 q 619 933 476 968 q 869 899 761 899 q 1053 963 978 899 l 1050 968 m 1044 915 q 1027 901 1044 915 q 963 869 1011 888 q 829 851 914 851 q 610 885 744 851 q 390 919 476 919 q 304 868 325 919 l 265 868 q 356 1015 271 936 q 567 1093 442 1093 q 811 1068 692 1093 q 1003 1043 931 1043 q 1106 1092 1076 1043 l 1151 1092 q 1110 989 1144 1036 q 1044 915 1076 942 z "},"":{"ha":1650,"x_min":-19,"x_max":1668,"o":"m 1668 60 l 1668 0 l 774 0 l 774 60 l 865 60 q 913 72 894 60 q 931 110 931 83 q 899 176 931 136 l 856 231 l 336 231 q 304 138 304 176 q 328 80 304 100 q 389 60 351 60 l 503 60 l 503 0 l -19 0 l -19 60 q 102 83 47 60 q 178 131 157 107 l 200 154 l 553 606 l 514 654 q 483 689 494 678 q 371 715 451 715 l 274 715 l 274 775 l 956 775 l 1531 60 l 1668 60 m 588 715 l 1117 60 l 1200 60 l 672 715 l 588 715 m 592 560 l 381 288 l 810 288 l 592 560 m 1132 1093 q 1160 1069 1132 1093 q 1188 981 1188 1046 q 1132 869 1188 915 q 997 824 1076 824 q 863 869 918 824 q 807 981 807 915 q 863 1093 807 1046 q 997 1140 918 1140 q 1132 1093 1076 1140 m 499 1093 q 526 1069 499 1093 q 554 981 554 1046 q 499 869 554 915 q 364 824 443 824 q 229 869 285 824 q 174 981 174 915 q 229 1093 174 1046 q 364 1140 285 1140 q 499 1093 443 1140 m 325 860 q 282 981 282 907 q 325 1101 282 1054 l 321 1106 q 251 1053 278 1088 q 225 981 225 1019 q 251 908 225 942 q 321 856 278 874 l 325 860 m 958 860 q 915 981 915 907 q 958 1101 915 1054 l 954 1106 q 885 1053 911 1088 q 858 981 858 1019 q 885 908 858 942 q 954 856 911 874 l 958 860 z "},"":{"ha":1650,"x_min":-19,"x_max":1668,"o":"m 1668 60 l 1668 0 l 774 0 l 774 60 l 865 60 q 913 72 894 60 q 931 110 931 83 q 899 176 931 136 l 856 231 l 336 231 q 304 138 304 176 q 328 80 304 100 q 389 60 351 60 l 503 60 l 503 0 l -19 0 l -19 60 q 102 83 47 60 q 178 131 157 107 l 200 154 l 553 606 l 514 654 q 483 689 494 678 q 371 715 451 715 l 274 715 l 274 775 l 956 775 l 1531 60 l 1668 60 m 588 715 l 1117 60 l 1200 60 l 672 715 l 588 715 m 592 560 l 381 288 l 810 288 l 592 560 m 658 1078 q 649 1058 658 1078 q 639 981 639 1038 q 658 883 639 924 q 706 843 678 843 q 753 883 733 843 q 772 981 772 924 q 753 1078 772 1038 q 706 1118 733 1118 q 658 1078 678 1118 m 707 1164 q 752 1164 707 1164 q 862 1110 797 1164 q 926 980 926 1056 q 862 852 926 904 q 706 800 797 800 q 551 853 615 800 q 488 981 488 906 q 552 1110 488 1056 q 707 1164 617 1164 m 631 856 q 588 981 588 906 q 631 1106 588 1056 l 626 1110 q 558 1055 585 1090 q 532 981 532 1019 q 558 906 532 942 q 626 851 585 871 l 631 856 z "},"":{"ha":2165,"x_min":-19,"x_max":2054,"o":"m 1489 715 q 1395 685 1429 715 q 1361 604 1361 654 l 1361 549 q 1460 447 1361 447 q 1627 492 1539 447 q 1743 597 1715 538 l 1794 597 l 1794 231 l 1743 231 q 1629 331 1715 293 q 1460 369 1543 369 q 1361 268 1361 369 l 1361 175 q 1456 60 1361 60 l 1563 60 q 2014 258 1868 60 l 2054 258 l 2054 0 l 622 0 l 622 60 l 768 60 q 892 182 892 60 l 892 376 l 449 376 l 336 231 q 304 145 304 190 q 328 80 304 100 q 389 60 351 60 l 503 60 l 503 0 l -19 0 l -19 60 q 102 83 47 60 q 178 131 157 107 l 200 154 l 553 606 l 514 654 q 483 689 494 678 q 371 715 451 715 l 274 715 l 274 775 l 2054 775 l 2054 497 l 2014 497 q 1817 652 1947 589 q 1489 715 1688 715 m 768 715 l 711 715 l 499 440 l 892 440 l 892 592 q 856 678 892 642 q 768 715 819 715 m 978 60 l 1049 60 l 1049 715 l 978 715 l 978 60 z "},"":{"ha":1310,"x_min":31,"x_max":1292,"o":"m 331 -110 l 385 -110 q 465 -203 407 -164 q 574 -243 522 -243 q 656 -219 625 -243 q 686 -146 686 -194 q 579 -18 686 -56 q 299 49 418 1 q 105 185 179 97 q 31 385 31 272 q 96 581 31 497 q 268 711 161 664 q 751 806 482 806 q 1172 721 932 806 l 1172 776 l 1238 776 l 1238 488 l 1175 488 q 992 658 1115 571 q 746 746 868 746 q 571 576 571 746 l 571 250 q 622 78 571 131 q 784 26 672 26 q 984 49 896 26 q 1122 99 1072 72 q 1210 148 1171 125 q 1260 171 1249 171 q 1292 143 1292 171 q 1167 44 1292 108 q 829 -29 1028 -24 q 978 -185 978 -87 q 654 -310 978 -310 q 331 -261 461 -310 l 331 -110 m 401 64 q 244 202 304 119 q 183 388 183 285 q 244 574 183 492 q 401 713 304 657 l 399 718 q 190 579 272 667 q 107 388 107 492 q 190 197 107 283 q 399 58 272 110 l 401 64 m 769 -149 q 752 -210 769 -181 q 707 -253 735 -239 l 711 -261 q 799 -217 758 -249 q 839 -149 839 -186 q 711 -33 839 -75 l 706 -42 q 769 -149 769 -81 z "},"":{"ha":1644,"x_min":101,"x_max":1533,"o":"m 968 715 q 874 685 908 715 q 840 604 840 654 l 840 549 q 939 447 840 447 q 1106 492 1018 447 q 1222 597 1194 538 l 1274 597 l 1274 231 l 1222 231 q 1108 331 1194 293 q 939 369 1022 369 q 840 268 840 369 l 840 175 q 935 60 840 60 l 1042 60 q 1493 258 1347 60 l 1533 258 l 1533 0 l 101 0 l 101 60 l 247 60 q 371 182 371 60 l 371 592 q 335 678 371 642 q 247 715 299 715 l 101 715 l 101 775 l 1533 775 l 1533 497 l 1493 497 q 1297 652 1426 589 q 968 715 1167 715 m 457 60 l 528 60 l 528 715 l 457 715 l 457 60 m 1204 917 l 1204 867 l 1129 867 q 646 892 754 867 q 499 972 547 914 q 444 1056 453 1025 l 440 1069 l 844 1069 q 977 953 901 989 q 1204 917 1053 917 m 771 921 l 771 926 q 690 967 732 939 q 631 1031 647 996 l 542 1031 q 771 921 611 929 z "},"":{"ha":1644,"x_min":101,"x_max":1533,"o":"m 968 715 q 874 685 908 715 q 840 604 840 654 l 840 549 q 939 447 840 447 q 1106 492 1018 447 q 1222 597 1194 538 l 1274 597 l 1274 231 l 1222 231 q 1108 331 1194 293 q 939 369 1022 369 q 840 268 840 369 l 840 175 q 935 60 840 60 l 1042 60 q 1493 258 1347 60 l 1533 258 l 1533 0 l 101 0 l 101 60 l 247 60 q 371 182 371 60 l 371 592 q 335 678 371 642 q 247 715 299 715 l 101 715 l 101 775 l 1533 775 l 1533 497 l 1493 497 q 1297 652 1426 589 q 968 715 1167 715 m 457 60 l 528 60 l 528 715 l 457 715 l 457 60 m 613 867 l 538 867 l 538 917 q 765 953 689 917 q 897 1069 840 989 l 1301 1069 q 1281 1022 1297 1051 q 1243 971 1264 993 q 1183 926 1222 949 q 1096 892 1144 903 q 613 867 988 867 m 813 926 l 813 921 q 1042 1031 972 929 l 953 1031 q 894 967 936 996 q 813 926 851 939 z "},"":{"ha":1644,"x_min":101,"x_max":1533,"o":"m 968 715 q 874 685 908 715 q 840 604 840 654 l 840 549 q 939 447 840 447 q 1106 492 1018 447 q 1222 597 1194 538 l 1274 597 l 1274 231 l 1222 231 q 1108 331 1194 293 q 939 369 1022 369 q 840 268 840 369 l 840 175 q 935 60 840 60 l 1042 60 q 1493 258 1347 60 l 1533 258 l 1533 0 l 101 0 l 101 60 l 247 60 q 371 182 371 60 l 371 592 q 335 678 371 642 q 247 715 299 715 l 101 715 l 101 775 l 1533 775 l 1533 497 l 1493 497 q 1297 652 1426 589 q 968 715 1167 715 m 457 60 l 528 60 l 528 715 l 457 715 l 457 60 m 689 1069 l 1139 1069 l 1324 867 l 1203 867 l 1060 1022 l 915 867 l 503 867 l 689 1069 m 847 1035 l 761 1035 l 657 919 l 743 919 l 847 1035 z "},"":{"ha":1644,"x_min":101,"x_max":1533,"o":"m 968 715 q 874 685 908 715 q 840 604 840 654 l 840 549 q 939 447 840 447 q 1106 492 1018 447 q 1222 597 1194 538 l 1274 597 l 1274 231 l 1222 231 q 1108 331 1194 293 q 939 369 1022 369 q 840 268 840 369 l 840 175 q 935 60 840 60 l 1042 60 q 1493 258 1347 60 l 1533 258 l 1533 0 l 101 0 l 101 60 l 247 60 q 371 182 371 60 l 371 592 q 335 678 371 642 q 247 715 299 715 l 101 715 l 101 775 l 1533 775 l 1533 497 l 1493 497 q 1297 652 1426 589 q 968 715 1167 715 m 457 60 l 528 60 l 528 715 l 457 715 l 457 60 m 1371 1093 q 1399 1069 1371 1093 q 1426 981 1426 1046 q 1371 869 1426 915 q 1236 824 1315 824 q 1101 869 1157 824 q 1046 981 1046 915 q 1101 1093 1046 1046 q 1236 1140 1157 1140 q 1371 1093 1315 1140 m 738 1093 q 765 1069 738 1093 q 793 981 793 1046 q 738 869 793 915 q 603 824 682 824 q 468 869 524 824 q 413 981 413 915 q 468 1093 413 1046 q 603 1140 524 1140 q 738 1093 682 1140 m 564 860 q 521 981 521 907 q 564 1101 521 1054 l 560 1106 q 490 1053 517 1088 q 464 981 464 1019 q 490 908 464 942 q 560 856 517 874 l 564 860 m 1197 860 q 1154 981 1154 907 q 1197 1101 1154 1054 l 1193 1106 q 1124 1053 1150 1088 q 1097 981 1097 1019 q 1124 908 1097 942 q 1193 856 1150 874 l 1197 860 z "},"":{"ha":1224,"x_min":101,"x_max":1114,"o":"m 842 182 q 967 60 842 60 l 1114 60 l 1114 0 l 101 0 l 101 60 l 249 60 q 374 182 374 60 l 374 590 q 337 678 374 640 q 249 715 300 715 l 101 715 l 101 775 l 1114 775 l 1114 715 l 967 715 q 878 678 915 715 q 842 590 842 640 l 842 182 m 531 715 l 460 715 l 460 60 l 531 60 l 531 715 m 993 917 l 993 867 l 918 867 q 435 892 543 867 q 288 972 336 914 q 233 1056 242 1025 l 229 1069 l 633 1069 q 766 953 690 989 q 993 917 842 917 m 560 921 l 560 926 q 478 967 521 939 q 419 1031 436 996 l 331 1031 q 560 921 400 929 z "},"":{"ha":1224,"x_min":101,"x_max":1114,"o":"m 842 182 q 967 60 842 60 l 1114 60 l 1114 0 l 101 0 l 101 60 l 249 60 q 374 182 374 60 l 374 590 q 337 678 374 640 q 249 715 300 715 l 101 715 l 101 775 l 1114 775 l 1114 715 l 967 715 q 878 678 915 715 q 842 590 842 640 l 842 182 m 531 715 l 460 715 l 460 60 l 531 60 l 531 715 m 304 867 l 229 867 l 229 917 q 456 953 381 917 q 589 1069 532 989 l 993 1069 q 972 1022 989 1051 q 935 971 956 993 q 875 926 914 949 q 788 892 836 903 q 304 867 679 867 m 504 926 l 504 921 q 733 1031 664 929 l 644 1031 q 585 967 628 996 q 504 926 543 939 z "},"":{"ha":1224,"x_min":101,"x_max":1114,"o":"m 842 182 q 967 60 842 60 l 1114 60 l 1114 0 l 101 0 l 101 60 l 249 60 q 374 182 374 60 l 374 590 q 337 678 374 640 q 249 715 300 715 l 101 715 l 101 775 l 1114 775 l 1114 715 l 967 715 q 878 678 915 715 q 842 590 842 640 l 842 182 m 531 715 l 460 715 l 460 60 l 531 60 l 531 715 m 388 1069 l 838 1069 l 1022 867 l 901 867 l 758 1022 l 614 867 l 201 867 l 388 1069 m 546 1035 l 460 1035 l 356 919 l 442 919 l 546 1035 z "},"":{"ha":1224,"x_min":101,"x_max":1119,"o":"m 842 182 q 967 60 842 60 l 1114 60 l 1114 0 l 101 0 l 101 60 l 249 60 q 374 182 374 60 l 374 590 q 337 678 374 640 q 249 715 300 715 l 101 715 l 101 775 l 1114 775 l 1114 715 l 967 715 q 878 678 915 715 q 842 590 842 640 l 842 182 m 531 715 l 460 715 l 460 60 l 531 60 l 531 715 m 1064 1093 q 1092 1069 1064 1093 q 1119 981 1119 1046 q 1064 869 1119 915 q 929 824 1008 824 q 794 869 850 824 q 739 981 739 915 q 794 1093 739 1046 q 929 1140 850 1140 q 1064 1093 1008 1140 m 431 1093 q 458 1069 431 1093 q 486 981 486 1046 q 431 869 486 915 q 296 824 375 824 q 161 869 217 824 q 106 981 106 915 q 161 1093 106 1046 q 296 1140 217 1140 q 431 1093 375 1140 m 257 860 q 214 981 214 907 q 257 1101 214 1054 l 253 1106 q 183 1053 210 1088 q 157 981 157 1019 q 183 908 157 942 q 253 856 210 874 l 257 860 m 890 860 q 847 981 847 907 q 890 1101 847 1054 l 886 1106 q 817 1053 843 1088 q 790 981 790 1019 q 817 908 790 942 q 886 856 843 874 l 890 860 z "},"":{"ha":1589,"x_min":31,"x_max":1575,"o":"m 1533 500 q 1356 136 1533 290 q 1124 15 1269 60 q 783 -31 979 -31 q 411 19 588 -31 q 133 155 235 69 q 31 340 31 240 q 242 606 31 497 q 794 715 454 715 q 1028 694 907 715 q 1001 840 1028 778 l 825 811 l 825 894 l 951 915 q 758 981 883 981 q 557 932 664 981 q 389 835 450 883 l 329 786 l 281 786 l 281 1006 l 329 1006 l 329 954 q 833 1040 610 1040 q 1219 969 1057 1040 l 1575 1040 l 1575 957 l 1328 907 q 1533 500 1533 761 m 989 578 q 962 616 989 578 q 794 654 935 654 q 600 578 654 654 q 546 344 546 501 q 610 108 546 188 q 794 29 675 29 q 978 108 914 29 q 1043 344 1043 188 q 989 578 1043 501 m 1065 913 q 1131 501 1131 713 q 1064 86 1131 290 l 1069 81 q 1226 501 1226 249 q 1071 918 1226 754 l 1065 913 m 536 40 q 278 156 376 76 q 181 341 181 236 q 278 526 181 446 q 538 642 376 606 l 535 649 q 209 531 332 613 q 86 340 86 449 q 209 150 86 232 q 533 31 332 68 l 536 40 z "},"":{"ha":1861,"x_min":32,"x_max":1818,"o":"m 1196 715 l 1196 775 l 1818 775 l 1818 715 q 1549 489 1549 715 l 1549 -50 l 1436 -50 l 614 447 q 557 464 581 464 q 503 385 503 464 l 503 332 q 538 205 503 260 q 631 119 574 150 q 874 60 742 60 l 874 0 l 46 0 l 46 60 q 290 119 179 60 q 383 205 347 150 q 418 332 418 260 l 418 454 q 301 642 418 569 q 32 715 185 715 l 32 775 l 922 775 l 1332 517 l 1349 507 q 1383 486 1365 497 q 1443 460 1428 460 q 1465 489 1465 460 q 1196 715 1465 715 m 461 715 l 461 657 l 1435 53 l 1435 128 l 486 715 l 461 715 m 1272 968 q 1110 947 1207 947 q 890 978 1013 947 q 701 1008 767 1008 q 588 967 635 1008 l 592 961 q 661 968 624 968 q 841 933 699 968 q 1092 899 983 899 q 1275 963 1200 899 l 1272 968 m 1266 915 q 1250 901 1266 915 q 1185 869 1233 888 q 1051 851 1136 851 q 833 885 967 851 q 613 919 699 919 q 526 868 547 919 l 488 868 q 578 1015 493 936 q 789 1093 664 1093 q 1033 1068 914 1093 q 1226 1043 1153 1043 q 1328 1092 1299 1043 l 1374 1092 q 1333 989 1367 1036 q 1266 915 1299 942 z "},"":{"ha":1589,"x_min":31,"x_max":1557,"o":"m 1557 389 q 1455 178 1557 275 q 1178 26 1353 82 q 795 -31 1003 -31 q 412 26 588 -31 q 133 178 236 82 q 31 389 31 275 q 242 685 31 565 q 794 806 453 806 q 1347 685 1136 806 q 1557 389 1557 565 m 989 658 q 962 701 989 658 q 794 744 935 744 q 600 658 654 744 q 546 392 546 572 q 610 120 546 211 q 794 29 675 29 q 978 120 914 29 q 1043 392 1043 211 q 989 658 1043 572 m 536 40 q 278 174 376 82 q 181 388 181 267 q 278 601 181 510 q 538 736 376 693 l 535 744 q 209 608 332 703 q 86 388 86 514 q 209 168 86 263 q 533 31 332 74 l 536 40 m 1065 722 q 1131 389 1131 558 q 1064 53 1131 219 l 1069 49 q 1226 388 1226 183 q 1071 726 1226 593 l 1065 722 m 1176 917 l 1176 867 l 1101 867 q 618 892 726 867 q 471 972 519 914 q 417 1056 425 1025 l 413 1069 l 817 1069 q 949 953 874 989 q 1176 917 1025 917 m 743 921 l 743 926 q 662 967 704 939 q 603 1031 619 996 l 514 1031 q 743 921 583 929 z "},"":{"ha":1589,"x_min":31,"x_max":1557,"o":"m 1557 389 q 1455 178 1557 275 q 1178 26 1353 82 q 795 -31 1003 -31 q 412 26 588 -31 q 133 178 236 82 q 31 389 31 275 q 242 685 31 565 q 794 806 453 806 q 1347 685 1136 806 q 1557 389 1557 565 m 989 658 q 962 701 989 658 q 794 744 935 744 q 600 658 654 744 q 546 392 546 572 q 610 120 546 211 q 794 29 675 29 q 978 120 914 29 q 1043 392 1043 211 q 989 658 1043 572 m 536 40 q 278 174 376 82 q 181 388 181 267 q 278 601 181 510 q 538 736 376 693 l 535 744 q 209 608 332 703 q 86 388 86 514 q 209 168 86 263 q 533 31 332 74 l 536 40 m 1065 722 q 1131 389 1131 558 q 1064 53 1131 219 l 1069 49 q 1226 388 1226 183 q 1071 726 1226 593 l 1065 722 m 488 867 l 413 867 l 413 917 q 640 953 564 917 q 772 1069 715 989 l 1176 1069 q 1156 1022 1172 1051 q 1118 971 1139 993 q 1058 926 1097 949 q 971 892 1019 903 q 488 867 863 867 m 688 926 l 688 921 q 917 1031 847 929 l 828 1031 q 769 967 811 996 q 688 926 726 939 z "},"":{"ha":1589,"x_min":31,"x_max":1557,"o":"m 1557 389 q 1455 178 1557 275 q 1178 26 1353 82 q 795 -31 1003 -31 q 412 26 588 -31 q 133 178 236 82 q 31 389 31 275 q 242 685 31 565 q 794 806 453 806 q 1347 685 1136 806 q 1557 389 1557 565 m 989 658 q 962 701 989 658 q 794 744 935 744 q 600 658 654 744 q 546 392 546 572 q 610 120 546 211 q 794 29 675 29 q 978 120 914 29 q 1043 392 1043 211 q 989 658 1043 572 m 536 40 q 278 174 376 82 q 181 388 181 267 q 278 601 181 510 q 538 736 376 693 l 535 744 q 209 608 332 703 q 86 388 86 514 q 209 168 86 263 q 533 31 332 74 l 536 40 m 1065 722 q 1131 389 1131 558 q 1064 53 1131 219 l 1069 49 q 1226 388 1226 183 q 1071 726 1226 593 l 1065 722 m 571 1069 l 1021 1069 l 1206 867 l 1085 867 l 942 1022 l 797 867 l 385 867 l 571 1069 m 729 1035 l 643 1035 l 539 919 l 625 919 l 729 1035 z "},"":{"ha":1589,"x_min":31,"x_max":1557,"o":"m 1557 389 q 1455 178 1557 275 q 1178 26 1353 82 q 795 -31 1003 -31 q 412 26 588 -31 q 133 178 236 82 q 31 389 31 275 q 242 685 31 565 q 794 806 453 806 q 1347 685 1136 806 q 1557 389 1557 565 m 989 658 q 962 701 989 658 q 794 744 935 744 q 600 658 654 744 q 546 392 546 572 q 610 120 546 211 q 794 29 675 29 q 978 120 914 29 q 1043 392 1043 211 q 989 658 1043 572 m 536 40 q 278 174 376 82 q 181 388 181 267 q 278 601 181 510 q 538 736 376 693 l 535 744 q 209 608 332 703 q 86 388 86 514 q 209 168 86 263 q 533 31 332 74 l 536 40 m 1065 722 q 1131 389 1131 558 q 1064 53 1131 219 l 1069 49 q 1226 388 1226 183 q 1071 726 1226 593 l 1065 722 m 1136 968 q 974 947 1071 947 q 753 978 876 947 q 565 1008 631 1008 q 451 967 499 1008 l 456 961 q 525 968 488 968 q 705 933 563 968 q 956 899 847 899 q 1139 963 1064 899 l 1136 968 m 1130 915 q 1114 901 1130 915 q 1049 869 1097 888 q 915 851 1000 851 q 697 885 831 851 q 476 919 563 919 q 390 868 411 919 l 351 868 q 442 1015 357 936 q 653 1093 528 1093 q 897 1068 778 1093 q 1090 1043 1017 1043 q 1192 1092 1163 1043 l 1238 1092 q 1197 989 1231 1036 q 1130 915 1163 942 z "},"":{"ha":1589,"x_min":31,"x_max":1557,"o":"m 1557 389 q 1455 178 1557 275 q 1178 26 1353 82 q 795 -31 1003 -31 q 412 26 588 -31 q 133 178 236 82 q 31 389 31 275 q 242 685 31 565 q 794 806 453 806 q 1347 685 1136 806 q 1557 389 1557 565 m 989 658 q 962 701 989 658 q 794 744 935 744 q 600 658 654 744 q 546 392 546 572 q 610 120 546 211 q 794 29 675 29 q 978 120 914 29 q 1043 392 1043 211 q 989 658 1043 572 m 536 40 q 278 174 376 82 q 181 388 181 267 q 278 601 181 510 q 538 736 376 693 l 535 744 q 209 608 332 703 q 86 388 86 514 q 209 168 86 263 q 533 31 332 74 l 536 40 m 1065 722 q 1131 389 1131 558 q 1064 53 1131 219 l 1069 49 q 1226 388 1226 183 q 1071 726 1226 593 l 1065 722 m 1246 1093 q 1274 1069 1246 1093 q 1301 981 1301 1046 q 1246 869 1301 915 q 1111 824 1190 824 q 976 869 1032 824 q 921 981 921 915 q 976 1093 921 1046 q 1111 1140 1032 1140 q 1246 1093 1190 1140 m 613 1093 q 640 1069 613 1093 q 668 981 668 1046 q 613 869 668 915 q 478 824 557 824 q 343 869 399 824 q 288 981 288 915 q 343 1093 288 1046 q 478 1140 399 1140 q 613 1093 557 1140 m 439 860 q 396 981 396 907 q 439 1101 396 1054 l 435 1106 q 365 1053 392 1088 q 339 981 339 1019 q 365 908 339 942 q 435 856 392 874 l 439 860 m 1072 860 q 1029 981 1029 907 q 1072 1101 1029 1054 l 1068 1106 q 999 1053 1025 1088 q 972 981 972 1019 q 999 908 972 942 q 1068 856 1025 874 l 1072 860 z "},"":{"ha":1028,"x_min":139,"x_max":889,"o":"m 617 292 q 638 275 617 292 q 660 213 660 258 q 617 134 660 167 q 514 101 574 101 q 411 134 454 101 q 368 213 368 167 q 411 292 368 258 q 514 325 454 325 q 617 292 574 325 m 617 804 q 638 788 617 804 q 660 725 660 771 q 617 647 660 679 q 514 614 574 614 q 411 647 454 614 q 368 725 368 679 q 411 804 368 771 q 514 838 454 838 q 617 804 574 838 m 889 525 l 889 414 l 139 414 l 139 525 l 889 525 z "},"":{"ha":1589,"x_min":31,"x_max":1557,"o":"m 31 389 q 242 685 31 565 q 794 806 453 806 q 997 792 890 806 l 1032 854 l 1104 854 l 1063 782 q 1424 633 1292 740 q 1557 389 1557 525 q 1455 178 1557 275 q 1178 26 1353 82 q 794 -31 1003 -31 q 607 -17 707 -31 l 557 -107 l 485 -107 l 542 -7 q 173 144 315 36 q 31 389 31 253 m 794 744 q 600 658 654 744 q 546 389 546 572 q 613 117 546 206 l 946 703 q 794 744 892 744 m 794 29 q 978 120 914 29 q 1043 392 1043 211 q 990 656 1043 572 l 658 71 q 794 29 714 29 m 536 40 q 278 174 376 82 q 181 388 181 267 q 278 601 181 510 q 538 736 376 693 l 535 744 q 209 608 332 703 q 86 388 86 514 q 209 168 86 263 q 533 31 332 74 l 536 40 m 1065 722 q 1131 389 1131 558 q 1064 53 1131 219 l 1069 49 q 1226 388 1226 183 q 1071 726 1226 593 l 1065 722 z "},"":{"ha":1454,"x_min":56,"x_max":1447,"o":"m 903 775 l 1447 775 l 1447 715 q 1286 678 1350 715 q 1211 490 1211 635 l 1211 238 q 1154 64 1211 113 q 967 -19 1082 0 q 769 -31 894 -31 q 531 -14 643 -31 q 363 26 419 3 q 274 85 306 49 q 235 147 242 121 q 229 210 229 174 l 229 593 q 106 715 229 715 l 56 715 l 56 775 l 843 775 l 843 715 l 821 715 q 697 593 697 715 l 697 196 q 728 67 697 108 q 831 25 760 25 q 1063 73 1000 25 q 1126 204 1126 121 l 1126 490 q 1103 610 1126 561 q 1040 679 1079 658 q 903 715 972 715 l 903 775 m 385 715 l 317 715 l 317 246 q 361 119 317 158 q 385 106 371 111 l 385 715 m 1136 917 l 1136 867 l 1061 867 q 578 892 686 867 q 431 972 479 914 q 376 1056 385 1025 l 372 1069 l 776 1069 q 909 953 833 989 q 1136 917 985 917 m 703 921 l 703 926 q 622 967 664 939 q 563 1031 579 996 l 474 1031 q 703 921 543 929 z "},"":{"ha":1454,"x_min":56,"x_max":1447,"o":"m 903 775 l 1447 775 l 1447 715 q 1286 678 1350 715 q 1211 490 1211 635 l 1211 238 q 1154 64 1211 113 q 967 -19 1082 0 q 769 -31 894 -31 q 531 -14 643 -31 q 363 26 419 3 q 274 85 306 49 q 235 147 242 121 q 229 210 229 174 l 229 593 q 106 715 229 715 l 56 715 l 56 775 l 843 775 l 843 715 l 821 715 q 697 593 697 715 l 697 196 q 728 67 697 108 q 831 25 760 25 q 1063 73 1000 25 q 1126 204 1126 121 l 1126 490 q 1103 610 1126 561 q 1040 679 1079 658 q 903 715 972 715 l 903 775 m 385 715 l 317 715 l 317 246 q 361 119 317 158 q 385 106 371 111 l 385 715 m 503 867 l 428 867 l 428 917 q 655 953 579 917 q 788 1069 731 989 l 1192 1069 q 1171 1022 1188 1051 q 1133 971 1154 993 q 1074 926 1113 949 q 986 892 1035 903 q 503 867 878 867 m 703 926 l 703 921 q 932 1031 863 929 l 843 1031 q 784 967 826 996 q 703 926 742 939 z "},"":{"ha":1454,"x_min":56,"x_max":1447,"o":"m 903 775 l 1447 775 l 1447 715 q 1286 678 1350 715 q 1211 490 1211 635 l 1211 238 q 1154 64 1211 113 q 967 -19 1082 0 q 769 -31 894 -31 q 531 -14 643 -31 q 363 26 419 3 q 274 85 306 49 q 235 147 242 121 q 229 210 229 174 l 229 593 q 106 715 229 715 l 56 715 l 56 775 l 843 775 l 843 715 l 821 715 q 697 593 697 715 l 697 196 q 728 67 697 108 q 831 25 760 25 q 1063 73 1000 25 q 1126 204 1126 121 l 1126 490 q 1103 610 1126 561 q 1040 679 1079 658 q 903 715 972 715 l 903 775 m 385 715 l 317 715 l 317 246 q 361 119 317 158 q 385 106 371 111 l 385 715 m 551 1069 l 1001 1069 l 1186 867 l 1065 867 l 922 1022 l 778 867 l 365 867 l 551 1069 m 710 1035 l 624 1035 l 519 919 l 606 919 l 710 1035 z "},"":{"ha":1454,"x_min":56,"x_max":1447,"o":"m 903 775 l 1447 775 l 1447 715 q 1286 678 1350 715 q 1211 490 1211 635 l 1211 238 q 1154 64 1211 113 q 967 -19 1082 0 q 769 -31 894 -31 q 531 -14 643 -31 q 363 26 419 3 q 274 85 306 49 q 235 147 242 121 q 229 210 229 174 l 229 593 q 106 715 229 715 l 56 715 l 56 775 l 843 775 l 843 715 l 821 715 q 697 593 697 715 l 697 196 q 728 67 697 108 q 831 25 760 25 q 1063 73 1000 25 q 1126 204 1126 121 l 1126 490 q 1103 610 1126 561 q 1040 679 1079 658 q 903 715 972 715 l 903 775 m 385 715 l 317 715 l 317 246 q 361 119 317 158 q 385 106 371 111 l 385 715 m 1233 1093 q 1261 1069 1233 1093 q 1289 981 1289 1046 q 1233 869 1289 915 q 1099 824 1178 824 q 964 869 1019 824 q 908 981 908 915 q 964 1093 908 1046 q 1099 1140 1019 1140 q 1233 1093 1178 1140 m 600 1093 q 628 1069 600 1093 q 656 981 656 1046 q 600 869 656 915 q 465 824 544 824 q 331 869 386 824 q 275 981 275 915 q 331 1093 275 1046 q 465 1140 386 1140 q 600 1093 544 1140 m 426 860 q 383 981 383 907 q 426 1101 383 1054 l 422 1106 q 353 1053 379 1088 q 326 981 326 1019 q 353 908 326 942 q 422 856 379 874 l 426 860 m 1060 860 q 1017 981 1017 907 q 1060 1101 1017 1054 l 1056 1106 q 986 1053 1013 1088 q 960 981 960 1019 q 986 908 960 942 q 1056 856 1013 874 l 1060 860 z "},"":{"ha":1549,"x_min":-19,"x_max":1568,"o":"m 943 715 l 943 775 l 1568 775 l 1568 715 l 1488 715 l 971 346 l 971 182 q 1006 89 971 118 q 1096 60 1040 60 l 1243 60 l 1243 0 l 231 0 l 231 60 l 379 60 q 469 89 435 60 q 503 182 503 118 l 503 321 l 104 715 l -19 715 l -19 775 l 874 775 l 874 715 l 836 715 q 797 701 811 715 q 782 665 782 686 q 818 593 782 626 l 968 446 l 1033 500 q 1118 635 1118 571 q 1089 693 1118 671 q 1006 715 1060 715 l 943 715 m 658 60 l 658 374 l 311 715 l 219 715 l 590 349 l 590 60 l 658 60 m 536 867 l 461 867 l 461 917 q 688 953 613 917 q 821 1069 764 989 l 1225 1069 q 1204 1022 1221 1051 q 1167 971 1188 993 q 1107 926 1146 949 q 1019 892 1068 903 q 536 867 911 867 m 736 926 l 736 921 q 965 1031 896 929 l 876 1031 q 817 967 860 996 q 736 926 775 939 z "},"":{"ha":1735,"x_min":101,"x_max":1715,"o":"m 897 226 l 1017 226 q 1169 293 1110 226 q 1206 386 1206 332 q 1142 506 1206 467 q 1017 546 1079 546 l 897 546 q 858 529 874 546 q 842 489 842 513 l 842 282 q 858 242 842 258 q 897 226 875 226 m 1351 296 q 1366 317 1351 296 q 1381 386 1381 339 q 1351 476 1381 433 q 1281 538 1322 519 l 1275 533 q 1306 386 1306 479 q 1275 239 1306 293 l 1281 235 q 1351 296 1322 253 m 842 89 l 842 60 l 1114 60 l 1114 0 l 101 0 l 101 60 l 249 60 q 374 182 374 60 l 374 590 q 337 678 374 640 q 249 715 300 715 l 101 715 l 101 775 l 1114 775 l 1114 715 l 842 715 l 842 683 q 903 606 842 606 l 1294 606 q 1715 388 1715 606 q 1342 167 1715 167 l 903 167 q 842 89 842 167 m 531 60 l 531 715 l 460 715 l 460 60 l 531 60 z "},"":{"ha":1549,"x_min":-19,"x_max":1568,"o":"m 943 715 l 943 775 l 1568 775 l 1568 715 l 1488 715 l 971 346 l 971 182 q 1006 89 971 118 q 1096 60 1040 60 l 1243 60 l 1243 0 l 231 0 l 231 60 l 379 60 q 469 89 435 60 q 503 182 503 118 l 503 321 l 104 715 l -19 715 l -19 775 l 874 775 l 874 715 l 836 715 q 797 701 811 715 q 782 665 782 686 q 818 593 782 626 l 968 446 l 1033 500 q 1118 635 1118 571 q 1089 693 1118 671 q 1006 715 1060 715 l 943 715 m 658 60 l 658 374 l 311 715 l 219 715 l 590 349 l 590 60 l 658 60 m 1225 1093 q 1253 1069 1225 1093 q 1281 981 1281 1046 q 1225 869 1281 915 q 1090 824 1169 824 q 956 869 1011 824 q 900 981 900 915 q 956 1093 900 1046 q 1090 1140 1011 1140 q 1225 1093 1169 1140 m 592 1093 q 619 1069 592 1093 q 647 981 647 1046 q 592 869 647 915 q 457 824 536 824 q 322 869 378 824 q 267 981 267 915 q 322 1093 267 1046 q 457 1140 378 1140 q 592 1093 536 1140 m 418 860 q 375 981 375 907 q 418 1101 375 1054 l 414 1106 q 344 1053 371 1088 q 318 981 318 1019 q 344 908 318 942 q 414 856 371 874 l 418 860 m 1051 860 q 1008 981 1008 907 q 1051 1101 1008 1054 l 1047 1106 q 978 1053 1004 1088 q 951 981 951 1019 q 978 908 951 942 q 1047 856 1004 874 l 1051 860 z "},"":{"ha":1224,"x_min":101,"x_max":1114,"o":"m 842 590 l 842 182 q 967 60 842 60 l 1114 60 l 1114 0 l 101 0 l 101 60 l 249 60 q 374 182 374 60 l 374 590 q 337 678 374 640 q 249 715 300 715 l 101 715 l 101 775 l 1114 775 l 1114 715 l 967 715 q 878 678 915 715 q 842 590 842 640 m 531 60 l 531 715 l 460 715 l 460 60 l 531 60 z "},"":{"ha":1735,"x_min":101,"x_max":1717,"o":"m 961 690 l 961 588 l 1217 671 l 1217 560 l 961 476 l 961 210 q 1113 60 961 60 q 1367 124 1229 60 q 1519 229 1440 158 q 1669 400 1599 300 l 1717 400 l 1717 0 l 101 0 l 101 60 l 268 60 q 377 95 336 60 q 418 210 418 131 l 418 301 l 210 235 l 210 346 l 418 413 l 418 690 q 374 798 418 753 q 268 843 331 843 l 101 843 l 101 903 l 1344 903 l 1344 843 l 1113 843 q 1006 798 1050 843 q 961 690 961 753 m 603 60 l 603 843 l 513 843 l 513 60 l 603 60 z "},"":{"ha":1500,"x_min":101,"x_max":1481,"o":"m 840 590 l 840 513 l 1049 581 l 1049 469 l 840 401 l 840 182 q 965 58 840 58 q 1181 111 1067 58 q 1438 347 1321 178 l 1481 347 l 1481 0 l 101 0 l 101 60 l 247 60 q 371 182 371 60 l 371 250 l 163 183 l 163 294 l 371 361 l 371 590 q 334 678 371 640 q 247 715 297 715 l 101 715 l 101 775 l 1167 775 l 1167 715 l 965 715 q 877 678 914 715 q 840 590 840 640 m 458 60 l 528 60 l 528 715 l 458 715 l 458 60 z "},"":{"ha":2692,"x_min":31,"x_max":2581,"o":"m 933 60 l 1071 60 q 1222 210 1222 60 l 1222 690 q 1178 798 1222 753 q 1071 843 1133 843 l 933 843 q 708 749 771 843 q 646 457 646 654 q 721 160 646 260 q 933 60 796 60 m 2581 0 l 933 0 q 480 60 688 0 q 151 225 272 121 q 31 453 31 329 q 279 774 31 644 q 933 903 528 903 l 2581 903 l 2581 583 l 2540 583 q 2307 766 2460 692 q 1919 840 2154 840 q 1805 803 1847 840 q 1763 706 1763 765 l 1763 658 q 1885 517 1763 517 q 2084 569 1979 517 q 2222 693 2189 622 l 2274 693 l 2274 269 l 2222 269 q 2088 388 2190 343 q 1885 433 1985 433 q 1791 397 1819 433 q 1763 310 1763 361 l 1763 260 q 1784 106 1763 153 q 1882 60 1806 60 l 1917 60 q 2044 62 1994 60 q 2172 77 2094 64 q 2307 113 2250 90 q 2428 183 2364 136 q 2540 294 2492 229 l 2581 294 l 2581 0 m 535 89 q 207 452 207 219 q 540 815 207 685 l 539 821 q 220 668 335 761 q 106 451 106 575 q 533 83 106 214 l 535 89 m 1407 60 l 1407 843 l 1315 843 l 1315 60 l 1407 60 z "},"":{"ha":2408,"x_min":101,"x_max":2297,"o":"m 865 775 l 2297 775 l 2297 497 l 2257 497 q 2060 652 2190 589 q 1732 715 1931 715 q 1638 685 1672 715 q 1604 604 1604 654 l 1604 549 q 1703 447 1604 447 q 1870 492 1782 447 q 1986 597 1958 538 l 2038 597 l 2038 231 l 1986 231 q 1872 331 1958 293 q 1703 369 1786 369 q 1604 268 1604 369 l 1604 175 q 1699 60 1604 60 l 1806 60 q 2257 258 2111 60 l 2297 258 l 2297 0 l 865 0 q 483 52 658 0 q 204 194 307 104 q 101 390 101 285 q 312 665 101 554 q 865 775 522 775 m 607 71 q 349 194 447 110 q 251 391 251 279 q 349 587 251 503 q 608 710 447 671 l 606 718 q 280 592 403 679 q 157 390 157 506 q 279 188 157 275 q 604 61 401 101 l 607 71 m 1011 715 l 865 715 q 671 638 725 715 q 617 394 617 560 q 681 144 617 228 q 865 60 746 60 l 1011 60 q 1135 182 1135 60 l 1135 592 q 1099 678 1135 642 q 1011 715 1063 715 m 1221 60 l 1292 60 l 1292 715 l 1221 715 l 1221 60 z "},"":{"ha":1751,"x_min":131,"x_max":1619,"o":"m 133 621 q 157 733 133 683 q 215 815 181 783 q 309 870 250 847 q 418 905 368 893 q 544 922 468 917 q 790 931 657 931 q 1128 903 924 931 q 1479 843 1332 876 l 1504 903 l 1569 903 l 1569 610 l 1504 610 q 1201 779 1451 685 q 774 874 950 874 q 599 799 599 874 q 801 690 599 728 q 1000 657 892 674 q 1217 613 1108 640 q 1417 549 1326 586 q 1563 444 1507 511 q 1619 286 1619 376 q 1438 46 1619 121 q 894 -29 1256 -29 q 567 -3 713 -29 q 235 81 422 24 l 196 0 l 131 0 l 131 390 l 196 390 q 290 277 218 339 q 464 159 363 215 q 699 65 565 103 q 960 28 832 28 q 1192 97 1192 28 q 1083 177 1192 140 q 818 248 974 214 q 507 325 663 282 q 242 444 351 368 q 133 621 133 519 m 1357 128 q 1296 254 1357 208 q 1158 322 1232 301 q 1039 352 1083 342 q 922 378 994 363 q 769 412 849 393 q 607 456 689 431 q 442 522 525 482 q 246 735 271 603 l 236 736 q 218 639 218 696 q 333 474 218 543 q 860 300 469 390 q 994 268 946 279 q 1099 242 1043 257 q 1188 215 1156 228 q 1254 185 1221 203 q 1351 94 1313 153 l 1357 96 l 1357 128 m 1081 994 l 631 994 l 444 1197 l 857 1197 l 1001 1042 l 1144 1197 l 1265 1197 l 1081 994 m 703 1029 l 789 1029 l 685 1144 l 599 1144 l 703 1029 z "},"":{"ha":1535,"x_min":131,"x_max":1404,"o":"m 365 303 q 199 396 265 338 q 132 523 132 454 q 156 641 132 592 q 228 719 181 690 q 324 767 276 749 q 444 792 371 785 q 674 803 561 803 q 1278 719 958 803 q 1299 779 1279 726 l 1361 779 l 1361 514 l 1300 514 q 1008 678 1201 610 q 676 747 815 747 q 536 678 536 747 q 761 581 536 611 q 1179 489 983 549 q 1340 394 1275 458 q 1404 243 1404 331 q 840 -31 1404 -31 q 225 63 536 -31 l 193 -6 l 131 -6 l 131 333 l 193 333 q 272 238 211 290 q 419 138 333 185 q 617 58 504 90 q 839 26 731 26 q 1031 81 1031 26 q 797 185 1031 136 q 365 303 567 232 m 211 543 q 357 383 211 450 q 839 238 503 315 q 1053 178 989 203 q 1165 100 1118 153 q 1169 104 1165 103 q 1172 107 1172 106 q 1119 214 1172 176 q 1000 271 1061 254 q 903 296 939 288 q 803 317 867 304 q 703 339 740 331 q 239 614 244 444 l 229 614 q 211 543 211 582 m 972 867 l 522 867 l 336 1069 l 749 1069 l 893 914 l 1036 1069 l 1157 1069 l 972 867 m 594 901 l 681 901 l 576 1017 l 490 1017 l 594 901 z "},"":{"ha":1818,"x_min":-19,"x_max":1838,"o":"m 1111 903 l 1838 903 l 1838 843 l 1746 843 l 1136 404 l 1136 210 q 1178 96 1136 132 q 1288 60 1219 60 l 1456 60 l 1456 0 l 274 0 l 274 60 l 443 60 q 552 96 511 60 q 593 210 593 132 l 593 375 l 121 843 l -19 843 l -19 903 l 1021 903 l 1021 843 l 982 843 q 933 825 951 843 q 915 779 915 807 q 957 692 915 732 l 1136 514 l 1218 581 q 1318 742 1318 661 q 1282 815 1318 786 q 1181 843 1246 843 l 1111 843 l 1111 903 m 688 60 l 778 60 l 778 425 l 354 843 l 244 843 l 688 406 l 688 60 m 1360 1221 q 1388 1197 1360 1221 q 1415 1108 1415 1174 q 1360 997 1415 1043 q 1225 951 1304 951 q 1090 997 1146 951 q 1035 1108 1035 1043 q 1090 1221 1035 1174 q 1225 1268 1146 1268 q 1360 1221 1304 1268 m 726 1221 q 754 1197 726 1221 q 782 1108 782 1174 q 726 997 782 1043 q 592 951 671 951 q 457 997 513 951 q 401 1108 401 1043 q 457 1221 401 1174 q 592 1268 513 1268 q 726 1221 671 1268 m 553 988 q 510 1108 510 1035 q 553 1229 510 1182 l 549 1233 q 479 1181 506 1215 q 453 1108 453 1147 q 479 1035 453 1069 q 549 983 506 1001 l 553 988 m 1186 988 q 1143 1108 1143 1035 q 1186 1229 1143 1182 l 1182 1233 q 1113 1181 1139 1215 q 1086 1108 1086 1147 q 1113 1035 1086 1069 q 1182 983 1139 1001 l 1186 988 z "},"":{"ha":1629,"x_min":75,"x_max":1554,"o":"m 1554 843 l 1525 843 l 761 60 l 925 60 q 1310 151 1169 60 q 1415 230 1378 196 q 1493 314 1451 264 l 1533 314 l 1533 0 l 75 0 l 75 60 l 107 60 l 869 843 l 790 843 q 608 824 694 843 q 463 781 521 806 q 347 717 406 757 q 260 651 288 676 q 196 589 233 626 l 156 589 l 156 903 l 1554 903 l 1554 843 m 992 843 l 229 60 l 347 60 l 1104 843 l 992 843 m 1117 994 l 667 994 l 481 1197 l 893 1197 l 1038 1042 l 1181 1197 l 1301 1197 l 1117 994 m 739 1029 l 825 1029 l 721 1144 l 635 1144 l 739 1029 z "},"":{"ha":1415,"x_min":75,"x_max":1340,"o":"m 1340 715 l 1313 715 l 671 60 l 801 60 q 1111 133 993 60 q 1205 199 1171 171 q 1283 274 1239 228 l 1322 274 l 1322 0 l 75 0 l 75 60 l 106 60 l 746 715 l 688 715 q 239 554 421 715 q 183 501 215 533 l 144 501 l 144 775 l 1340 775 l 1340 715 m 219 60 l 318 60 l 956 715 l 857 715 l 219 60 m 1010 867 l 560 867 l 374 1069 l 786 1069 l 931 914 l 1074 1069 l 1194 1069 l 1010 867 m 632 901 l 718 901 l 614 1017 l 528 1017 l 632 901 z "},"":{"ha":1183,"x_min":32,"x_max":1142,"o":"m 842 451 l 842 0 q 581 -276 842 -276 l 101 -276 l 101 -214 l 249 -214 q 337 -179 300 -214 q 374 -94 374 -144 l 374 451 q 337 538 374 501 q 249 575 300 575 l 32 575 l 32 644 l 342 644 q 547 1056 439 924 q 822 1188 656 1188 q 997 1133 925 1188 q 1069 1001 1069 1079 q 995 867 1069 922 q 825 811 921 811 q 665 853 729 811 q 575 947 601 894 l 551 935 q 642 697 551 758 q 833 644 719 644 l 1142 644 l 1142 575 l 967 575 q 842 451 842 575 m 531 -60 l 531 418 q 358 583 531 547 l 356 574 q 460 418 460 532 l 460 -60 q 356 -215 460 -174 l 358 -225 q 531 -60 531 -189 m 718 868 q 674 1002 674 924 q 718 1132 674 1081 q 641 1076 671 1111 q 611 1001 611 1042 q 640 924 611 960 q 718 868 669 889 z "},"":{"ha":960,"x_min":69,"x_max":890,"o":"m 256 1069 l 706 1069 l 890 867 l 769 867 l 626 1022 l 482 867 l 69 867 l 256 1069 m 414 1035 l 328 1035 l 224 919 l 310 919 l 414 1035 z "},"":{"ha":960,"x_min":69,"x_max":890,"o":"m 706 867 l 256 867 l 69 1069 l 482 1069 l 626 914 l 769 1069 l 890 1069 l 706 867 m 328 901 l 414 901 l 310 1017 l 224 1017 l 328 901 z "},"":{"ha":681,"x_min":69,"x_max":611,"o":"m 99 1093 q 342 1008 204 1008 q 583 1093 481 1008 l 611 1085 q 533 898 611 975 q 342 821 454 821 q 150 898 231 821 q 69 1085 69 975 l 99 1093 m 528 979 q 342 921 450 921 q 157 979 235 921 l 150 975 q 230 895 178 925 q 342 865 282 865 q 454 895 401 865 q 535 975 507 925 l 528 979 z "},"":{"ha":519,"x_min":69,"x_max":450,"o":"m 394 1093 q 422 1069 394 1093 q 450 981 450 1046 q 394 869 450 915 q 260 824 339 824 q 125 869 181 824 q 69 981 69 915 q 125 1093 69 1046 q 260 1140 181 1140 q 394 1093 339 1140 m 193 872 q 156 981 156 917 q 193 1089 156 1044 l 190 1093 q 130 1045 153 1076 q 107 981 107 1014 q 130 916 107 947 q 190 868 153 885 l 193 872 z "},"":{"ha":519,"x_min":40,"x_max":479,"o":"m 211 1078 q 201 1058 211 1078 q 192 981 192 1038 q 211 883 192 924 q 258 843 231 843 q 306 883 286 843 q 325 981 325 924 q 306 1078 325 1038 q 258 1118 286 1118 q 211 1078 231 1118 m 260 1164 q 305 1164 260 1164 q 415 1110 350 1164 q 479 980 479 1056 q 415 852 479 904 q 259 800 350 800 q 104 853 168 800 q 40 981 40 906 q 105 1110 40 1056 q 260 1164 169 1164 m 183 856 q 140 981 140 906 q 183 1106 140 1056 l 179 1110 q 111 1055 138 1090 q 85 981 85 1019 q 111 906 85 942 q 179 851 138 871 l 183 856 z "},"":{"ha":786,"x_min":69,"x_max":717,"o":"m 717 -111 l 717 -262 q 393 -311 586 -311 q 69 -186 69 -311 q 142 -72 69 -121 q 543 31 268 13 l 543 8 q 408 -46 454 -4 q 361 -142 361 -87 q 392 -220 361 -196 q 474 -244 422 -244 q 583 -205 525 -244 q 663 -111 640 -165 l 717 -111 m 253 -54 q 125 -172 125 -94 q 163 -241 125 -211 q 267 -279 200 -271 l 269 -272 q 217 -228 240 -260 q 194 -165 194 -196 q 257 -61 194 -97 l 253 -54 z "},"":{"ha":1025,"x_min":69,"x_max":956,"o":"m 854 968 q 692 947 789 947 q 472 978 594 947 q 283 1008 349 1008 q 169 967 217 1008 l 174 961 q 243 968 206 968 q 423 933 281 968 q 674 899 565 899 q 857 963 782 899 l 854 968 m 848 915 q 832 901 848 915 q 767 869 815 888 q 633 851 718 851 q 415 885 549 851 q 194 919 281 919 q 108 868 129 919 l 69 868 q 160 1015 75 936 q 371 1093 246 1093 q 616 1068 496 1093 q 808 1043 736 1043 q 910 1092 881 1043 l 956 1092 q 915 989 949 1036 q 848 915 881 942 z "},"":{"ha":1290,"x_min":69,"x_max":1221,"o":"m 90 867 l 69 867 l 69 917 q 227 953 169 917 q 332 1069 285 990 l 667 1069 q 553 928 644 983 q 467 892 514 904 q 90 867 364 867 m 247 926 l 247 921 q 476 1031 407 929 l 388 1031 q 328 967 371 996 q 247 926 286 939 m 644 867 l 624 867 l 624 917 q 781 953 724 917 q 886 1069 839 990 l 1221 1069 q 1106 928 1199 983 q 1021 892 1068 904 q 644 867 918 867 m 801 926 l 801 921 q 1031 1031 961 929 l 942 1031 q 883 967 925 996 q 801 926 840 939 z "},"":{"ha":1879,"x_min":101,"x_max":1778,"o":"m 1733 36 l 1772 38 l 1778 -22 q 1653 -28 1700 -28 q 1248 37 1363 -28 q 1133 233 1133 101 l 1133 715 l 967 715 q 878 678 915 715 q 842 590 842 640 l 842 0 l 101 0 l 101 60 l 249 60 q 374 182 374 60 l 374 590 q 337 678 374 640 q 249 715 300 715 l 101 715 l 101 775 l 1774 775 l 1774 715 l 1601 715 l 1601 167 q 1733 36 1601 36 m 531 60 l 531 715 l 460 715 l 460 60 l 531 60 m 1290 715 l 1219 715 l 1219 247 q 1290 75 1219 104 l 1290 715 z "},"":{"ha":1403,"x_min":139,"x_max":1264,"o":"m 1264 476 l 1264 365 l 139 365 l 139 476 l 1264 476 z "},"":{"ha":1683,"x_min":139,"x_max":1544,"o":"m 1544 476 l 1544 365 l 139 365 l 139 476 l 1544 476 z "},"":{"ha":728,"x_min":83,"x_max":644,"o":"m 293 461 q 242 578 242 510 q 293 694 242 646 l 289 700 q 201 655 229 689 q 174 579 174 621 q 202 505 174 538 q 289 456 231 472 l 293 461 m 644 578 q 644 542 644 578 q 560 454 644 506 q 354 403 476 403 q 158 467 232 403 q 83 624 83 532 q 203 831 83 739 q 363 903 263 876 q 592 931 464 931 l 592 879 q 400 858 485 879 q 221 728 240 821 q 358 751 292 751 q 560 701 476 751 q 644 578 644 650 z "},"":{"ha":728,"x_min":83,"x_max":644,"o":"m 260 639 q 208 756 208 688 q 260 872 208 824 l 256 878 q 172 826 204 858 q 140 756 140 793 q 172 685 140 718 q 256 633 204 653 l 260 639 m 83 756 q 83 792 83 756 q 167 879 83 828 q 374 931 251 931 q 570 866 496 931 q 644 710 644 801 q 525 503 644 594 q 365 430 465 457 q 136 403 264 403 l 136 454 q 328 475 243 454 q 507 606 488 513 q 369 582 436 582 q 167 633 251 582 q 83 756 83 683 z "},"":{"ha":826,"x_min":126,"x_max":688,"o":"m 303 26 q 251 143 251 75 q 303 260 251 211 l 299 265 q 215 213 247 246 q 183 143 183 181 q 215 73 183 106 q 299 21 247 40 l 303 26 m 126 143 q 126 179 126 143 q 210 267 126 215 q 417 318 294 318 q 613 253 539 318 q 688 97 688 189 q 567 -111 688 -18 q 408 -183 508 -156 q 179 -210 307 -210 l 179 -158 q 371 -139 286 -158 q 550 -7 531 -100 q 413 -31 479 -31 q 210 20 294 -31 q 126 143 126 71 z "},"":{"ha":1372,"x_min":83,"x_max":1289,"o":"m 293 461 q 242 578 242 510 q 293 694 242 646 l 289 700 q 201 655 229 689 q 174 579 174 621 q 202 505 174 538 q 289 456 231 472 l 293 461 m 644 578 q 644 542 644 578 q 560 454 644 506 q 354 403 476 403 q 158 467 232 403 q 83 624 83 532 q 203 831 83 739 q 363 903 263 876 q 592 931 464 931 l 592 879 q 400 858 485 879 q 221 728 240 821 q 358 751 292 751 q 560 701 476 751 q 644 578 644 650 m 938 461 q 886 578 886 510 q 938 694 886 646 l 933 700 q 846 655 874 689 q 818 579 818 621 q 847 505 818 538 q 933 456 875 472 l 938 461 m 1289 578 q 1289 542 1289 578 q 1205 454 1289 506 q 999 403 1121 403 q 802 467 876 403 q 728 624 728 532 q 847 831 728 739 q 1008 903 907 876 q 1236 931 1108 931 l 1236 879 q 1044 858 1129 879 q 865 728 885 821 q 1003 751 936 751 q 1205 701 1121 751 q 1289 578 1289 650 z "},"":{"ha":1372,"x_min":83,"x_max":1289,"o":"m 260 639 q 208 756 208 688 q 260 872 208 824 l 256 878 q 172 826 204 858 q 140 756 140 793 q 172 685 140 718 q 256 633 204 653 l 260 639 m 904 639 q 853 756 853 688 q 904 872 853 824 l 900 878 q 817 826 849 858 q 785 756 785 793 q 817 685 785 718 q 900 633 849 653 l 904 639 m 83 756 q 83 792 83 756 q 167 879 83 828 q 374 931 251 931 q 570 866 496 931 q 644 710 644 801 q 525 503 644 594 q 365 430 465 457 q 136 403 264 403 l 136 454 q 328 475 243 454 q 507 606 488 513 q 369 582 436 582 q 167 633 251 582 q 83 756 83 683 m 728 756 q 728 792 728 756 q 812 879 728 828 q 1018 931 896 931 q 1215 866 1140 931 q 1289 710 1289 801 q 1169 503 1289 594 q 1009 430 1110 457 q 781 403 908 403 l 781 454 q 972 475 888 454 q 1151 606 1132 513 q 1014 582 1081 582 q 812 633 896 582 q 728 756 728 683 z "},"":{"ha":1471,"x_min":126,"x_max":1332,"o":"m 303 26 q 251 143 251 75 q 303 260 251 211 l 299 265 q 215 213 247 246 q 183 143 183 181 q 215 73 183 106 q 299 21 247 40 l 303 26 m 947 26 q 896 143 896 75 q 947 260 896 211 l 943 265 q 860 213 892 246 q 828 143 828 181 q 860 73 828 106 q 943 21 892 40 l 947 26 m 126 143 q 126 179 126 143 q 210 267 126 215 q 417 318 294 318 q 613 253 539 318 q 688 97 688 189 q 567 -111 688 -18 q 408 -183 508 -156 q 179 -210 307 -210 l 179 -158 q 371 -139 286 -158 q 550 -7 531 -100 q 413 -31 479 -31 q 210 20 294 -31 q 126 143 126 71 m 771 143 q 771 179 771 143 q 855 267 771 215 q 1061 318 939 318 q 1258 253 1183 318 q 1332 97 1332 189 q 1211 -111 1332 -18 q 1052 -183 1153 -156 q 824 -210 951 -210 l 824 -158 q 1015 -139 931 -158 q 1194 -7 1175 -100 q 1057 -31 1124 -31 q 855 20 939 -31 q 771 143 771 71 z "},"":{"ha":1488,"x_min":88,"x_max":1400,"o":"m 988 1119 l 988 874 q 1028 777 988 818 q 1125 736 1069 736 l 1400 736 l 1400 621 l 1125 621 q 1028 580 1069 621 q 988 483 988 539 l 988 -201 l 500 -201 l 500 483 q 461 579 500 538 q 369 621 422 621 l 88 621 l 88 736 l 364 736 q 460 777 419 736 q 500 874 500 818 l 500 1119 l 988 1119 m 665 953 l 665 1065 l 585 1065 l 585 774 q 665 953 665 807 m 665 -147 l 665 403 q 585 583 665 550 l 585 -147 l 665 -147 z "},"":{"ha":1488,"x_min":88,"x_max":1400,"o":"m 665 1015 l 665 1065 l 585 1065 l 585 836 q 665 1015 665 869 m 665 426 l 665 490 q 641 594 665 557 q 585 646 617 632 l 585 271 q 665 426 665 304 m 500 371 l 500 546 q 461 642 500 600 q 369 683 422 683 l 88 683 l 88 799 l 364 799 q 460 840 419 799 q 500 936 500 881 l 500 1119 l 988 1119 l 988 936 q 1028 840 988 881 q 1125 799 1069 799 l 1400 799 l 1400 683 l 1125 683 q 1028 642 1069 683 q 988 546 988 601 l 988 371 q 1028 274 988 315 q 1125 233 1069 233 l 1400 233 l 1400 118 l 1125 118 q 1028 77 1069 118 q 988 -19 988 36 l 988 -203 l 500 -203 l 500 -19 q 460 77 500 36 q 364 118 419 118 l 88 118 l 88 233 l 369 233 q 461 275 422 233 q 500 371 500 317 m 665 -149 l 665 -99 q 585 81 665 47 l 585 -149 l 665 -149 z "},"":{"ha":771,"x_min":125,"x_max":646,"o":"m 125 251 l 125 656 l 646 656 l 646 251 l 125 251 m 308 307 l 308 600 l 218 600 l 218 307 l 308 307 z "},"":{"ha":2475,"x_min":126,"x_max":2346,"o":"m 613 267 q 654 241 613 267 q 696 143 696 215 q 613 20 696 71 q 411 -31 529 -31 q 210 20 293 -31 q 126 143 126 71 q 210 267 126 215 q 411 318 293 318 q 613 267 529 318 m 301 26 q 250 143 250 75 q 301 260 250 211 l 297 265 q 214 213 246 246 q 182 143 182 181 q 214 73 182 106 q 297 21 246 40 l 301 26 m 1438 267 q 1479 241 1438 267 q 1521 143 1521 215 q 1438 20 1521 71 q 1236 -31 1354 -31 q 1035 20 1118 -31 q 951 143 951 71 q 1035 267 951 215 q 1236 318 1118 318 q 1438 267 1354 318 m 1126 26 q 1075 143 1075 75 q 1126 260 1075 211 l 1122 265 q 1039 213 1071 246 q 1007 143 1007 181 q 1039 73 1007 106 q 1122 21 1071 40 l 1126 26 m 2263 267 q 2304 241 2263 267 q 2346 143 2346 215 q 2263 20 2346 71 q 2061 -31 2179 -31 q 1860 20 1943 -31 q 1776 143 1776 71 q 1860 267 1776 215 q 2061 318 1943 318 q 2263 267 2179 318 m 1951 26 q 1900 143 1900 75 q 1951 260 1900 211 l 1947 265 q 1864 213 1896 246 q 1832 143 1832 181 q 1864 73 1832 106 q 1947 21 1896 40 l 1951 26 z "},"":{"ha":2401,"x_min":28,"x_max":2374,"o":"m 558 -31 l 486 -31 l 1033 931 l 1106 931 l 558 -31 m 406 956 q 490 956 406 956 q 679 880 575 956 q 783 692 783 804 q 672 501 783 579 q 405 424 561 424 q 138 501 249 424 q 28 691 28 579 q 132 879 28 803 q 406 956 236 956 m 519 693 q 519 750 519 693 q 494 861 519 807 q 405 915 469 915 q 316 861 340 915 q 292 693 292 807 q 322 521 292 579 q 405 463 351 463 q 489 521 458 463 q 519 693 519 579 m 175 572 q 157 603 175 572 q 139 690 139 635 q 175 809 139 746 q 274 913 211 872 l 272 917 q 133 822 183 883 q 83 690 83 760 q 133 559 83 621 q 272 464 183 497 l 274 468 q 175 572 211 508 m 607 581 q 619 606 607 581 q 631 689 631 631 q 607 797 631 747 q 547 874 583 846 l 543 871 q 575 689 575 803 q 543 507 575 575 l 547 504 q 607 581 583 532 m 1213 515 q 1297 515 1213 515 q 1486 440 1382 515 q 1590 251 1590 364 q 1479 61 1590 139 q 1212 -17 1368 -17 q 945 61 1056 -17 q 835 251 835 139 q 939 439 835 363 q 1213 515 1043 515 m 1326 253 q 1326 310 1326 253 q 1301 421 1326 367 q 1212 475 1276 475 q 1123 421 1147 475 q 1099 253 1099 367 q 1128 81 1099 139 q 1212 22 1158 22 q 1296 81 1265 22 q 1326 253 1326 139 m 982 131 q 964 163 982 131 q 946 250 946 194 q 982 369 946 306 q 1081 472 1018 432 l 1079 476 q 940 381 990 443 q 890 250 890 319 q 940 119 890 181 q 1079 24 990 57 l 1081 28 q 982 131 1018 68 m 1414 141 q 1426 166 1414 141 q 1438 249 1438 190 q 1414 356 1438 307 q 1354 433 1390 406 l 1350 431 q 1382 249 1382 363 q 1350 67 1382 135 l 1354 64 q 1414 141 1390 92 m 1996 515 q 2081 515 1996 515 q 2269 440 2165 515 q 2374 251 2374 364 q 2263 61 2374 139 q 1995 -17 2151 -17 q 1728 61 1839 -17 q 1618 251 1618 139 q 1722 439 1618 363 q 1996 515 1826 515 m 2110 253 q 2110 310 2110 253 q 2085 421 2110 367 q 1995 475 2060 475 q 1906 421 1931 475 q 1882 253 1882 367 q 1912 81 1882 139 q 1995 22 1942 22 q 2079 81 2049 22 q 2110 253 2110 139 m 1765 131 q 1747 163 1765 131 q 1729 250 1729 194 q 1765 369 1729 306 q 1864 472 1801 432 l 1863 476 q 1724 381 1774 443 q 1674 250 1674 319 q 1724 119 1674 181 q 1863 24 1774 57 l 1864 28 q 1765 131 1801 68 m 2197 141 q 2209 166 2197 141 q 2221 249 2221 190 q 2197 356 2221 307 q 2138 433 2174 406 l 2133 431 q 2165 249 2165 363 q 2133 67 2165 135 l 2138 64 q 2197 141 2174 92 z "},"":{"ha":490,"x_min":0,"x_max":379,"o":"m 0 358 l 0 417 l 379 763 l 379 642 l 224 499 l 379 354 l 379 11 l 0 358 m 326 251 l 139 421 l 92 378 l 326 165 l 326 251 z "},"":{"ha":490,"x_min":111,"x_max":490,"o":"m 490 415 l 490 357 l 111 11 l 111 132 l 267 275 l 111 419 l 111 763 l 490 415 m 164 446 l 308 313 l 356 356 l 164 532 l 164 446 z "},"":{"ha":786,"x_min":83,"x_max":703,"o":"m 156 -31 l 83 -31 l 631 931 l 703 931 l 156 -31 z "},"":{"ha":1629,"x_min":0,"x_max":1611,"o":"m 1214 333 l 764 333 l 764 293 q 824 90 764 151 q 1020 28 885 28 q 1260 54 1156 28 q 1421 113 1365 81 q 1521 172 1476 146 q 1578 199 1565 199 q 1611 171 1611 199 q 1467 58 1611 132 q 1050 -31 1286 -31 q 638 6 814 -31 q 329 126 461 42 q 156 333 197 210 l 0 333 l 0 403 l 139 403 q 136 460 136 436 q 140 511 136 483 l 0 511 l 0 581 l 158 581 q 278 742 193 672 q 481 851 364 811 q 981 931 708 931 q 1479 828 1196 931 l 1479 897 l 1546 897 l 1546 565 l 1479 565 q 1273 774 1419 678 q 974 869 1126 869 q 812 816 860 869 q 764 668 764 763 l 764 581 l 1214 581 l 1214 511 l 764 511 l 764 403 l 1214 403 l 1214 333 m 601 89 q 396 233 475 143 q 317 450 317 322 q 396 676 317 578 q 601 833 475 775 l 600 840 q 324 685 431 793 q 218 450 218 576 q 324 225 218 324 q 600 82 429 126 l 601 89 z "},"":{"ha":2178,"x_min":56,"x_max":2122,"o":"m 556 832 l 556 553 q 629 483 556 483 l 721 483 l 721 428 l 99 428 l 99 483 l 190 483 q 264 553 264 483 l 264 832 q 244 857 264 857 q 183 815 224 857 q 110 731 142 772 l 78 689 l 56 689 l 56 913 l 776 913 l 776 689 l 743 689 q 729 707 738 696 q 697 747 721 718 q 653 799 674 776 q 578 857 600 857 q 556 832 556 857 m 375 483 l 375 858 l 319 858 l 319 483 l 375 483 m 1688 858 l 1688 483 l 1744 483 l 1744 858 l 1688 858 m 1632 818 l 1419 489 l 1381 489 l 1110 718 l 1110 642 q 1181 523 1110 563 q 1336 483 1251 483 l 1336 428 l 826 428 l 826 483 q 982 523 911 483 q 1053 642 1053 563 l 1053 706 q 981 815 1053 772 q 817 857 910 857 l 817 913 l 1289 913 l 1506 728 l 1626 913 l 2122 913 l 2122 858 l 1997 858 q 1924 810 1924 858 l 1924 551 q 1997 483 1924 483 l 2122 483 l 2122 428 l 1468 428 l 1468 483 l 1561 483 q 1632 551 1632 483 l 1632 818 m 1401 568 l 1401 629 l 1126 857 l 1042 857 l 1390 568 l 1401 568 z "},"":{"ha":1868,"x_min":31,"x_max":1836,"o":"m 296 406 q 251 458 296 406 q 207 633 207 510 q 298 861 207 757 q 540 1025 389 965 l 539 1031 q 224 866 342 972 q 106 633 106 760 q 222 402 106 507 q 533 238 338 297 l 535 243 q 296 406 385 303 m 1390 423 q 1414 474 1390 423 q 1438 633 1438 525 q 1390 844 1438 742 q 1263 1019 1343 946 l 1254 1017 q 1333 633 1333 821 q 1254 250 1333 446 l 1263 247 q 1390 423 1343 321 m 31 633 q 279 975 31 838 q 933 1113 528 1113 q 1588 975 1339 1113 q 1836 633 1836 838 q 1641 322 1836 458 q 1113 157 1446 186 q 1133 83 1113 106 q 1207 60 1154 60 l 1272 60 q 1724 258 1578 60 l 1764 258 l 1764 0 l 1026 0 l 1026 226 q 1121 285 1081 239 q 1181 394 1161 332 q 1221 632 1221 519 q 1159 954 1221 853 q 934 1056 1097 1056 q 708 953 771 1056 q 646 632 646 851 q 686 394 646 519 q 746 285 706 332 q 840 226 786 239 l 840 0 l 103 0 l 103 258 l 143 258 q 594 60 289 60 l 660 60 q 733 83 713 60 q 754 157 754 106 q 226 322 421 186 q 31 633 31 458 z "},"":{"ha":1589,"x_min":40,"x_max":1535,"o":"m 1076 694 q 1088 799 1088 747 q 1069 906 1088 850 q 1002 1008 1051 963 q 874 1053 953 1053 q 717 1033 794 1053 q 589 983 639 1013 q 444 878 485 926 l 426 858 l 379 858 l 410 1004 q 517 1039 471 1022 q 607 1069 564 1056 q 669 1085 650 1082 q 726 1097 688 1089 q 793 1106 764 1104 q 946 1113 881 1113 q 1228 1053 1094 1113 q 1448 878 1361 993 q 1535 622 1535 764 q 1404 264 1535 426 q 1004 8 1257 78 q 699 -31 864 -31 q 228 65 417 -31 q 40 300 40 160 q 274 592 40 468 q 857 715 508 715 q 1076 694 965 715 m 844 654 q 642 577 711 654 q 538 339 572 500 q 525 228 525 276 q 573 79 525 129 q 711 29 621 29 q 905 108 826 29 q 1015 339 983 188 q 1033 481 1033 426 q 989 611 1033 568 q 844 654 944 654 m 183 296 q 222 426 183 365 q 325 528 261 486 q 596 642 449 604 l 594 649 q 234 516 374 608 q 94 301 94 424 q 194 136 94 207 q 461 31 293 65 l 467 40 q 260 140 338 72 q 183 296 183 207 m 1164 788 q 1115 432 1164 617 q 982 86 1067 247 l 986 81 q 1170 333 1099 182 q 1242 645 1242 483 q 1165 918 1242 807 l 1158 913 q 1164 788 1164 858 z "},"":{"ha":1639,"x_min":69,"x_max":1569,"o":"m 1569 0 l 69 0 l 69 60 l 578 1113 l 986 1113 l 1569 60 l 1569 0 m 168 60 l 1008 60 l 561 868 l 168 60 m 1103 60 l 1217 60 l 768 869 l 654 869 l 1103 60 z "},"":{"ha":1879,"x_min":101,"x_max":1774,"o":"m 1601 -276 l 1133 -276 l 1133 1053 l 967 1053 q 878 1015 915 1053 q 842 928 842 978 l 842 -276 l 374 -276 l 374 928 q 337 1015 374 978 q 249 1053 300 1053 l 101 1053 l 101 1113 l 1774 1113 l 1774 1053 l 1601 1053 l 1601 -276 m 531 -217 l 531 1053 l 460 1053 l 460 -217 l 531 -217 m 1219 -217 l 1290 -217 l 1290 1053 l 1219 1053 l 1219 -217 z "},"":{"ha":1633,"x_min":69,"x_max":1564,"o":"m 783 563 l 383 -217 l 463 -217 l 836 508 l 783 563 m 69 1053 l 69 1113 l 1564 1113 l 1564 793 l 1524 793 q 1399 915 1472 861 q 1195 1011 1326 969 q 903 1053 1064 1053 l 478 1053 l 1146 371 l 807 -217 l 900 -217 q 1028 -215 978 -217 q 1156 -199 1078 -212 q 1290 -163 1233 -186 q 1411 -94 1347 -140 q 1524 18 1475 -47 l 1564 18 l 1564 -276 l 69 -276 l 69 -217 l 175 -217 q 272 -174 238 -217 q 404 60 307 -131 l 661 560 q 681 631 681 597 q 629 719 681 665 l 303 1053 l 69 1053 z "},"":{"ha":1028,"x_min":139,"x_max":889,"o":"m 889 525 l 889 414 l 139 414 l 139 525 l 889 525 z "},"":{"ha":1489,"x_min":60,"x_max":1722,"o":"m 1722 1113 l 1722 1053 l 1382 1053 l 901 -26 l 636 -26 l 142 715 l 60 715 l 60 775 l 899 775 l 899 715 l 849 715 q 781 692 803 715 q 758 627 758 669 q 790 538 758 585 l 956 288 l 1324 1113 l 1722 1113 m 764 33 l 311 715 l 218 715 q 457 354 301 588 q 671 33 457 354 l 764 33 z "},"":{"ha":1197,"x_min":69,"x_max":1128,"o":"m 1128 466 q 1128 402 1128 466 q 1056 260 1128 338 q 886 182 983 182 q 724 231 789 182 q 600 375 660 281 q 478 228 546 274 q 311 182 411 182 q 140 259 211 182 q 69 465 69 336 q 141 671 69 593 q 310 749 213 749 q 473 699 408 749 q 597 557 538 650 q 719 703 651 658 q 887 749 788 749 q 1057 672 986 749 q 1128 466 1128 594 m 176 469 q 176 429 176 469 q 219 338 176 389 q 327 288 263 288 q 449 339 392 288 q 542 476 507 390 q 332 643 436 643 q 219 596 261 643 q 176 469 176 549 m 1021 462 q 1021 502 1021 462 q 978 592 1021 542 q 870 643 935 643 q 748 592 806 643 q 656 456 690 542 q 865 288 763 288 q 978 335 936 288 q 1021 462 1021 382 z "},"":{"ha":1089,"x_min":69,"x_max":1019,"o":"m 456 43 l 456 993 q 367 793 367 957 l 367 -157 q 456 43 456 -121 m 397 1031 q 431 1052 397 1031 q 583 1092 464 1072 q 822 1113 701 1113 q 1019 1106 943 1113 l 1013 1050 q 967 1053 990 1053 q 857 1017 899 1053 q 815 903 815 981 l 815 26 q 787 -101 815 -47 q 692 -194 758 -154 q 214 -276 560 -276 q 69 -269 146 -276 l 76 -214 q 122 -217 99 -217 q 232 -181 190 -217 q 274 -67 274 -144 l 274 810 q 302 937 274 883 q 397 1031 331 990 z "},"":{"ha":1028,"x_min":139,"x_max":889,"o":"m 889 261 q 738 297 817 297 q 514 260 658 297 q 290 224 369 224 q 139 261 210 224 l 139 372 q 290 336 211 336 q 514 372 369 336 q 738 408 658 408 q 889 372 817 408 l 889 261 m 889 567 q 738 600 818 600 q 514 565 658 600 q 290 531 369 531 q 139 567 211 531 l 139 678 q 290 643 208 643 q 515 677 371 643 q 737 711 660 711 q 889 678 814 711 l 889 567 z "},"":{"ha":1028,"x_min":139,"x_max":889,"o":"m 889 678 l 889 567 l 617 567 l 506 372 l 889 372 l 889 261 l 442 261 l 276 -31 l 204 -31 l 369 261 l 139 261 l 139 372 l 433 372 l 544 567 l 139 567 l 139 678 l 607 678 l 751 931 l 824 931 l 679 678 l 889 678 z "},"":{"ha":1028,"x_min":139,"x_max":889,"o":"m 869 306 l 822 207 l 158 515 l 158 599 l 822 907 l 869 808 l 311 557 l 869 306 m 889 111 l 889 0 l 139 0 l 139 111 l 889 111 z "},"":{"ha":1028,"x_min":139,"x_max":889,"o":"m 158 808 l 206 907 l 869 599 l 869 515 l 206 207 l 158 306 l 717 557 l 158 808 m 889 111 l 889 0 l 139 0 l 139 111 l 889 111 z "},"":{"ha":1306,"x_min":69,"x_max":1236,"o":"m 1236 388 l 1006 -276 l 294 -276 l 69 388 l 69 449 l 300 1113 l 1011 1113 l 1236 449 l 1236 388 m 278 386 l 164 386 l 367 -215 l 481 -215 l 278 386 m 1143 386 l 532 386 l 735 -215 l 933 -215 l 1143 386 m 839 449 l 953 449 l 750 1050 l 636 1050 l 839 449 m 164 449 l 746 449 l 543 1050 l 368 1050 l 164 449 z "},"":{"ha":2710,"x_min":101,"x_max":2600,"o":"m 935 60 l 1097 60 l 1097 0 l 101 0 l 101 60 l 247 60 q 371 183 371 60 l 371 590 q 335 678 371 642 q 247 715 299 715 l 101 715 l 101 775 l 1449 775 l 1449 546 l 1411 546 q 1353 606 1381 582 q 1275 658 1326 631 q 968 715 1172 715 q 874 684 908 715 q 840 604 840 653 l 840 547 q 939 446 840 446 q 1065 476 1010 446 q 1153 554 1121 507 l 1203 554 l 1203 251 l 1151 251 q 1072 343 1124 317 q 939 369 1019 369 q 840 268 840 369 l 840 176 q 861 85 840 111 q 935 60 882 60 m 458 60 l 528 60 l 528 715 l 458 715 l 458 60 m 2328 590 l 2328 182 q 2453 60 2328 60 l 2600 60 l 2600 0 l 1588 0 l 1588 60 l 1735 60 q 1860 182 1860 60 l 1860 590 q 1823 678 1860 640 q 1735 715 1786 715 l 1588 715 l 1588 775 l 2600 775 l 2600 715 l 2453 715 q 2365 678 2401 715 q 2328 590 2328 640 m 2017 60 l 2017 715 l 1946 715 l 1946 60 l 2017 60 z "},"":{"ha":2986,"x_min":101,"x_max":2967,"o":"m 935 60 l 1097 60 l 1097 0 l 101 0 l 101 60 l 247 60 q 371 183 371 60 l 371 590 q 335 678 371 642 q 247 715 299 715 l 101 715 l 101 775 l 1449 775 l 1449 546 l 1411 546 q 1353 606 1381 582 q 1275 658 1326 631 q 968 715 1172 715 q 874 684 908 715 q 840 604 840 653 l 840 547 q 939 446 840 446 q 1065 476 1010 446 q 1153 554 1121 507 l 1203 554 l 1203 251 l 1151 251 q 1072 343 1124 317 q 939 369 1019 369 q 840 268 840 369 l 840 176 q 861 85 840 111 q 935 60 882 60 m 458 60 l 528 60 l 528 715 l 458 715 l 458 60 m 2326 590 l 2326 182 q 2451 58 2326 58 q 2667 111 2553 58 q 2924 347 2807 178 l 2967 347 l 2967 0 l 1588 0 l 1588 60 l 1733 60 q 1857 182 1857 60 l 1857 590 q 1820 678 1857 640 q 1733 715 1783 715 l 1588 715 l 1588 775 l 2653 775 l 2653 715 l 2451 715 q 2363 678 2400 715 q 2326 590 2326 640 m 1944 60 l 2014 60 l 2014 715 l 1944 715 l 1944 60 z "}}}
